<?xml version="1.0" encoding="utf-8"?>
<!-- Generator: Adobe Illustrator 23.0.4, SVG Export Plug-In . SVG Version: 6.00 Build 0)  -->
<svg version="1.1" id="i-home" xmlns="http://www.w3.org/2000/svg" xmlns:xlink="http://www.w3.org/1999/xlink" x="0px" y="0px"
	 viewBox="0 0 27 21" style="enable-background:new 0 0 27 21;" xml:space="preserve">
<style type="text/css">
	.st0{fill:#ED4545;}
</style>
<g>
	<g>
		<g>
			<path d="M-53.8,49.9c-0.2,0-0.3-0.1-0.5-0.2l-5-5c-0.1-0.1-0.2-0.3-0.2-0.5s0.1-0.3,0.2-0.5l5-5c0.2-0.2,0.5-0.2,0.7-0.1
				c0.2,0.1,0.4,0.3,0.4,0.6v2.4h11.1c0.4,0,0.6,0.3,0.6,0.6v3.9c0,0.4-0.3,0.6-0.6,0.6h-11.1v2.4c0,0.3-0.2,0.5-0.4,0.6
				C-53.7,49.9-53.7,49.9-53.8,49.9z M-57.9,44.3l3.4,3.4v-1.5c0-0.4,0.3-0.6,0.6-0.6h11.1V43h-11.1c-0.4,0-0.6-0.3-0.6-0.6v-1.5
				L-57.9,44.3z"/>
		</g>
		<g>
			<path d="M-47.1,40.6c-0.1,0-0.2,0-0.2,0c-0.2-0.1-0.4-0.3-0.4-0.6v-2.4h-11.1c-0.4,0-0.6-0.3-0.6-0.6v-3.9c0-0.4,0.3-0.6,0.6-0.6
				h11.1V30c0-0.3,0.2-0.5,0.4-0.6c0.2-0.1,0.5,0,0.7,0.1l5,5c0.1,0.1,0.2,0.3,0.2,0.5s-0.1,0.3-0.2,0.5l-5,5
				C-46.8,40.6-47,40.6-47.1,40.6z M-58.2,36.3h11.1c0.4,0,0.6,0.3,0.6,0.6v1.5L-43,35l-3.4-3.4v1.5c0,0.4-0.3,0.6-0.6,0.6h-11.1
				V36.3z"/>
		</g>
	</g>
</g>
<g>
	<path d="M-49.7,48.5c-5.6,0-10.2-4.5-10.3-10.2s4.5-10.2,10.2-10.3s10.2,4.5,10.3,10.2S-44.1,48.5-49.7,48.5z M-49.8,29.5
		c-4.8,0-8.7,4-8.7,8.8s4,8.7,8.8,8.7c4.8,0,8.7-4,8.7-8.8C-41.1,33.4-45,29.5-49.8,29.5z M-49.8,45.2c-1.2,0-2.4-0.3-3.5-0.9
		c-0.1-0.1-0.2-0.2-0.2-0.3c0-0.1,0-0.3,0.1-0.4l8.8-8.9c0.1-0.1,0.2-0.1,0.4-0.1c0.1,0,0.2,0.1,0.3,0.2c0.6,1.1,1,2.3,1,3.5
		C-42.9,42-46,45.1-49.8,45.2z M-51.2,43c0.6,0.3,1.3,0.4,2,0.4c2.6,0,4.7-2.1,4.7-4.7c0-0.7-0.2-1.4-0.5-2L-51.2,43z"/>
	<g>
		<path d="M-49.8,31.4c1.2,0,2.4,0.3,3.5,0.9c0.1,0.1,0.2,0.2,0.2,0.3c0,0.1,0,0.3-0.1,0.4l-8.8,8.9c-0.1,0.1-0.2,0.1-0.4,0.1
			c-0.1,0-0.2-0.1-0.3-0.2c-0.6-1.1-1-2.3-1-3.5C-56.7,34.5-53.6,31.4-49.8,31.4z M-48.4,33.5c-0.6-0.3-1.3-0.4-2-0.4
			c-2.6,0-4.7,2.1-4.7,4.7c0,0.7,0.2,1.4,0.5,2L-48.4,33.5z"/>
	</g>
</g>
<path class="st0" d="M-50.7-19.2c0-4.4-3.5-7.9-7.9-7.9s-7.9,3.5-7.9,7.9c0,3,1.6,5.6,4.1,6.9v5.3c0,0.2,0.1,0.4,0.3,0.5
	c0.2,0.1,0.4,0.1,0.6,0l2.9-1.9l2.9,1.9c0.1,0.1,0.2,0.1,0.3,0.1c0.1,0,0.2,0,0.3-0.1c0.2-0.1,0.3-0.3,0.3-0.5v-5.3
	C-52.4-13.6-50.7-16.2-50.7-19.2z M-56.3-8.2l-2.1-1.3c-0.2-0.1-0.4-0.1-0.6,0L-61-8.2v-3.3c0.7,0.3,1.5,0.4,2.4,0.4
	c0.8,0,1.6-0.1,2.4-0.4V-8.2z M-55.8-13.6c-0.1,0-0.1,0-0.2,0.1c-0.8,0.4-1.7,0.6-2.7,0.6c-1,0-1.9-0.2-2.7-0.6
	c-0.1,0-0.1-0.1-0.2-0.1c-2-1-3.4-3.2-3.4-5.6c0-3.5,2.8-6.3,6.3-6.3s6.3,2.8,6.3,6.3C-52.3-16.8-53.7-14.6-55.8-13.6z M-54.7-22
	c0.3,0.3,0.3,0.7,0,1l-4.6,4.6c-0.1,0.1-0.3,0.2-0.5,0.2c-0.2,0-0.4-0.1-0.5-0.2l-2.1-2.1c-0.3-0.3-0.3-0.7,0-1s0.7-0.3,1,0l1.6,1.6
	l4.1-4.1C-55.5-22.3-55-22.3-54.7-22z"/>
<path d="M11.3,3.5c0-1.6-1.3-2.9-2.9-2.9c-1.3,0-2.4,0.8-2.8,2c0,0,0,0.1,0,0.1L5.5,3.3C4.9,3.8,4.4,4.4,4.1,5.2l-2.7,7.4
	c-0.1,0.3-0.2,0.6-0.3,0.9v0c0,0.1,0,0.1,0,0.2c-0.7,2.9,1.1,5.9,4.1,6.6C8,21,11,19.2,11.7,16.3c0.1-0.4,0.2-0.9,0.2-1.3
	c0-0.2,0-0.3,0-0.5c0-0.1,0-0.1,0-0.2V12h3.3v2.2c0,0.1,0,0.1,0,0.2c0,0.2,0,0.3,0,0.5c0,3,2.4,5.5,5.4,5.5c3,0,5.5-2.4,5.5-5.4
	c0-0.4,0-0.9-0.2-1.3c0-0.1,0-0.1,0-0.2v0c-0.1-0.3-0.2-0.6-0.3-0.9l-2.7-7.4c-0.2-0.7-0.7-1.4-1.3-1.9l-0.1-0.6c0,0,0-0.1,0-0.1
	c-0.5-1.5-2.2-2.4-3.7-1.9c-1.2,0.4-2,1.5-2,2.8c0,0,0,0,0,0l0,1c-0.2,0.4-0.4,0.8-0.5,1.2h-3.5c-0.1-0.4-0.2-0.9-0.5-1.2L11.3,3.5
	C11.3,3.5,11.3,3.5,11.3,3.5z M15.2,8.9h-3.3V7.3h3.3L15.2,8.9z M8.4,2.1c0.5,0,1,0.3,1.2,0.8C9.1,2.6,8.5,2.5,7.9,2.5
	c-0.1,0-0.3,0-0.4,0C7.7,2.3,8,2.1,8.4,2.1z M5.6,5.7L5.6,5.7c0.4-1.3,1.7-1.9,3-1.5c1,0.3,1.6,1.2,1.6,2.2l0,3.2c0,0,0,0.1,0,0.1
	c0,0,0,0.1,0,0.1v1.3C8.6,9.4,6.2,9,4.1,10L5.6,5.7z M6.4,18.5c-2,0-3.6-1.6-3.6-3.6c0-0.3,0-0.6,0.1-0.9l0.3-0.7
	c0.9-1.8,3-2.5,4.8-1.6c1.8,0.9,2.5,3,1.6,4.8C9,17.8,7.7,18.5,6.4,18.5z M20.6,18.5c-2,0-3.6-1.6-3.6-3.6c0-2,1.6-3.6,3.6-3.6
	c1.4,0,2.6,0.8,3.2,2l0.3,0.7c0.5,1.9-0.7,3.8-2.6,4.3C21.2,18.5,20.9,18.5,20.6,18.5z M22.9,10c-2.1-1-4.6-0.5-6.2,1.1l0-4.6
	c0-1.3,1.1-2.3,2.4-2.3c1,0,1.9,0.7,2.2,1.6v0L22.9,10z M18.6,2.1c0.4,0,0.7,0.1,0.9,0.4c-0.1,0-0.3,0-0.4,0c-0.6,0-1.2,0.1-1.7,0.4
	C17.6,2.4,18.1,2.1,18.6,2.1z"/>
</svg>
