<svg xmlns="http://www.w3.org/2000/svg" viewBox="0 0 23 23">
  <path d="M19.624 3.376C17.454 1.206 14.569.011 11.5.011c-3.069 0-5.954 1.195-8.124 3.365S.011 8.431.011 11.5s1.195 5.954 3.365 8.124 5.055 3.365 8.124 3.365 5.954-1.195 8.124-3.365 3.365-5.055 3.365-8.124-1.195-5.954-3.365-8.124zm-2.26 6.724l3.43-.534c.129.629.197 1.276.197 1.934s-.068 1.305-.197 1.934l-3.43-.534c.218-.92.218-1.88 0-2.8zm3.005-1.985l-3.539.551c-.275-.516-.627-1.001-1.061-1.435-.435-.434-.919-.787-1.435-1.06l.551-3.541c1.233.47 2.365 1.198 3.326 2.159s1.688 2.093 2.158 3.326zM11.5 15.538c-1.079 0-2.093-.42-2.856-1.183-.762-.762-1.183-1.777-1.183-2.855 0-1.079.421-2.093 1.183-2.856.788-.787 1.822-1.181 2.856-1.181s2.068.394 2.856 1.181c.763.763 1.183 1.777 1.183 2.856s-.42 2.093-1.183 2.855c-.763.763-1.777 1.183-2.856 1.183zm0-13.529c.658 0 1.305.068 1.934.197l-.534 3.43c-.92-.218-1.88-.218-2.8 0l-.534-3.43c.629-.13 1.276-.197 1.934-.197zm-6.711 2.78C5.75 3.827 6.882 3.1 8.115 2.63l.551 3.541c-.516.273-1 .626-1.434 1.06-.43.43-.787.913-1.065 1.435l-3.536-.551c.47-1.233 1.197-2.365 2.158-3.326zM2.009 11.5c0-.658.068-1.305.197-1.935l3.421.533c-.107.454-.164.924-.164 1.402s.057.947.164 1.401l-3.421.533c-.129-.63-.197-1.276-.197-1.934zm.621 3.385l3.537-.551c.278.521.635 1.005 1.064 1.434.43.43.913.787 1.435 1.065l-.551 3.536c-1.233-.47-2.365-1.197-3.326-2.158s-1.688-2.093-2.159-3.326zm8.87 6.106c-.658 0-1.305-.068-1.934-.198l.532-3.421c.454.108.924.165 1.402.165.478 0 .948-.057 1.401-.165l.533 3.421c-.629.13-1.276.198-1.934.198zm6.711-2.78c-.961.961-2.093 1.688-3.326 2.158l-.551-3.536c.522-.278 1.005-.635 1.435-1.064.434-.435.786-.92 1.061-1.435l3.539.551c-.47 1.233-1.197 2.365-2.158 3.326z"/>
</svg>
