<svg xmlns="http://www.w3.org/2000/svg" viewBox="0 0 25 25">
  <path d="M23.497 24.507H1.502c-.552 0-1-.448-1-1V1.673c0-.553.448-1 1-1 .553 0 1 .447 1 1v20.834h20.995c.553 0 1 .447 1 1 0 .552-.447 1-1 1zm-.902-4.013H18.36c-.51 0-.923-.413-.923-.923V1.416c0-.51.413-.923.923-.923h4.235c.51 0 .923.413.923.923v18.155c0 .51-.413.923-.923.923zM21.48 2.499h-1.94v15.989h1.94V2.499zm-5.883 17.995h-4.171c-.509 0-.922-.413-.922-.923V8.405c0-.51.413-.923.922-.923h4.171c.51 0 .923.413.923.923v11.166c0 .51-.413.923-.923.923zM14.513 9.488H12.51v9h2.003v-9zM8.567 20.494H4.429c-.51 0-.923-.413-.923-.923v-5.167c0-.51.413-.922.923-.922h4.138c.51 0 .923.412.923.922v5.167c0 .51-.413.923-.923.923zm-1.051-5.006H5.512v3h2.004v-3z"/>
</svg>
