<svg id="Capa_1" data-name="Capa 1" xmlns="http://www.w3.org/2000/svg" viewBox="0 0 512 405"><defs><style>.cls-1{fill:#fff;}</style></defs><title>beneficios</title><path class="cls-1" d="M497,176H436.79A14.59,14.59,0,0,0,423,185.38,15.07,15.07,0,0,0,437,206h23.79l-73.1,71.89c-1.77-40.67-26.79-70.6-54-84.9a75,75,0,1,0-97.36,0,105.45,105.45,0,0,0-52.24,64q-2.82-3.23-5.91-6.25A105,105,0,0,0,153.71,233a75,75,0,1,0-97.39,0A105.1,105.1,0,0,0,0,326V451.65A14.34,14.34,0,0,0,14.35,466H137a15,15,0,0,0,10.61-4.39L257,352.21l39.39,39.4a15,15,0,0,0,21.22,0L482,227.21v24A14.59,14.59,0,0,0,491.38,265,15.07,15.07,0,0,0,512,251V191a15,15,0,0,0-15-15ZM246.24,146.07a40.11,40.11,0,0,1,48.83-48.83,39.29,39.29,0,0,1,28.69,28.69,40.11,40.11,0,0,1-48.83,48.83A39.29,39.29,0,0,1,246.24,146.07ZM66.42,186a39.94,39.94,0,0,1,48.6-48.6A39.15,39.15,0,0,1,143.58,166,39.94,39.94,0,0,1,95,214.58,39.15,39.15,0,0,1,66.42,186Zm64.37,235H35.54V330.79c0-33.71,24.59-63.31,59.31-70.05,25.22-4.9,44.62,2.22,62.38,18.69a69.52,69.52,0,0,1,22.64,49A14.47,14.47,0,0,0,180,330v44.22ZM304,344.79l-36.37-39.4a15,15,0,0,0-21.22,0l-31.21,36.4V286.2c0-35.55,24.42-68.82,59.64-73.67C328,205.22,357,239.62,357,286v5.79Z" transform="translate(0 -61)"/></svg>