<svg xmlns="http://www.w3.org/2000/svg" viewBox="0 0 24 22">
  <path d="M22.636 16.557l-10.223 4.646c-.132.059-.272.089-.414.089-.142 0-.282-.03-.414-.089L1.364 16.557c-.356-.162-.586-.517-.586-.91V6.355c0-.393.23-.748.586-.91L11.585.798c.264-.119.564-.119.828 0l10.223 4.647c.356.162.586.517.586.91v9.292c0 .393-.23.748-.586.91zM2.778 15.004l8.221 3.735v-6.512c0-.108.03-.207.061-.305L2.778 8.158v6.846zM3.919 6.48l8.08 3.672 3.429-1.558-8.08-3.673L3.919 6.48zm8.08-3.673L8.556 4.372l8.08 3.673L20.08 6.48l-8.081-3.673zm9.223 5.351l-8.284 3.764c.031.098.061.197.061.305v6.513l8.223-3.736V8.158z"/>
</svg>