<svg xmlns="http://www.w3.org/2000/svg" viewBox="0 0 23 21">
  <path d="M21.515 20.499H1.485c-.552 0-1-.448-1-1V3.542c0-.552.448-1 1-1h3.008V1.5c0-.552.447-1 1-1s1 .448 1 1v1.042h10V1.5c0-.552.447-1 1-1s1 .448 1 1v1.042h3.022c.552 0 1 .448 1 1v15.957c0 .552-.448 1-1 1zm-1-15.957h-2.022v.291c0 .552-.447 1-1 1s-1-.448-1-1v-.291h-10v.291c0 .552-.447 1-1 1s-1-.448-1-1v-.291H2.485v3.996h18.03V4.542zm0 4.996H2.485v8.961h18.03V9.538zM6.5 13.5h-2v-2h2v2zm0 3h-2v-2h2v2zm4-3h-2v-2h2v2zm0 3h-2v-2h2v2zm4-3h-2v-2h2v2zm0 3h-2v-2h2v2zm4-3h-2v-2h2v2zm0 3h-2v-2h2v2z"/>
</svg>
