<svg xmlns="http://www.w3.org/2000/svg" viewBox="0 0 26 20">
  <path fill="#010101" d="M17.255 13.703c2.016 0 3.656-1.636 3.656-3.648 0-2.011-1.64-3.648-3.656-3.648s-3.656 1.637-3.656 3.648c0 2.012 1.64 3.648 3.656 3.648zm0-5.732c1.154 0 2.092.935 2.092 2.084s-.938 2.084-2.092 2.084c-1.154 0-2.093-.935-2.093-2.084s.939-2.084 2.093-2.084zm-12.159.382c0-.431.35-.782.782-.782h4.545c.432 0 .782.351.782.782 0 .432-.35.782-.782.782H5.878c-.432 0-.782-.35-.782-.782zm5.327 3.649H5.878c-.432 0-.782-.35-.782-.782 0-.432.35-.782.782-.782h4.545c.432 0 .782.35.782.782 0 .432-.35.782-.782.782zm-1.139 2.085c0 .432-.351.782-.782.782H5.878c-.432 0-.782-.35-.782-.782s.35-.782.782-.782h2.624c.431 0 .782.35.782.782zM24.989 2.678c0-.948-.769-1.717-1.718-1.717H2.729c-.949 0-1.718.769-1.718 1.717v14.643c0 .949.769 1.718 1.718 1.718h20.542c.949 0 1.718-.769 1.718-1.718V2.678zm-21.98.368h19.982v13.315c-1.043-1.101-3.14-1.835-3.895-2.09-.166-.056-.345-.055-.51.004l-1.331.47-1.331-.47c-.165-.059-.345-.033-.511.024-.872.294-3.329 1.091-4.255 2.655H3.009V3.046zm10.447 13.908c.594-.521 1.375-.784 2.206-1.086l1.332.457c.169.06.353.053.521-.007l1.332-.446c.832.302 1.612.561 2.207 1.082h-7.598z"/>
</svg>
