<svg xmlns="http://www.w3.org/2000/svg" width="448" height="448.042" viewBox="0 0 448 448.042">
  <g id="Grupo_1978" data-name="Grupo 1978" transform="translate(-4943 -7922)">
    <path id="Caminho_2656" data-name="Caminho 2656" d="M63.11,105.4l87.371,87.113a13.48,13.48,0,0,0,9.482,3.7,14.37,14.37,0,0,0,9.2-3.7l24.333-24.269a13.861,13.861,0,0,0,2.778-8.718,15.932,15.932,0,0,0-3.616-9.33L105.166,63.06l28.287-26.528S144.54,26.752,138.7,13.34,120.755,0,120.755,0L19.363.021S10.708.886,5.535,6.73A22.655,22.655,0,0,0,0,19.28L.114,121.123s-.327,11.009,12.127,17.14,22.8-3.353,22.8-3.353Z" transform="translate(5194.771 8118.274) rotate(-90)"/>
    <path id="Caminho_2657" data-name="Caminho 2657" d="M63.11,90.825,150.481,3.711a13.48,13.48,0,0,1,9.482-3.7,14.37,14.37,0,0,1,9.2,3.7l24.333,24.269a13.861,13.861,0,0,1,2.778,8.718,15.932,15.932,0,0,1-3.616,9.33l-87.49,87.141L133.452,159.7s11.087,9.779,5.243,23.191-17.94,13.34-17.94,13.34l-101.392-.021s-8.655-.866-13.829-6.709A22.655,22.655,0,0,1,0,176.949L.114,75.105S-.213,64.1,12.241,57.966s22.8,3.353,22.8,3.353Z" transform="translate(4943 8118.274) rotate(-90)"/>
    <path id="Caminho_2655" data-name="Caminho 2655" d="M6394.04,8027.246l87.371,87.113a13.48,13.48,0,0,0,9.482,3.7,14.37,14.37,0,0,0,9.2-3.7l24.333-24.269a13.861,13.861,0,0,0,2.778-8.718,15.932,15.932,0,0,0-3.616-9.33L6436.1,7984.9l28.287-26.528s11.087-9.779,5.243-23.191-17.94-13.34-17.94-13.34l-101.392.021s-8.655.866-13.829,6.709a22.655,22.655,0,0,0-5.535,12.55l.114,101.843s-.327,11.009,12.127,17.14,22.8-3.353,22.8-3.353Z" transform="translate(-1136.203 251.972)"/>
    <path id="Caminho_2658" data-name="Caminho 2658" d="M6464.093,8027.246l-87.371,87.113a13.48,13.48,0,0,1-9.482,3.7,14.37,14.37,0,0,1-9.2-3.7l-24.333-24.269a13.861,13.861,0,0,1-2.778-8.718,15.932,15.932,0,0,1,3.616-9.33l87.49-87.141-28.287-26.528s-11.087-9.779-5.243-23.191,17.94-13.34,17.94-13.34l101.392.021s8.655.866,13.829,6.709a22.655,22.655,0,0,1,5.535,12.55l-.114,101.843s.327,11.009-12.127,17.14-22.8-3.353-22.8-3.353Z" transform="translate(-1387.929 251.972)"/>
  </g>
</svg>
