<svg xmlns="http://www.w3.org/2000/svg" viewBox="0 0 26 20">
  <path d="M25.371 16.564c-.362.186-.8.151-1.131-.085-1.175-.846-2.403-1.256-3.756-1.256-2.25 0-4.566 1.098-7.018 2.26-2.561 1.215-5.21 2.47-7.949 2.47h-.002c-1.824 0-3.467-.544-5.025-1.664-.284-.206-.452-.534-.452-.883v-13c0-.409.229-.782.591-.968.363-.186.8-.152 1.131.085 1.174.846 2.402 1.256 3.757 1.256 2.25 0 4.566-1.098 7.018-2.261 2.562-1.214 5.21-2.47 7.949-2.47 1.825 0 3.469.545 5.026 1.665.284.205.452.534.452.883v13c0 .408-.229.781-.591.968zM23.787 3.176c-1.037-.64-2.122-.953-3.303-.953-2.25 0-4.565 1.098-7.017 2.26-2.562 1.215-5.211 2.471-7.95 2.471-1.168 0-2.261-.223-3.305-.677v10.549c1.038.64 2.124.953 3.303.953h.002c2.25 0 4.566-1.098 7.018-2.261 2.562-1.214 5.21-2.47 7.949-2.47 1.167 0 2.26.223 3.303.677V3.176zm-7.35 9.622c-.202 0-.393-.124-.468-.325-.098-.259.035-.547.294-.644 2.274-.85 4.131-1.078 5.84-.715.27.057.443.322.386.593-.057.271-.326.439-.593.385-1.518-.319-3.195-.105-5.284.675-.057.022-.116.031-.175.031zm5.459-8.331c-1.518-.32-3.195-.106-5.284.675-.057.021-.116.031-.175.031-.202 0-.393-.124-.468-.325-.098-.259.035-.547.294-.643 2.274-.85 4.131-1.079 5.84-.716.27.057.443.322.386.592-.057.272-.326.439-.593.386zm-7.386 7.681c-.334.353-.729.658-1.188.913v1.198c0 .189-.019.336-.055.44-.037.104-.119.185-.244.245-.115.055-.195.057-.242.009-.047-.047-.07-.147-.07-.293v-1.299c-.375.135-.703.201-.983.195-.281-.006-.515-.066-.703-.185-.187-.118-.326-.266-.416-.446-.09-.177-.135-.371-.135-.579 0-.154.061-.317.18-.492.121-.176.272-.302.451-.382.142-.063.266-.086.366-.064.099.023.168.086.207.19.086.224.162.39.224.499.067.109.162.191.291.248.131.054.302.061.518.021v-2.238c-.43.085-.789.121-1.078.108-.287-.015-.522-.117-.701-.309-.18-.191-.27-.498-.27-.922 0-.552.176-1.078.527-1.587.35-.508.858-.948 1.522-1.32v-.51c0-.27.101-.452.303-.547.205-.098.308-.016.308.247v.52c.344-.127.637-.195.883-.203.246-.006.459.056.643.19.142.099.255.22.334.359.078.138.117.281.117.426 0 .16-.059.323-.177.492-.116.168-.257.289-.425.363-.314.143-.517.066-.611-.231-.106-.351-.358-.498-.764-.439v2.001c.397-.079.715-.128.949-.146.237-.019.448.015.633.103.199.089.354.234.459.433.108.199.162.445.162.737 0 .366-.086.743-.258 1.136-.169.393-.423.764-.757 1.119zm-1.799-5.112c-.27.208-.479.413-.629.614-.152.202-.227.434-.227.701 0 .253.071.413.211.477.141.064.356.081.645.05V7.036zm1.368 3.012c-.171-.072-.423-.084-.757-.032v2.107c.324-.217.574-.464.75-.741.175-.277.266-.547.266-.806-.002-.278-.086-.456-.259-.528zm-4.341 5.748c-1.579.592-2.958.882-4.227.882-.558 0-1.092-.056-1.615-.166-.27-.057-.443-.322-.385-.593.057-.271.332-.434.592-.385 1.518.321 3.2.107 5.284-.673.261-.099.546.034.643.292.098.259-.034.547-.292.643zm0-7.625c-1.579.592-2.958.882-4.227.882-.558 0-1.092-.055-1.615-.166-.27-.058-.443-.322-.385-.593.057-.271.332-.435.592-.385 1.518.322 3.2.107 5.284-.673.261-.101.546.033.643.292.098.258-.034.547-.292.643z"/>
</svg>
