<svg xmlns="http://www.w3.org/2000/svg" viewBox="0 0 51 51">
  <path d="M49.829 50.25c-.427.427-.987.641-1.546.641s-1.118-.214-1.545-.641L35.611 39.125c-3.685 2.848-8.288 4.561-13.295 4.561-12.007 0-21.781-9.77-21.785-21.779C.535 9.889 10.309.111 22.32.109c12.012 0 21.788 9.776 21.792 21.791 0 5.436-2.016 10.402-5.322 14.222l11.039 11.037c.853.853.853 2.237 0 3.091zM22.32 4.481C12.719 4.483 4.907 12.3 4.902 21.907c.005 9.598 7.815 17.408 17.414 17.408 9.608 0 17.424-7.812 17.424-17.414-.004-9.606-7.818-17.42-17.42-17.42zM10.066 21.895H7.88c.002-7.963 6.481-14.441 14.44-14.441V9.64c-6.755 0-12.252 5.498-12.254 12.255z"/>
</svg>
