<svg xmlns="http://www.w3.org/2000/svg" viewBox="0 0 51 49">
  <path d="M46.696 30.715c-1.66 1.845-4.216 2.983-6.876 2.983h-4.774c-1.111 0-2.01-.899-2.01-2.01s.899-2.01 2.01-2.01h4.774c1.549 0 2.982-.64 4.034-1.802 1.723-1.578 2.597-3.541 2.597-5.661 0-4.11-3.347-7.455-7.459-7.455-.77 0-1.538.121-2.279.361-.58.192-1.21.102-1.72-.23-.508-.334-.838-.879-.899-1.484-.513-5.166-4.817-9.063-10.017-9.063-5.548 0-10.062 4.515-10.062 10.062 0 .648.066 1.312.2 1.971.117.591-.034 1.203-.416 1.671-.381.465-.953.736-1.555.736h-2.25c-3.003 0-5.445 2.444-5.445 5.449 0 3.003 2.442 5.445 5.445 5.445h5.956c1.111 0 2.01.899 2.01 2.01s-.899 2.01-2.01 2.01H9.994c-5.219 0-9.465-4.245-9.465-9.465 0-5.222 4.246-9.469 9.465-9.469h.004c-.002-.12-.004-.238-.004-.358C9.994 6.641 16.311.324 24.077.324c6.517 0 12.033 4.377 13.625 10.488.428-.047.858-.073 1.29-.073 6.33 0 11.479 5.149 11.479 11.476 0 3.219-1.376 6.317-3.775 8.5zM15.057 36.58l8.431 6.137V20.915c0-1.111.899-2.01 2.01-2.01 1.111 0 2.01.899 2.01 2.01v21.803l8.437-6.138c.895-.652 2.155-.455 2.807.444.654.897.455 2.153-.444 2.807l-11.628 8.46c-.006.004-.013.005-.018.009-.152.109-.321.192-.501.255-.037.013-.074.024-.112.035-.176.05-.358.086-.551.086-.192 0-.375-.035-.551-.086-.039-.011-.076-.022-.115-.036-.177-.062-.344-.144-.495-.251-.007-.005-.016-.006-.023-.012l-11.625-8.46c-.897-.654-1.095-1.91-.441-2.809.652-.897 1.912-1.092 2.809-.442z"/>
</svg>
