<svg xmlns="http://www.w3.org/2000/svg" viewBox="0 0 18 18">
  <path d="M15.933 3.57L14.43 2.067c-1.415-1.415-3.718-1.415-5.133 0L1.806 9.558c-.411.411-.647.957-.663 1.537l-.137 4.659c-.01.331.119.654.352.888.234.233.557.362.887.352l4.66-.137c.58-.017 1.126-.252 1.537-.663l7.491-7.491c1.415-1.415 1.415-3.718 0-5.133zm-2.636-.37L14.8 4.703c.791.79.791 2.077 0 2.867l-.705.705-4.371-4.371.706-.705c.79-.79 2.077-.79 2.867.001zM6.858 15.256l-2.337.069c-.122-.428-.337-.835-.675-1.172-.336-.337-.743-.552-1.171-.674l.069-2.337c.005-.171.074-.331.195-.452l5.653-5.653 4.37 4.371-5.653 5.653c-.12.121-.281.19-.451.195z"/>
</svg>