<svg xmlns="http://www.w3.org/2000/svg" viewBox="0 0 18 18">
  <path d="M9 12.352c-1.847 0-3.349-1.502-3.349-3.349S7.153 5.653 9 5.653s3.349 1.503 3.349 3.35S10.847 12.352 9 12.352zm0-5.469c-1.169 0-2.12.951-2.12 2.12s.951 2.12 2.12 2.12 2.12-.951 2.12-2.12-.951-2.12-2.12-2.12zm0 10.108h-.095c-.603 0-1.134-.067-1.156-.069-.275-.036-.493-.251-.531-.526l-.172-1.243c-.381-.121-.75-.278-1.102-.468l-.983.739c-.221.166-.526.164-.745-.005-.018-.014-.44-.342-.867-.768l-.067-.067c-.427-.427-.754-.849-.768-.867-.17-.22-.172-.526-.004-.747l.759-1.002c-.184-.355-.334-.726-.449-1.109l-1.218-.172c-.274-.039-.489-.256-.524-.531-.002-.022-.07-.553-.07-1.156v-.095c0-.603.068-1.134.07-1.156.036-.276.251-.493.526-.531l1.247-.171c.12-.381.276-.748.466-1.1l-.741-.986c-.166-.221-.164-.526.005-.745.014-.018.341-.44.768-.867l.067-.067c.427-.427.849-.754.867-.768.22-.17.526-.172.747-.004l1.005.762c.354-.184.723-.334 1.105-.448l.173-1.222c.039-.274.256-.489.531-.524.022-.003.553-.07 1.156-.07h.095c.603 0 1.134.067 1.156.07.276.036.493.251.531.527l.171 1.247c.38.121.747.276 1.099.466l.987-.742c.221-.167.526-.164.745.005.018.014.44.341.867.768l.067.067c.427.427.754.849.768.867.17.22.171.526.003.748l-.761 1.002c.185.354.335.724.45 1.107l1.22.173c.274.039.488.256.524.531.002.022.07.552.07 1.156v.095c0 .603-.068 1.134-.07 1.156-.036.276-.252.493-.527.531l-1.244.17c-.121.381-.277.749-.467 1.101l.74.986c.166.221.164.526-.005.745-.014.018-.341.44-.768.867l-.067.067c-.427.427-.849.754-.867.768-.22.17-.526.171-.748.003l-1.004-.762c-.354.183-.724.333-1.105.447l-.173 1.224c-.039.274-.257.488-.531.524-.022.002-.553.069-1.156.069zm-.631-1.247c.158.01.344.018.536.018H9c.193 0 .38-.008.538-.018l.162-1.146c.036-.252.223-.456.471-.513.539-.123 1.053-.331 1.527-.618.14-.084.308-.109.466-.07.091.022.175.065.245.124l.914.693c.119-.104.256-.23.391-.366l.067-.066c.137-.137.263-.275.368-.394l-.693-.922c-.152-.204-.164-.481-.029-.696.288-.458.501-.955.634-1.476.045-.261.253-.468.521-.505l1.162-.159c.01-.158.018-.343.018-.535V9c0-.193-.008-.38-.018-.538l-1.142-.163c-.252-.035-.456-.223-.513-.471-.122-.532-.327-1.041-.609-1.51-.027-.041-.048-.084-.065-.131-.068-.195-.035-.411.09-.576l.709-.934c-.104-.119-.23-.256-.366-.391l-.066-.067c-.137-.137-.275-.263-.394-.368l-.924.695c-.219.165-.517.163-.733.005-.459-.282-.957-.491-1.479-.619-.245-.06-.429-.264-.463-.514L9.63 2.256c-.158-.01-.343-.018-.535-.018H9c-.193 0-.379.008-.538.018L8.3 3.402c-.039.271-.25.48-.515.521-.523.125-1.022.329-1.484.608-.142.087-.313.111-.474.069-.09-.023-.172-.067-.241-.126l-.909-.689c-.119.105-.256.231-.392.366l-.066.067c-.137.137-.263.275-.368.393l.695.925c.151.201.165.473.035.687-.011.019-.023.036-.035.053-.281.457-.488.952-.616 1.472-.061.245-.264.428-.514.462l-1.16.159c-.01.158-.018.344-.018.536V9c0 .193.008.379.018.538l1.146.162c.271.038.484.252.522.523.001.008.002.015.003.023.125.513.327 1.002.601 1.455.094.155.115.342.057.513-.025.076-.064.144-.114.203l-.686.905c.105.12.23.257.366.392l.067.067c.137.137.275.263.394.368l.924-.695c.234-.176.551-.16.765.02.45.273.936.474 1.446.599.245.061.428.264.462.513l.16 1.158z"/>
</svg>