<svg xmlns="http://www.w3.org/2000/svg" viewBox="0 0 18 18">
  <path d="M14.741 6.145L14.2 16.391c-.019.377-.33.672-.707.672H4.509c-.377 0-.688-.295-.708-.672L3.26 6.145c-.021-.391.28-.725.671-.745.392-.019.724.279.745.67l.505 9.575h7.639l.506-9.575c.02-.391.356-.688.745-.67.391.02.691.354.67.745zm1.879-2.372c0 .391-.317.709-.709.709H2.09c-.392 0-.709-.318-.709-.709 0-.392.317-.709.709-.709h3.898V1.469c0-.342.229-.532.571-.532h4.883c.343 0 .571.19.571.532v1.595h3.898c.392 0 .709.317.709.709zm-9.391-.709h3.544v-.886H7.229v.886zm.297 11.518h.015c.342 0 .613-.33.605-.672l-.18-7.661c-.008-.343-.289-.622-.635-.615-.342.008-.613.288-.605.63l.18 7.677c.008.338.284.641.62.641zm2.922 0c.336 0 .612-.285.62-.622l.18-7.651c.008-.343-.263-.631-.605-.639-.348-.005-.627.261-.635.603l-.18 7.659c-.008.342.263.65.605.65h.015z"/>
</svg>