<svg xmlns="http://www.w3.org/2000/svg" viewBox="0 0 26 25">
  <path d="M13 2.575c.198 0 .397.103.5.31l2.414 4.891c.312.633.92 1.075 1.618 1.176l5.397.784c.458.067.64.629.309.952l-3.905 3.806c-.506.493-.738 1.207-.619 1.903l.922 5.375c.062.361-.224.653-.549.653-.086 0-.174-.02-.26-.065L14 19.822c-.313-.164-.657-.246-1-.246-.344 0-.689.082-1.001.246L7.172 22.36c-.085.045-.174.065-.26.065-.325 0-.611-.292-.549-.653l.922-5.375c.119-.696-.113-1.41-.618-1.903l-3.906-3.806c-.331-.323-.148-.885.309-.952l5.397-.784c.699-.101 1.306-.543 1.619-1.176L12.5 2.885c.102-.207.301-.31.5-.31m0-2.072c-1.009 0-1.912.562-2.358 1.466l-2.414 4.89c-.01.022-.035.04-.059.043l-5.397.784c-.997.145-1.81.831-2.122 1.789-.311.959-.057 1.991.665 2.695l3.906 3.808c.017.016.026.045.022.068l-.922 5.376c-.131.766.08 1.545.579 2.137.502.596 1.236.938 2.012.938.423 0 .847-.105 1.224-.304l4.828-2.537h.072l4.827 2.537c.377.199.801.304 1.224.304.776 0 1.51-.342 2.012-.938.499-.592.71-1.371.579-2.137l-.922-5.375c-.004-.024.005-.052.023-.07l3.905-3.806c.722-.704.977-1.737.665-2.695-.311-.959-1.124-1.645-2.122-1.79l-5.398-.784c-.023-.003-.047-.021-.058-.042l-2.414-4.891C14.911 1.064 14.007.503 13 .503z"/>
</svg>
