<svg xmlns="http://www.w3.org/2000/svg" viewBox="0 0 27 21">
  <path d="M26.301 10.906c-.195.272-.502.417-.813.417-.2 0-.404-.061-.58-.187l-1.429-1.024v9.148c0 .552-.447.998-.998.998h-5.977c-.552 0-.998-.446-.998-.998v-5.978h-4.012v5.978c0 .552-.447.998-.998.998H4.519c-.552 0-.998-.446-.998-.998v-9.147l-1.429 1.023c-.446.321-1.072.217-1.393-.23-.32-.448-.217-1.072.231-1.393L12.919.927c.347-.248.815-.248 1.162 0L26.07 9.513c.448.321.552.945.231 1.393zM13.5 2.966L5.479 8.71c.012.062.037.119.037.184v9.369h3.982v-5.979c0-.551.446-.998.998-.998h6.008c.551 0 .998.447.998.998v5.979h3.981V8.894c0-.065.025-.122.037-.184L13.5 2.966z"/>
</svg>
