<svg version="1.1" id="Layer_1" xmlns="http://www.w3.org/2000/svg" xmlns:xlink="http://www.w3.org/1999/xlink" x="0px" y="0px"
	 width="100%" viewBox="0 0 1363 980" enable-background="new 0 0 1363 980" xml:space="preserve">
<path fill="#050D0A" opacity="1.000000" stroke="none" 
	d="
M1364.000000,314.000000 
	C1364.000000,346.359161 1364.000000,378.718323 1363.720703,411.744568 
	C1359.290894,422.784088 1351.552856,427.473633 1340.473999,427.246277 
	C1331.813843,427.068542 1323.144287,427.340576 1314.485107,427.140533 
	C1311.663086,427.075317 1310.305908,427.980621 1309.424072,430.616821 
	C1308.160645,434.393738 1306.737427,438.162842 1304.911011,441.691254 
	C1303.462891,444.488953 1303.538818,446.242188 1305.991821,448.538849 
	C1312.308105,454.452728 1318.319214,460.696045 1324.379272,466.879303 
	C1334.891357,477.605042 1334.773438,489.978943 1324.092407,500.673187 
	C1304.908447,519.880493 1285.714600,539.077759 1266.512085,558.266602 
	C1257.042725,567.729370 1244.001221,567.843445 1234.519897,558.508667 
	C1227.872314,551.963745 1221.391968,545.245544 1214.615112,538.839233 
	C1213.558350,537.840149 1211.103516,537.429565 1209.664185,537.893127 
	C1205.408203,539.263855 1201.422607,541.475769 1197.164185,542.835693 
	C1194.306885,543.748230 1193.804932,545.305481 1193.847656,547.958862 
	C1193.989502,556.786926 1193.917480,565.618713 1193.902588,574.449036 
	C1193.878052,588.958313 1185.519043,597.376648 1171.066528,597.439941 
	C1164.641357,597.468079 1158.216064,597.444641 1151.589478,597.444641 
	C1151.589478,599.558350 1151.589478,600.869446 1151.589600,602.180542 
	C1151.593628,648.998169 1151.408325,695.816956 1151.696655,742.632812 
	C1151.809692,761.003967 1139.686157,768.292053 1126.290649,768.264221 
	C974.008911,767.947998 821.726379,768.063660 669.444031,768.063782 
	C666.864990,768.063782 664.285889,768.063782 661.865295,768.063782 
	C661.865295,796.661804 661.865295,824.563965 661.865295,852.794495 
	C663.877625,852.794495 665.520569,852.794373 667.163452,852.794495 
	C705.317322,852.796570 743.471252,852.794434 781.625122,852.809631 
	C784.453247,852.810791 787.294373,852.787170 790.107239,853.031128 
	C802.668823,854.120728 810.445557,862.587402 810.450256,875.079590 
	C810.460327,901.903931 810.461548,928.728271 810.465210,955.552612 
	C810.467224,970.086060 806.985107,975.465942 794.000000,981.000000 
	C633.974182,981.000000 473.948334,981.000000 313.405579,980.655640 
	C302.469849,975.090454 298.595978,966.624817 298.789185,955.076599 
	C299.221222,929.251892 298.919586,903.415039 298.930176,877.583130 
	C298.936890,861.164917 307.401459,852.787292 323.921234,852.787354 
	C363.085602,852.787476 402.250000,852.778503 441.414368,852.773254 
	C443.535980,852.772949 445.657562,852.773193 447.850098,852.773193 
	C447.850098,824.275757 447.850098,796.248901 447.850098,768.073608 
	C446.326477,768.073608 445.175079,768.073669 444.023682,768.073669 
	C304.865875,768.070190 165.707932,767.980469 26.550508,768.208984 
	C13.962886,768.229614 5.534351,763.688843 1.000000,752.000000 
	C1.000000,507.307495 1.000000,262.615021 1.279723,17.246952 
	C3.619164,8.319737 9.550082,3.906751 17.000000,1.000000 
	C389.692505,1.000000 762.385010,1.000000 1135.693359,1.317717 
	C1137.819336,2.313870 1139.403931,2.864166 1140.827393,3.691931 
	C1149.144531,8.528696 1151.589111,16.318979 1151.588989,25.323061 
	C1151.588745,56.985657 1151.599609,88.648254 1151.606079,120.310852 
	C1151.606567,122.915276 1151.606079,125.519707 1151.606079,128.428726 
	C1158.522583,128.428726 1164.825562,128.420410 1171.128662,128.430420 
	C1184.933472,128.452362 1193.902832,137.454376 1193.900269,151.270111 
	C1193.898315,161.547501 1193.899902,171.824905 1193.899902,181.854355 
	C1198.896851,183.954681 1203.414551,185.643585 1207.735474,187.738312 
	C1210.996338,189.319138 1213.174316,189.081009 1215.851929,186.236816 
	C1222.466309,179.211136 1229.249268,172.280960 1236.524902,165.957306 
	C1245.461792,158.189926 1257.532837,159.055328 1265.839722,167.354980 
	C1285.153687,186.651978 1304.478271,205.938385 1323.747925,225.279617 
	C1335.040161,236.613800 1335.132690,248.350586 1324.021362,259.820709 
	C1317.997437,266.039307 1311.855347,272.146606 1305.651733,278.186157 
	C1303.840210,279.949829 1303.448486,281.384064 1304.633545,283.788269 
	C1307.044434,288.679260 1307.730225,295.731842 1311.538086,298.255798 
	C1315.381714,300.803467 1322.144531,298.953674 1327.628540,299.016144 
	C1329.628052,299.038940 1331.628052,299.020569 1333.627808,299.021271 
	C1334.960938,299.021729 1336.307617,299.146790 1337.625244,299.004242 
	C1350.035645,297.661407 1358.744019,302.783142 1364.000000,314.000000 
M1253.703735,509.884888 
	C1254.165161,509.269470 1254.626709,508.654022 1255.706177,507.790863 
	C1263.839111,499.793701 1271.971924,491.796509 1280.523926,483.387299 
	C1274.283203,477.320007 1268.538452,471.782715 1262.847412,466.190643 
	C1253.950439,457.448395 1253.209961,448.609589 1258.671021,437.286743 
	C1264.277100,425.663055 1269.269043,413.675385 1273.561646,401.505524 
	C1277.678101,389.835205 1284.553833,384.104370 1297.109375,384.101898 
	C1305.038574,384.100342 1312.967651,384.101593 1320.963623,384.101593 
	C1320.963623,369.785004 1320.963623,356.045685 1320.963623,341.878143 
	C1312.127686,341.878143 1303.517822,341.880127 1294.908081,341.877594 
	C1285.049927,341.874695 1276.623779,335.892914 1274.135986,326.356354 
	C1270.542358,312.580963 1264.994385,299.694275 1258.019897,287.334625 
	C1253.104736,278.624481 1254.404419,268.831024 1261.083374,261.458710 
	C1261.940186,260.512970 1262.625000,259.411591 1263.370361,258.277283 
	C1263.370361,258.277283 1263.477051,258.274933 1264.101196,258.332947 
	C1265.076416,257.297943 1266.051636,256.262939 1267.651367,254.964310 
	C1269.148804,253.329193 1270.646118,251.694077 1272.760376,249.786850 
	C1273.494995,248.951111 1274.229614,248.115387 1275.550293,247.040375 
	C1276.990723,245.533051 1278.431030,244.025742 1279.098633,243.327133 
	C1269.132568,233.230270 1259.474243,223.445282 1250.336304,214.187393 
	C1245.537720,218.660904 1240.344482,223.502533 1234.404053,228.863129 
	C1234.016602,229.327454 1233.629028,229.791779 1232.814453,230.474030 
	C1231.421509,231.737534 1230.028687,233.001038 1227.771606,234.632309 
	C1224.846436,235.749634 1221.921143,236.866974 1218.332397,237.851608 
	C1217.890137,237.927353 1217.447754,238.003098 1216.247070,237.813599 
	C1214.483154,237.546860 1212.571167,237.627136 1210.982666,236.949310 
	C1205.921387,234.789536 1200.980469,232.347839 1195.531128,229.489868 
	C1186.848022,226.167542 1178.300903,222.413696 1169.449829,219.624542 
	C1156.352417,215.497345 1151.102051,209.024521 1151.101929,195.420776 
	C1151.101929,187.514938 1151.101929,179.609116 1151.101929,171.949188 
	C1136.599365,171.949188 1122.851196,171.949188 1109.280029,171.949188 
	C1109.043701,172.442612 1108.915527,172.585587 1108.915039,172.729050 
	C1108.884888,180.560623 1108.859619,188.392197 1108.846436,196.223816 
	C1108.826416,208.196365 1103.097046,215.141525 1091.970459,219.176086 
	C1079.356812,223.749908 1066.928101,228.963211 1054.797485,234.699020 
	C1044.647949,239.498123 1035.287720,238.715073 1027.446411,230.696686 
	C1021.577637,224.695404 1015.872925,218.533707 1010.329712,212.690689 
	C999.664307,223.272934 989.885803,232.975113 979.550049,243.230194 
	C985.326599,248.794968 991.114685,254.287735 996.809082,259.875916 
	C1005.681824,268.583069 1006.782166,277.663940 1000.995361,288.817078 
	C997.023010,296.473083 993.355591,304.314270 990.040833,312.276245 
	C987.240540,319.002380 985.143250,326.021179 982.152344,333.207214 
	C979.070557,335.711853 975.988770,338.216492 972.066589,340.833160 
	C969.474915,341.174683 966.887024,341.773041 964.290955,341.810669 
	C955.697388,341.935303 947.100952,341.857727 938.495483,341.857727 
	C938.495483,356.259155 938.495483,370.007477 938.495483,384.103729 
	C946.917725,384.103729 955.055054,384.093353 963.192383,384.106201 
	C975.052307,384.124969 982.161072,390.085480 986.071716,401.124847 
	C990.439270,413.454071 995.443420,425.621735 1001.109253,437.408539 
	C1006.439209,448.496643 1005.674072,457.637634 996.773132,466.453735 
	C991.110413,472.062408 985.294556,477.516479 979.507263,483.078491 
	C989.877502,493.339874 999.682739,503.042114 1010.088379,513.338440 
	C1015.822632,507.368530 1021.506592,501.070709 1027.601074,495.198914 
	C1035.792236,487.306915 1045.040771,486.495026 1055.079102,491.726105 
	C1062.587891,495.639038 1070.274536,499.252472 1078.066162,502.566101 
	C1082.782837,504.571991 1087.842773,505.777771 1092.762695,507.297211 
	C1102.798706,510.396698 1108.757446,518.277405 1108.846191,528.814941 
	C1108.918457,537.398926 1108.860840,545.984009 1108.860840,554.480774 
	C1123.356445,554.480774 1137.097534,554.480774 1150.759644,554.480774 
	C1150.914673,553.834961 1151.058350,553.513855 1151.059326,553.192444 
	C1151.082397,545.361023 1151.113525,537.529602 1151.095459,529.698242 
	C1151.067505,517.647827 1156.785767,510.830780 1168.006592,506.874237 
	C1180.340942,502.525085 1192.487793,497.466034 1204.276855,491.801575 
	C1214.827393,486.732147 1224.237549,487.454681 1232.542969,495.633423 
	C1237.030273,500.052185 1241.539307,504.448883 1246.203247,509.393646 
	C1246.513672,509.581573 1246.824219,509.769531 1247.410034,510.551819 
	C1248.361084,511.398438 1249.312012,512.245056 1250.384644,513.199890 
	C1251.430054,512.002319 1252.282227,511.026276 1253.703735,509.884888 
M42.506348,637.993286 
	C42.852951,637.994507 43.199551,637.995667 43.841179,638.828857 
	C45.339455,639.168579 46.837696,639.805725 48.336018,639.805908 
	C399.938599,639.847229 751.541199,639.844177 1103.143799,639.842285 
	C1104.759521,639.842285 1106.375122,639.842224 1108.119019,639.842224 
	C1108.119019,625.527893 1108.119019,611.751587 1108.119019,597.511719 
	C1101.285522,597.511719 1094.658203,597.487122 1088.031006,597.516907 
	C1074.946411,597.575684 1065.976440,588.909119 1065.758545,575.851074 
	C1065.658569,569.853882 1065.018311,563.744507 1065.902222,557.878723 
	C1067.458496,547.549255 1064.178955,541.192627 1053.579712,539.238281 
	C1052.628052,539.062744 1051.693604,538.552246 1050.860107,538.024963 
	C1048.519775,536.544434 1046.818726,536.907227 1044.834106,539.007751 
	C1039.117554,545.057678 1033.151001,550.872253 1027.254028,556.750488 
	C1017.609192,566.364441 1009.004211,567.803223 996.714539,561.279053 
	C991.127869,555.893188 985.541260,550.507324 979.657654,544.517395 
	C972.076416,537.024414 964.495239,529.531372 956.654907,521.427551 
	C951.649414,516.407532 946.480408,511.537964 941.685730,506.324066 
	C937.153687,501.395752 933.014954,496.105804 928.625122,490.153809 
	C926.274902,481.374847 928.241150,473.838715 934.866638,467.474884 
	C939.040833,463.465668 942.987549,459.219635 947.667480,454.839172 
	C949.866150,452.627319 952.354736,450.623291 954.147827,448.120880 
	C955.125305,446.756805 955.472290,444.431305 955.115784,442.748718 
	C954.660156,440.597992 953.208130,438.658356 952.148315,435.896149 
	C951.798218,434.962341 951.299866,434.055664 951.123291,433.090118 
	C950.266235,428.406006 947.692383,426.835175 942.840393,427.083862 
	C934.200134,427.526733 925.518738,427.349945 916.859070,427.188141 
	C904.284424,426.953186 895.584534,418.060852 895.574890,405.607178 
	C895.552979,377.286469 895.538635,348.965759 895.578735,320.645111 
	C895.596680,307.942505 904.566772,299.059357 917.282288,299.030701 
	C927.761963,299.007080 938.241760,299.025879 948.691223,299.025879 
	C951.273071,292.788452 953.747620,286.810059 956.611511,279.891266 
	C949.502502,272.991455 942.038757,265.896454 934.744873,258.630890 
	C925.244202,249.167160 925.095276,236.058823 934.470947,226.623123 
	C954.075562,206.893112 973.738281,187.220169 993.484924,167.632446 
	C1002.958069,158.235519 1016.013977,158.443466 1025.541870,167.873337 
	C1030.275757,172.558578 1034.973877,177.279892 1039.681519,181.991684 
	C1047.235352,189.552368 1047.228638,189.544586 1056.859009,185.440948 
	C1058.694336,184.658905 1060.532471,183.814972 1062.451538,183.314148 
	C1065.241577,182.586044 1065.871948,180.946503 1065.816162,178.195770 
	C1065.634033,169.203690 1065.713989,160.205139 1065.772949,151.209595 
	C1065.863892,137.338272 1074.742432,128.518768 1088.656738,128.438995 
	C1095.092529,128.402100 1101.528442,128.432693 1108.106201,128.432693 
	C1108.201782,127.267296 1108.298828,126.631134 1108.299316,125.994904 
	C1108.316406,100.339745 1108.332520,74.684578 1108.309326,49.029442 
	C1108.308350,47.915642 1107.936768,46.802174 1107.660889,45.631233 
	C1107.660889,45.631233 1107.668579,45.725735 1108.213623,45.274010 
	C1107.805908,44.857475 1107.398193,44.440941 1107.077881,43.782825 
	C1107.077881,43.782825 1107.088379,43.526131 1107.007324,43.021698 
	C1107.004883,42.681068 1107.002441,42.340443 1106.462158,41.375961 
	C1104.483643,41.251003 1102.505249,41.016907 1100.526733,41.016655 
	C964.210449,40.999298 827.894104,41.000576 691.577820,41.000511 
	C479.437653,41.000412 267.297455,40.997692 55.157288,41.041443 
	C53.105961,41.041866 51.054764,41.660297 49.012257,42.777149 
	C49.019104,43.039391 49.025948,43.301628 48.375149,43.723675 
	C47.929485,43.672863 47.483826,43.622055 46.881260,43.084446 
	C46.578278,43.246124 46.275291,43.407799 45.622646,43.650505 
	C45.378960,43.703613 45.171677,43.821053 44.319572,43.944866 
	C44.065369,44.315125 43.811169,44.685383 42.921982,45.254410 
	C42.612656,46.506462 42.303329,47.758511 41.404236,49.598892 
	C41.269135,51.409637 41.015873,53.220371 41.015709,55.031128 
	C40.998123,247.454590 40.996708,439.878052 41.040676,632.301514 
	C41.041107,634.199097 41.657425,636.096619 42.506348,637.993286 
M1104.845093,724.950073 
	C1106.672607,724.973877 1108.428955,725.324768 1108.400146,722.351135 
	C1108.274780,709.388550 1108.346191,696.424072 1108.346191,683.301636 
	C753.312561,683.301636 398.644104,683.301636 44.178658,683.301636 
	C44.178658,697.387695 44.178658,711.124268 44.178658,724.938904 
	C45.730274,724.938904 46.895367,724.938904 48.060459,724.938843 
	C395.355927,724.932861 742.651428,724.926575 1089.946899,724.929382 
	C1092.273682,724.929443 1094.600464,725.058411 1097.012817,726.031982 
	C1100.178955,726.954834 1103.344971,727.877686 1107.117188,728.977234 
	C1105.650024,727.118530 1104.864990,726.124146 1104.845093,724.950073 
M633.500000,895.942505 
	C536.425049,895.942505 439.350067,895.942505 342.329926,895.942505 
	C342.329926,910.393738 342.329926,924.151733 342.329926,937.930908 
	C484.211029,937.930908 625.791443,937.930908 767.585388,937.930908 
	C767.585388,923.901794 767.585388,910.152954 767.585388,895.942505 
	C723.063599,895.942505 678.781799,895.942505 633.500000,895.942505 
M588.500000,768.059692 
	C556.084656,768.059692 523.669312,768.059692 491.228638,768.059692 
	C491.228638,796.583252 491.228638,824.497131 491.228638,852.476562 
	C533.670532,852.476562 575.874573,852.476562 618.156189,852.476562 
	C618.156189,824.223328 618.156189,796.313416 618.156189,768.059692 
	C608.434143,768.059692 598.967041,768.059692 588.500000,768.059692 
M47.585224,727.515564 
	C47.585224,727.515564 47.476959,727.579712 47.585224,727.515564 
z"/>
<path fill="#FEFEFE" opacity="1.000000" stroke="none" 
	d="
M794.468628,981.000000 
	C806.985107,975.465942 810.467224,970.086060 810.465210,955.552612 
	C810.461548,928.728271 810.460327,901.903931 810.450256,875.079590 
	C810.445557,862.587402 802.668823,854.120728 790.107239,853.031128 
	C787.294373,852.787170 784.453247,852.810791 781.625122,852.809631 
	C743.471252,852.794434 705.317322,852.796570 667.163452,852.794495 
	C665.520569,852.794373 663.877625,852.794495 661.865295,852.794495 
	C661.865295,824.563965 661.865295,796.661804 661.865295,768.063782 
	C664.285889,768.063782 666.864990,768.063782 669.444031,768.063782 
	C821.726379,768.063660 974.008911,767.947998 1126.290649,768.264221 
	C1139.686157,768.292053 1151.809692,761.003967 1151.696655,742.632812 
	C1151.408325,695.816956 1151.593628,648.998169 1151.589600,602.180542 
	C1151.589478,600.869446 1151.589478,599.558350 1151.589478,597.444641 
	C1158.216064,597.444641 1164.641357,597.468079 1171.066528,597.439941 
	C1185.519043,597.376648 1193.878052,588.958313 1193.902588,574.449036 
	C1193.917480,565.618713 1193.989502,556.786926 1193.847656,547.958862 
	C1193.804932,545.305481 1194.306885,543.748230 1197.164185,542.835693 
	C1201.422607,541.475769 1205.408203,539.263855 1209.664185,537.893127 
	C1211.103516,537.429565 1213.558350,537.840149 1214.615112,538.839233 
	C1221.391968,545.245544 1227.872314,551.963745 1234.519897,558.508667 
	C1244.001221,567.843445 1257.042725,567.729370 1266.512085,558.266602 
	C1285.714600,539.077759 1304.908447,519.880493 1324.092407,500.673187 
	C1334.773438,489.978943 1334.891357,477.605042 1324.379272,466.879303 
	C1318.319214,460.696045 1312.308105,454.452728 1305.991821,448.538849 
	C1303.538818,446.242188 1303.462891,444.488953 1304.911011,441.691254 
	C1306.737427,438.162842 1308.160645,434.393738 1309.424072,430.616821 
	C1310.305908,427.980621 1311.663086,427.075317 1314.485107,427.140533 
	C1323.144287,427.340576 1331.813843,427.068542 1340.473999,427.246277 
	C1351.552856,427.473633 1359.290894,422.784088 1363.720703,412.205811 
	C1364.000000,601.593811 1364.000000,791.187622 1364.000000,981.000000 
	C1174.312500,981.000000 984.624878,981.000000 794.468628,981.000000 
z"/>
<path fill="#FEFEFE" opacity="1.000000" stroke="none" 
	d="
M1.000000,752.468628 
	C5.534351,763.688843 13.962886,768.229614 26.550508,768.208984 
	C165.707932,767.980469 304.865875,768.070190 444.023682,768.073669 
	C445.175079,768.073669 446.326477,768.073608 447.850098,768.073608 
	C447.850098,796.248901 447.850098,824.275757 447.850098,852.773193 
	C445.657562,852.773193 443.535980,852.772949 441.414368,852.773254 
	C402.250000,852.778503 363.085602,852.787476 323.921234,852.787354 
	C307.401459,852.787292 298.936890,861.164917 298.930176,877.583130 
	C298.919586,903.415039 299.221222,929.251892 298.789185,955.076599 
	C298.595978,966.624817 302.469849,975.090454 312.944336,980.655640 
	C209.084137,981.000000 105.168259,981.000000 1.000000,981.000000 
	C1.000000,904.979309 1.000000,828.958313 1.000000,752.468628 
z"/>
<path fill="#FEFEFE" opacity="1.000000" stroke="none" 
	d="
M1364.000000,313.531342 
	C1358.744019,302.783142 1350.035645,297.661407 1337.625244,299.004242 
	C1336.307617,299.146790 1334.960938,299.021729 1333.627808,299.021271 
	C1331.628052,299.020569 1329.628052,299.038940 1327.628540,299.016144 
	C1322.144531,298.953674 1315.381714,300.803467 1311.538086,298.255798 
	C1307.730225,295.731842 1307.044434,288.679260 1304.633545,283.788269 
	C1303.448486,281.384064 1303.840210,279.949829 1305.651733,278.186157 
	C1311.855347,272.146606 1317.997437,266.039307 1324.021362,259.820709 
	C1335.132690,248.350586 1335.040161,236.613800 1323.747925,225.279617 
	C1304.478271,205.938385 1285.153687,186.651978 1265.839722,167.354980 
	C1257.532837,159.055328 1245.461792,158.189926 1236.524902,165.957306 
	C1229.249268,172.280960 1222.466309,179.211136 1215.851929,186.236816 
	C1213.174316,189.081009 1210.996338,189.319138 1207.735474,187.738312 
	C1203.414551,185.643585 1198.896851,183.954681 1193.899902,181.854355 
	C1193.899902,171.824905 1193.898315,161.547501 1193.900269,151.270111 
	C1193.902832,137.454376 1184.933472,128.452362 1171.128662,128.430420 
	C1164.825562,128.420410 1158.522583,128.428726 1151.606079,128.428726 
	C1151.606079,125.519707 1151.606567,122.915276 1151.606079,120.310852 
	C1151.599609,88.648254 1151.588745,56.985657 1151.588989,25.323061 
	C1151.589111,16.318979 1149.144531,8.528696 1140.827393,3.691931 
	C1139.403931,2.864166 1137.819336,2.313870 1136.154541,1.317717 
	C1211.938477,1.000000 1287.877075,1.000000 1364.000000,1.000000 
	C1364.000000,105.020821 1364.000000,209.041748 1364.000000,313.531342 
z"/>
<path fill="#E8E9E9" opacity="1.000000" stroke="none" 
	d="
M16.528801,1.000000 
	C9.550082,3.906751 3.619164,8.319737 1.279723,16.785698 
	C1.000000,11.741570 1.000000,6.483139 1.000000,1.000000 
	C6.017719,1.000000 11.037662,1.000000 16.528801,1.000000 
z"/>
<path fill="#FEFEFE" opacity="1.000000" stroke="none" 
	d="
M947.036316,455.079834 
	C942.987549,459.219635 939.040833,463.465668 934.866638,467.474884 
	C928.241150,473.838715 926.274902,481.374847 928.308411,490.664795 
	C925.978516,496.663300 926.542114,499.018707 933.472900,503.643494 
	C936.845642,505.894012 938.319946,508.203308 938.301575,511.938049 
	C938.300537,512.145569 938.743408,512.355286 939.156921,512.720520 
	C940.184448,512.037170 941.250488,511.328278 942.682190,510.376160 
	C943.555420,512.058105 944.357117,513.625916 945.179749,515.182678 
	C947.640991,519.840759 953.155823,523.058289 956.914001,522.038391 
	C964.495239,529.531372 972.076416,537.024414 979.745972,545.178589 
	C979.171082,547.574707 978.507996,549.309631 977.607910,551.664673 
	C984.900818,551.151123 986.266663,556.975586 989.305420,560.722656 
	C991.711304,563.689331 994.020874,564.523132 997.049011,561.844666 
	C1009.004211,567.803223 1017.609192,566.364441 1027.254028,556.750488 
	C1033.151001,550.872253 1039.117554,545.057678 1044.834106,539.007751 
	C1046.818726,536.907227 1048.519775,536.544434 1050.860107,538.024963 
	C1051.693604,538.552246 1052.628052,539.062744 1053.579712,539.238281 
	C1064.178955,541.192627 1067.458496,547.549255 1065.902222,557.878723 
	C1065.018311,563.744507 1065.658569,569.853882 1065.758545,575.851074 
	C1065.976440,588.909119 1074.946411,597.575684 1088.031006,597.516907 
	C1094.658203,597.487122 1101.285522,597.511719 1108.119019,597.511719 
	C1108.119019,611.751587 1108.119019,625.527893 1108.119019,639.842224 
	C1106.375122,639.842224 1104.759521,639.842285 1103.143799,639.842285 
	C751.541199,639.844177 399.938599,639.847229 48.336018,639.805908 
	C46.837696,639.805725 45.339455,639.168579 43.807682,638.007629 
	C43.850533,635.791016 43.926880,634.395569 44.398422,632.905640 
	C45.196407,630.643250 45.951290,628.475525 45.951904,626.307617 
	C46.005993,436.355927 46.002094,246.404251 46.000175,56.452576 
	C46.000160,54.786724 46.192390,53.077274 45.873547,51.471855 
	C45.690990,50.552662 44.656883,49.802589 43.910320,48.574936 
	C43.878593,47.630932 43.942707,47.088367 44.467400,46.623878 
	C47.729572,46.468029 50.531147,46.029438 53.332767,46.029198 
	C402.309113,45.998993 751.285461,46.001736 1100.261841,45.988605 
	C1102.753784,45.988510 1105.245850,45.792881 1107.737793,45.688553 
	C1107.936768,46.802174 1108.308350,47.915642 1108.309326,49.029442 
	C1108.332520,74.684578 1108.316406,100.339745 1108.299316,125.994904 
	C1108.298828,126.631134 1108.201782,127.267296 1108.106201,128.432693 
	C1101.528442,128.432693 1095.092529,128.402100 1088.656738,128.438995 
	C1074.742432,128.518768 1065.863892,137.338272 1065.772949,151.209595 
	C1065.713989,160.205139 1065.634033,169.203690 1065.816162,178.195770 
	C1065.871948,180.946503 1065.241577,182.586044 1062.451538,183.314148 
	C1060.532471,183.814972 1058.694336,184.658905 1056.859009,185.440948 
	C1047.228638,189.544586 1047.235352,189.552368 1039.681519,181.991684 
	C1034.973877,177.279892 1030.275757,172.558578 1025.541870,167.873337 
	C1016.013977,158.443466 1002.958069,158.235519 993.484924,167.632446 
	C973.738281,187.220169 954.075562,206.893112 934.470947,226.623123 
	C925.095276,236.058823 925.244202,249.167160 934.744873,258.630890 
	C942.038757,265.896454 949.502502,272.991455 956.611511,279.891266 
	C953.747620,286.810059 951.273071,292.788452 948.691223,299.025879 
	C938.241760,299.025879 927.761963,299.007080 917.282288,299.030701 
	C904.566772,299.059357 895.596680,307.942505 895.578735,320.645111 
	C895.538635,348.965759 895.552979,377.286469 895.574890,405.607178 
	C895.584534,418.060852 904.284424,426.953186 916.859070,427.188141 
	C925.518738,427.349945 934.200134,427.526733 942.840393,427.083862 
	C947.692383,426.835175 950.266235,428.406006 951.123291,433.090118 
	C951.299866,434.055664 951.798218,434.962341 952.011230,436.596497 
	C951.767151,438.230865 951.720215,439.176514 951.542175,440.096771 
	C950.936646,443.226471 950.613831,446.474426 949.480286,449.405457 
	C949.058411,450.496338 946.698425,450.837646 944.969421,451.637695 
	C945.720886,452.889130 946.378601,453.984497 947.036316,455.079834 
M318.293579,289.902557 
	C323.114349,290.881439 322.383026,286.109863 324.218719,284.020050 
	C324.353760,283.866302 323.289032,282.658661 322.991119,281.262024 
	C338.786835,254.928574 345.050629,226.501495 340.790466,196.079803 
	C331.667084,130.929703 275.402954,83.914192 209.152710,86.074509 
	C125.270134,88.809792 63.653893,172.263702 93.462738,257.105103 
	C119.420944,330.986877 205.563049,363.726929 274.298645,326.925293 
	C291.466309,317.733582 305.470520,304.937897 318.293579,289.902557 
M689.379517,554.775452 
	C687.284302,554.775452 685.189026,554.775452 682.746887,554.775452 
	C682.746887,552.777222 682.746643,551.303589 682.746887,549.829956 
	C682.759155,481.000214 682.765137,412.170471 682.788879,343.340729 
	C682.793518,329.878021 674.205322,320.299927 661.243835,320.211365 
	C632.746887,320.016663 604.247192,320.051666 575.749756,320.206146 
	C565.873352,320.259705 557.615173,326.764801 555.349976,336.254700 
	C554.400330,340.233185 554.548340,344.522644 554.545593,348.670929 
	C554.502136,415.500824 554.514893,482.330719 554.514893,549.160645 
	C554.514893,550.913940 554.514893,552.667236 554.514893,554.548706 
	C540.244202,554.548706 526.652039,554.548706 512.630981,554.548706 
	C512.630981,552.661194 512.631409,551.024475 512.630859,549.387695 
	C512.625366,533.221863 512.615234,517.056030 512.614990,500.890228 
	C512.614441,463.058838 512.663818,425.227356 512.599487,387.396088 
	C512.572388,371.427826 504.074341,362.987915 488.283112,362.979370 
	C461.117859,362.964661 433.952576,362.979065 406.787323,362.979309 
	C393.083649,362.979462 384.302948,371.739319 384.304962,385.378174 
	C384.312927,440.042023 384.314514,494.705902 384.303680,549.369751 
	C384.303345,551.113342 384.142273,552.856934 384.063843,554.444092 
	C369.735779,554.444092 355.993073,554.444092 342.035736,554.444092 
	C342.035736,551.940857 342.035675,549.782837 342.035736,547.624878 
	C342.036896,508.293549 342.038452,468.962219 342.039154,429.630890 
	C342.039459,414.358032 333.874268,405.495361 318.555023,405.322021 
	C291.393433,405.014771 264.224060,405.017395 237.061920,405.288574 
	C223.026688,405.428711 213.948364,414.134613 213.929657,426.825500 
	C213.856201,476.656189 213.853241,526.487061 213.930023,576.317749 
	C213.949219,588.769287 223.060730,597.448425 235.589081,597.448181 
	C433.578949,597.443542 631.568848,597.442688 829.558716,597.445740 
	C844.903992,597.445984 853.174377,589.131897 853.174500,573.642273 
	C853.175415,461.814667 853.175049,349.987030 853.173767,238.159424 
	C853.173584,222.080292 844.702332,213.584274 828.504333,213.558044 
	C802.505737,213.515976 776.506348,213.652664 750.508850,213.479797 
	C742.065186,213.423660 734.772949,215.523880 728.332642,222.015762 
	C726.735779,222.886337 724.041138,223.481720 723.741394,224.677490 
	C722.710510,228.789612 722.079895,233.110855 722.071533,237.353973 
	C721.968018,289.818787 722.000427,342.283875 722.000366,394.748901 
	C722.000244,445.048706 722.003113,495.348511 722.004883,545.648315 
	C722.005066,552.004456 722.005432,552.006531 715.395691,552.009155 
	C708.233826,552.012024 701.067627,551.885071 693.914001,552.127197 
	C692.637512,552.170471 691.412598,553.735046 689.379517,554.775452 
M723.483704,221.585739 
	C723.483704,221.585739 723.422180,221.480164 723.483704,221.585739 
z"/>
<path fill="#FCFDFD" opacity="1.000000" stroke="none" 
	d="
M1263.389526,258.382263 
	C1262.625000,259.411591 1261.940186,260.512970 1261.083374,261.458710 
	C1254.404419,268.831024 1253.104736,278.624481 1258.019897,287.334625 
	C1264.994385,299.694275 1270.542358,312.580963 1274.135986,326.356354 
	C1276.623779,335.892914 1285.049927,341.874695 1294.908081,341.877594 
	C1303.517822,341.880127 1312.127686,341.878143 1320.963623,341.878143 
	C1320.963623,356.045685 1320.963623,369.785004 1320.963623,384.101593 
	C1312.967651,384.101593 1305.038574,384.100342 1297.109375,384.101898 
	C1284.553833,384.104370 1277.678101,389.835205 1273.561646,401.505524 
	C1269.269043,413.675385 1264.277100,425.663055 1258.671021,437.286743 
	C1253.209961,448.609589 1253.950439,457.448395 1262.847412,466.190643 
	C1268.538452,471.782715 1274.283203,477.320007 1280.523926,483.387299 
	C1271.971924,491.796509 1263.839111,499.793701 1255.057129,507.849701 
	C1251.337402,505.742584 1248.546265,506.047516 1246.038452,508.855530 
	C1241.539307,504.448883 1237.030273,500.052185 1232.542969,495.633423 
	C1224.237549,487.454681 1214.827393,486.732147 1204.276855,491.801575 
	C1192.487793,497.466034 1180.340942,502.525085 1168.006592,506.874237 
	C1156.785767,510.830780 1151.067505,517.647827 1151.095459,529.698242 
	C1151.113525,537.529602 1151.082397,545.361023 1151.059326,553.192444 
	C1151.058350,553.513855 1150.914673,553.834961 1150.759644,554.480774 
	C1137.097534,554.480774 1123.356445,554.480774 1108.860840,554.480774 
	C1108.860840,545.984009 1108.918457,537.398926 1108.846191,528.814941 
	C1108.757446,518.277405 1102.798706,510.396698 1092.762695,507.297211 
	C1087.842773,505.777771 1082.782837,504.571991 1078.066162,502.566101 
	C1070.274536,499.252472 1062.587891,495.639038 1055.079102,491.726105 
	C1045.040771,486.495026 1035.792236,487.306915 1027.601074,495.198914 
	C1021.506592,501.070709 1015.822632,507.368530 1010.088379,513.338440 
	C999.682739,503.042114 989.877502,493.339874 979.507263,483.078491 
	C985.294556,477.516479 991.110413,472.062408 996.773132,466.453735 
	C1005.674072,457.637634 1006.439209,448.496643 1001.109253,437.408539 
	C995.443420,425.621735 990.439270,413.454071 986.071716,401.124847 
	C982.161072,390.085480 975.052307,384.124969 963.192383,384.106201 
	C955.055054,384.093353 946.917725,384.103729 938.495483,384.103729 
	C938.495483,370.007477 938.495483,356.259155 938.495483,341.857727 
	C947.100952,341.857727 955.697388,341.935303 964.290955,341.810669 
	C966.887024,341.773041 969.474915,341.174683 972.622681,341.096588 
	C974.373718,341.496735 975.698120,342.022003 976.733032,341.677612 
	C978.226746,341.180511 979.408142,339.645996 980.903015,339.269531 
	C985.424866,338.130798 984.514404,335.710815 982.734802,332.910461 
	C985.143250,326.021179 987.240540,319.002380 990.040833,312.276245 
	C993.355591,304.314270 997.023010,296.473083 1000.995361,288.817078 
	C1006.782166,277.663940 1005.681824,268.583069 996.809082,259.875916 
	C991.114685,254.287735 985.326599,248.794968 979.550049,243.230194 
	C989.885803,232.975113 999.664307,223.272934 1010.329712,212.690689 
	C1015.872925,218.533707 1021.577637,224.695404 1027.446411,230.696686 
	C1035.287720,238.715073 1044.647949,239.498123 1054.797485,234.699020 
	C1066.928101,228.963211 1079.356812,223.749908 1091.970459,219.176086 
	C1103.097046,215.141525 1108.826416,208.196365 1108.846436,196.223816 
	C1108.859619,188.392197 1108.884888,180.560623 1108.915039,172.729050 
	C1108.915527,172.585587 1109.043701,172.442612 1109.280029,171.949188 
	C1122.851196,171.949188 1136.599365,171.949188 1151.101929,171.949188 
	C1151.101929,179.609116 1151.101929,187.514938 1151.101929,195.420776 
	C1151.102051,209.024521 1156.352417,215.497345 1169.449829,219.624542 
	C1178.300903,222.413696 1186.848022,226.167542 1195.578125,230.010376 
	C1194.676636,231.214767 1193.728271,231.898651 1193.223633,232.262573 
	C1197.278687,234.549576 1201.223633,236.690811 1205.080322,238.981003 
	C1207.405762,240.361938 1214.880127,239.910065 1217.005493,238.078842 
	C1217.447754,238.003098 1217.890137,237.927353 1218.748535,238.297699 
	C1221.958252,240.427536 1224.697632,241.530441 1227.390381,238.002975 
	C1232.768433,237.155991 1234.843018,234.216492 1233.241577,230.256104 
	C1233.629028,229.791779 1234.016602,229.327454 1234.983398,228.983368 
	C1238.219360,227.723816 1241.111572,226.658997 1243.476807,224.889587 
	C1246.926025,222.309448 1254.836792,221.535812 1257.535156,224.431839 
	C1259.892334,226.961624 1261.627197,230.071381 1264.200073,233.724533 
	C1264.373169,233.715103 1265.939331,233.629929 1267.785400,233.529510 
	C1267.973877,236.710892 1267.495117,240.076462 1271.861206,240.822037 
	C1272.596558,240.947617 1272.890625,243.378494 1273.485840,244.700409 
	C1273.890625,245.599747 1274.465332,246.422607 1274.964111,247.279648 
	C1274.229614,248.115387 1273.494995,248.951111 1272.067139,249.903610 
	C1267.584717,249.802750 1265.920776,251.359177 1267.026855,255.227951 
	C1266.051636,256.262939 1265.076416,257.297943 1263.662842,258.124847 
	C1263.041382,257.928711 1262.858398,257.940674 1262.675293,257.952637 
	C1262.913330,258.095825 1263.151489,258.239014 1263.389526,258.382263 
M1072.976929,453.467285 
	C1099.161499,469.428040 1127.210449,473.860443 1156.892456,466.308716 
	C1206.293945,453.739960 1240.058594,406.304169 1236.280640,354.746216 
	C1232.334717,300.897583 1185.848511,256.451569 1131.480957,256.294586 
	C1098.937378,256.200592 1071.324341,268.152985 1049.785645,292.635559 
	C1029.553833,315.632629 1021.067688,342.748413 1023.735901,373.362122 
	C1025.304199,391.355255 1031.625366,407.591125 1041.027710,423.657593 
	C1041.223755,427.458710 1039.399414,432.221405 1045.739380,433.079193 
	C1046.293335,433.154175 1046.407715,435.140350 1047.076294,435.949524 
	C1049.304077,438.645721 1051.291138,442.719055 1054.112549,443.467621 
	C1058.237671,444.562134 1058.883057,445.853027 1056.865479,449.580017 
	C1061.119263,450.095093 1065.404175,449.357880 1067.435181,453.946198 
	C1067.614014,454.350128 1070.595337,453.513458 1072.976929,453.467285 
z"/>
<path fill="#FDFDFD" opacity="1.000000" stroke="none" 
	d="
M1096.927246,725.127197 
	C1094.600464,725.058411 1092.273682,724.929443 1089.946899,724.929382 
	C742.651428,724.926575 395.355927,724.932861 48.060459,724.938843 
	C46.895367,724.938904 45.730274,724.938904 44.178658,724.938904 
	C44.178658,711.124268 44.178658,697.387695 44.178658,683.301636 
	C398.644104,683.301636 753.312561,683.301636 1108.346191,683.301636 
	C1108.346191,696.424072 1108.274780,709.388550 1108.400146,722.351135 
	C1108.428955,725.324768 1106.672607,724.973877 1104.117798,724.935303 
	C1101.236084,724.989441 1099.081665,725.058289 1096.927246,725.127197 
z"/>
<path fill="#FEFEFE" opacity="1.000000" stroke="none" 
	d="
M634.000000,895.942505 
	C678.781799,895.942505 723.063599,895.942505 767.585388,895.942505 
	C767.585388,910.152954 767.585388,923.901794 767.585388,937.930908 
	C625.791443,937.930908 484.211029,937.930908 342.329926,937.930908 
	C342.329926,924.151733 342.329926,910.393738 342.329926,895.942505 
	C439.350067,895.942505 536.425049,895.942505 634.000000,895.942505 
z"/>
<path fill="#FDFDFD" opacity="1.000000" stroke="none" 
	d="
M589.000000,768.059692 
	C598.967041,768.059692 608.434143,768.059692 618.156189,768.059692 
	C618.156189,796.313416 618.156189,824.223328 618.156189,852.476562 
	C575.874573,852.476562 533.670532,852.476562 491.228638,852.476562 
	C491.228638,824.497131 491.228638,796.583252 491.228638,768.059692 
	C523.669312,768.059692 556.084656,768.059692 589.000000,768.059692 
z"/>
<path fill="#EFEFEF" opacity="1.000000" stroke="none" 
	d="
M1107.699341,45.659897 
	C1105.245850,45.792881 1102.753784,45.988510 1100.261841,45.988605 
	C751.285461,46.001736 402.309113,45.998993 53.332767,46.029198 
	C50.531147,46.029438 47.729572,46.468029 44.495110,46.510429 
	C44.062244,46.318905 44.078678,45.872845 44.381401,45.440937 
	C44.789680,44.673630 44.895237,44.338226 45.000797,44.002827 
	C45.171677,43.821053 45.378960,43.703613 46.063812,43.689919 
	C46.682709,43.676636 46.860435,43.623940 47.038162,43.571243 
	C47.483826,43.622055 47.929485,43.672863 49.104904,43.725449 
	C51.667503,43.739899 53.500343,43.763672 55.333183,43.763687 
	C404.427948,43.766815 753.522705,43.768570 1102.617432,43.759727 
	C1104.107788,43.759689 1105.598022,43.607346 1107.088379,43.526131 
	C1107.088379,43.526131 1107.077881,43.782825 1107.134277,44.356606 
	C1107.350098,45.195503 1107.509277,45.460617 1107.668579,45.725735 
	C1107.668579,45.725735 1107.660889,45.631233 1107.699341,45.659897 
z"/>
<path fill="#020403" opacity="1.000000" stroke="none" 
	d="
M1107.047852,43.273914 
	C1105.598022,43.607346 1104.107788,43.759689 1102.617432,43.759727 
	C753.522705,43.768570 404.427948,43.766815 55.333183,43.763687 
	C53.500343,43.763672 51.667503,43.739899 49.433731,43.645546 
	C49.025948,43.301628 49.019104,43.039391 49.472401,42.387390 
	C402.288361,41.998360 754.644165,41.999084 1107.000000,41.999813 
	C1107.002441,42.340443 1107.004883,42.681068 1107.047852,43.273914 
z"/>
<path fill="#020403" opacity="1.000000" stroke="none" 
	d="
M44.078678,45.872845 
	C44.078678,45.872845 44.062244,46.318905 44.034531,46.432354 
	C43.942707,47.088367 43.878593,47.630932 43.795113,48.966316 
	C43.768471,243.015747 43.760761,436.272369 43.764210,629.528992 
	C43.764229,630.686035 43.920124,631.843140 44.003227,633.000183 
	C43.926880,634.395569 43.850533,635.791016 43.660172,637.591675 
	C43.199551,637.995667 42.852951,637.994507 42.251595,637.525757 
	C41.995899,441.042389 41.994949,245.026474 41.994003,49.010563 
	C42.303329,47.758511 42.612656,46.506462 43.364906,45.362518 
	C43.807827,45.470631 44.078678,45.872845 44.078678,45.872845 
z"/>
<path fill="#131414" opacity="1.000000" stroke="none" 
	d="
M1106.731079,41.687889 
	C754.644165,41.999084 402.288361,41.998360 49.468025,41.993919 
	C51.054764,41.660297 53.105961,41.041866 55.157288,41.041443 
	C267.297455,40.997692 479.437653,41.000412 691.577820,41.000511 
	C827.894104,41.000576 964.210449,40.999298 1100.526733,41.016655 
	C1102.505249,41.016907 1104.483643,41.251003 1106.731079,41.687889 
z"/>
<path fill="#131414" opacity="1.000000" stroke="none" 
	d="
M41.699120,49.304726 
	C41.994949,245.026474 41.995899,441.042389 41.991531,637.526245 
	C41.657425,636.096619 41.041107,634.199097 41.040676,632.301514 
	C40.996708,439.878052 40.998123,247.454590 41.015709,55.031128 
	C41.015873,53.220371 41.269135,51.409637 41.699120,49.304726 
z"/>
<path fill="#F1F1F1" opacity="1.000000" stroke="none" 
	d="
M1275.257202,247.160004 
	C1274.465332,246.422607 1273.890625,245.599747 1273.485840,244.700409 
	C1272.890625,243.378494 1272.596558,240.947617 1271.861206,240.822037 
	C1267.495117,240.076462 1267.973877,236.710892 1267.785400,233.529510 
	C1265.939331,233.629929 1264.373169,233.715103 1264.200073,233.724533 
	C1261.627197,230.071381 1259.892334,226.961624 1257.535156,224.431839 
	C1254.836792,221.535812 1246.926025,222.309448 1243.476807,224.889587 
	C1241.111572,226.658997 1238.219360,227.723816 1235.356934,228.723877 
	C1240.344482,223.502533 1245.537720,218.660904 1250.336304,214.187393 
	C1259.474243,223.445282 1269.132568,233.230270 1279.098633,243.327133 
	C1278.431030,244.025742 1276.990723,245.533051 1275.257202,247.160004 
z"/>
<path fill="#E8E9E9" opacity="1.000000" stroke="none" 
	d="
M956.784424,521.732971 
	C953.155823,523.058289 947.640991,519.840759 945.179749,515.182678 
	C944.357117,513.625916 943.555420,512.058105 942.682190,510.376160 
	C941.250488,511.328278 940.184448,512.037170 939.156921,512.720520 
	C938.743408,512.355286 938.300537,512.145569 938.301575,511.938049 
	C938.319946,508.203308 936.845642,505.894012 933.472900,503.643494 
	C926.542114,499.018707 925.978516,496.663300 928.347473,491.075348 
	C933.014954,496.105804 937.153687,501.395752 941.685730,506.324066 
	C946.480408,511.537964 951.649414,516.407532 956.784424,521.732971 
z"/>
<path fill="#E8E9E9" opacity="1.000000" stroke="none" 
	d="
M996.881775,561.561890 
	C994.020874,564.523132 991.711304,563.689331 989.305420,560.722656 
	C986.266663,556.975586 984.900818,551.151123 977.607910,551.664673 
	C978.507996,549.309631 979.171082,547.574707 979.894409,545.480591 
	C985.541260,550.507324 991.127869,555.893188 996.881775,561.561890 
z"/>
<path fill="#EFEFEF" opacity="1.000000" stroke="none" 
	d="
M1216.626221,237.946228 
	C1214.880127,239.910065 1207.405762,240.361938 1205.080322,238.981003 
	C1201.223633,236.690811 1197.278687,234.549576 1193.223633,232.262573 
	C1193.728271,231.898651 1194.676636,231.214767 1195.809082,230.272980 
	C1200.980469,232.347839 1205.921387,234.789536 1210.982666,236.949310 
	C1212.571167,237.627136 1214.483154,237.546860 1216.626221,237.946228 
z"/>
<path fill="#EFEFEF" opacity="1.000000" stroke="none" 
	d="
M947.351929,454.959503 
	C946.378601,453.984497 945.720886,452.889130 944.969421,451.637695 
	C946.698425,450.837646 949.058411,450.496338 949.480286,449.405457 
	C950.613831,446.474426 950.936646,443.226471 951.542175,440.096771 
	C951.720215,439.176514 951.767151,438.230865 952.029846,436.962311 
	C953.208130,438.658356 954.660156,440.597992 955.115784,442.748718 
	C955.472290,444.431305 955.125305,446.756805 954.147827,448.120880 
	C952.354736,450.623291 949.866150,452.627319 947.351929,454.959503 
z"/>
<path fill="#E8E9E9" opacity="1.000000" stroke="none" 
	d="
M982.443604,333.058838 
	C984.514404,335.710815 985.424866,338.130798 980.903015,339.269531 
	C979.408142,339.645996 978.226746,341.180511 976.733032,341.677612 
	C975.698120,342.022003 974.373718,341.496735 973.042847,341.040588 
	C975.988770,338.216492 979.070557,335.711853 982.443604,333.058838 
z"/>
<path fill="#EFEFEF" opacity="1.000000" stroke="none" 
	d="
M1227.002930,238.008530 
	C1224.697632,241.530441 1221.958252,240.427536 1219.080322,238.364044 
	C1221.921143,236.866974 1224.846436,235.749634 1228.068237,234.943665 
	C1227.910889,236.172852 1227.456909,237.090683 1227.002930,238.008530 
z"/>
<path fill="#F1F1F1" opacity="1.000000" stroke="none" 
	d="
M1227.390381,238.002960 
	C1227.456909,237.090683 1227.910889,236.172852 1228.500244,234.759781 
	C1230.028687,233.001038 1231.421509,231.737534 1233.028076,230.365067 
	C1234.843018,234.216492 1232.768433,237.155991 1227.390381,238.002960 
z"/>
<path fill="#131414" opacity="1.000000" stroke="none" 
	d="
M1096.969971,725.579590 
	C1099.081665,725.058289 1101.236084,724.989441 1103.735352,725.025146 
	C1104.864990,726.124146 1105.650024,727.118530 1107.117188,728.977234 
	C1103.344971,727.877686 1100.178955,726.954834 1096.969971,725.579590 
z"/>
<path fill="#E8E9E9" opacity="1.000000" stroke="none" 
	d="
M1246.120850,509.124603 
	C1248.546265,506.047516 1251.337402,505.742584 1254.748169,507.973572 
	C1254.626709,508.654022 1254.165161,509.269470 1253.139648,509.862305 
	C1252.048584,509.562317 1251.521484,509.284943 1250.905029,508.841492 
	C1250.545532,508.785736 1250.275269,508.896088 1249.698242,509.022095 
	C1248.639160,509.344330 1247.886963,509.650879 1247.134644,509.957458 
	C1246.824219,509.769531 1246.513672,509.581573 1246.120850,509.124603 
z"/>
<path fill="#F1F1F1" opacity="1.000000" stroke="none" 
	d="
M1267.339111,255.096130 
	C1265.920776,251.359177 1267.584717,249.802750 1271.758789,250.039673 
	C1270.646118,251.694077 1269.148804,253.329193 1267.339111,255.096130 
z"/>
<path fill="#FCFDFD" opacity="1.000000" stroke="none" 
	d="
M1250.994385,509.007568 
	C1251.521484,509.284943 1252.048584,509.562317 1252.854980,509.944946 
	C1252.282227,511.026276 1251.430054,512.002319 1250.384644,513.199890 
	C1249.312012,512.245056 1248.361084,511.398438 1247.272339,510.254639 
	C1247.886963,509.650879 1248.639160,509.344330 1249.695312,509.018311 
	C1249.999146,508.998901 1249.990234,508.993713 1250.080322,509.164856 
	C1250.450317,509.221375 1250.730103,509.106781 1251.005615,508.995422 
	C1251.001343,508.998657 1250.994385,509.007568 1250.994385,509.007568 
z"/>
<path fill="#131414" opacity="1.000000" stroke="none" 
	d="
M47.531090,727.547607 
	C47.476959,727.579712 47.585224,727.515564 47.531090,727.547607 
z"/>
<path fill="#020403" opacity="1.000000" stroke="none" 
	d="
M46.959709,43.327843 
	C46.860435,43.623940 46.682709,43.676636 46.238644,43.649406 
	C46.275291,43.407799 46.578278,43.246124 46.959709,43.327843 
z"/>
<path fill="#FEFEFE" opacity="1.000000" stroke="none" 
	d="
M44.381401,45.440937 
	C44.078678,45.872845 43.807827,45.470631 43.682396,45.263138 
	C43.811169,44.685383 44.065369,44.315125 44.660187,43.973846 
	C44.895237,44.338226 44.789680,44.673630 44.381401,45.440937 
z"/>
<path fill="#FEFEFE" opacity="1.000000" stroke="none" 
	d="
M1107.941162,45.499870 
	C1107.509277,45.460617 1107.350098,45.195503 1107.090576,44.477394 
	C1107.398193,44.440941 1107.805908,44.857475 1107.941162,45.499870 
z"/>
<path fill="#050D0A" opacity="1.000000" stroke="none" 
	d="
M729.098206,222.040039 
	C734.772949,215.523880 742.065186,213.423660 750.508850,213.479797 
	C776.506348,213.652664 802.505737,213.515976 828.504333,213.558044 
	C844.702332,213.584274 853.173584,222.080292 853.173767,238.159424 
	C853.175049,349.987030 853.175415,461.814667 853.174500,573.642273 
	C853.174377,589.131897 844.903992,597.445984 829.558716,597.445740 
	C631.568848,597.442688 433.578949,597.443542 235.589081,597.448181 
	C223.060730,597.448425 213.949219,588.769287 213.930023,576.317749 
	C213.853241,526.487061 213.856201,476.656189 213.929657,426.825500 
	C213.948364,414.134613 223.026688,405.428711 237.061920,405.288574 
	C264.224060,405.017395 291.393433,405.014771 318.555023,405.322021 
	C333.874268,405.495361 342.039459,414.358032 342.039154,429.630890 
	C342.038452,468.962219 342.036896,508.293549 342.035736,547.624878 
	C342.035675,549.782837 342.035736,551.940857 342.035736,554.444092 
	C355.993073,554.444092 369.735779,554.444092 384.063843,554.444092 
	C384.142273,552.856934 384.303345,551.113342 384.303680,549.369751 
	C384.314514,494.705902 384.312927,440.042023 384.304962,385.378174 
	C384.302948,371.739319 393.083649,362.979462 406.787323,362.979309 
	C433.952576,362.979065 461.117859,362.964661 488.283112,362.979370 
	C504.074341,362.987915 512.572388,371.427826 512.599487,387.396088 
	C512.663818,425.227356 512.614441,463.058838 512.614990,500.890228 
	C512.615234,517.056030 512.625366,533.221863 512.630859,549.387695 
	C512.631409,551.024475 512.630981,552.661194 512.630981,554.548706 
	C526.652039,554.548706 540.244202,554.548706 554.514893,554.548706 
	C554.514893,552.667236 554.514893,550.913940 554.514893,549.160645 
	C554.514893,482.330719 554.502136,415.500824 554.545593,348.670929 
	C554.548340,344.522644 554.400330,340.233185 555.349976,336.254700 
	C557.615173,326.764801 565.873352,320.259705 575.749756,320.206146 
	C604.247192,320.051666 632.746887,320.016663 661.243835,320.211365 
	C674.205322,320.299927 682.793518,329.878021 682.788879,343.340729 
	C682.765137,412.170471 682.759155,481.000214 682.746887,549.829956 
	C682.746643,551.303589 682.746887,552.777222 682.746887,554.775452 
	C685.189026,554.775452 687.284302,554.775452 690.154297,554.792114 
	C701.292786,554.736755 711.656494,554.664795 722.360596,554.678162 
	C723.413818,554.179504 724.126587,553.595642 724.929871,552.550049 
	C725.027710,447.436188 725.038696,342.784027 725.032654,238.131836 
	C725.032349,232.408066 725.327087,226.794235 729.098206,222.040039 
M469.417389,408.491821 
	C469.334290,408.336212 469.251160,408.180634 469.373871,407.504730 
	C469.305237,407.331299 469.236572,407.157898 469.221039,406.298553 
	C468.813995,406.203003 468.406952,406.107422 467.078186,405.828247 
	C453.840729,405.828247 440.603302,405.828247 427.397156,405.828247 
	C427.397156,455.764099 427.397156,505.091705 427.397156,554.790100 
	C440.813751,554.790100 453.927521,554.818604 467.040131,554.712646 
	C467.755798,554.706909 468.462402,553.578979 469.421265,552.067749 
	C469.439941,505.541779 469.460266,459.015778 469.464325,412.489807 
	C469.464417,411.673187 469.269653,410.856567 469.354156,409.496155 
	C469.289520,409.315521 469.224884,409.134918 469.417389,408.491821 
M810.067078,530.500000 
	C810.067078,439.415894 810.067078,348.331818 810.067078,257.088806 
	C795.908386,257.088806 782.197021,257.088806 768.471436,257.088806 
	C768.471436,356.415619 768.471436,455.427246 768.471436,554.567871 
	C782.415588,554.567871 796.007874,554.567871 810.067078,554.567871 
	C810.067078,546.728760 810.067078,539.114380 810.067078,530.500000 
M631.422363,363.287415 
	C620.299683,363.287415 609.177063,363.287415 598.006348,363.287415 
	C598.006348,427.355042 598.006348,490.907166 598.006348,554.512451 
	C612.092468,554.512451 625.837708,554.512451 639.647522,554.512451 
	C639.647522,490.676514 639.647522,427.135620 639.647522,363.285889 
	C637.007446,363.285889 634.700500,363.285889 631.422363,363.287415 
M256.980743,500.500000 
	C256.980743,518.453369 256.980743,536.406799 256.980743,554.504395 
	C271.170837,554.504395 284.895721,554.504395 298.696045,554.504395 
	C298.696045,519.107300 298.696045,484.018402 298.696045,448.729858 
	C284.714386,448.729858 270.977112,448.729858 256.980743,448.729858 
	C256.980743,465.854034 256.980743,482.677002 256.980743,500.500000 
z"/>
<path fill="#060D0B" opacity="1.000000" stroke="none" 
	d="
M317.456665,289.763855 
	C305.470520,304.937897 291.466309,317.733582 274.298645,326.925293 
	C205.563049,363.726929 119.420944,330.986877 93.462738,257.105103 
	C63.653893,172.263702 125.270134,88.809792 209.152710,86.074509 
	C275.402954,83.914192 331.667084,130.929703 340.790466,196.079803 
	C345.050629,226.501495 338.786835,254.928574 322.594421,281.754822 
	C320.617371,284.753021 319.037018,287.258423 317.456665,289.763855 
M197.501678,260.832947 
	C194.189255,264.231232 190.876831,267.629517 187.204163,271.189606 
	C187.204163,271.189606 187.032944,271.545502 186.490952,271.832428 
	C181.415970,276.911774 176.340973,281.991150 170.763092,287.573822 
	C174.152664,288.987518 176.575989,289.998230 179.503784,291.543365 
	C179.972015,291.660187 180.440262,291.776978 181.374176,292.334076 
	C185.249985,293.548553 189.125778,294.763031 193.656433,296.393402 
	C232.354889,305.868866 272.547974,287.234711 290.051453,251.703140 
	C308.012054,215.243637 298.616638,173.067871 266.150543,147.019684 
	C236.189163,122.981079 195.569443,124.853035 172.254730,140.528763 
	C177.492294,145.978180 182.776337,151.475937 188.196701,157.511139 
	C188.902878,158.082733 189.609055,158.654327 190.635590,159.860153 
	C192.343475,161.495605 194.051361,163.131073 196.049591,165.310257 
	C207.684341,176.964188 219.319107,188.618134 231.275146,200.979721 
	C236.683441,208.608154 236.296799,216.641586 232.358261,225.217285 
	C228.420593,229.486389 224.482941,233.755493 220.154327,238.182663 
	C220.154327,238.182663 219.968216,238.561050 219.423065,238.820572 
	C216.516006,241.865005 213.608963,244.909454 210.496719,248.012405 
	C210.496719,248.012405 210.359406,248.175735 209.802948,248.555496 
	C206.052063,252.356018 202.301178,256.156555 198.185501,260.151672 
	C198.185501,260.151672 198.037018,260.537537 197.501678,260.832947 
M157.598938,188.105240 
	C155.762283,186.391525 153.925629,184.677826 151.885239,182.369354 
	C150.549561,181.150131 149.213882,179.930923 147.533234,178.067383 
	C146.449936,177.100006 145.366638,176.132614 143.992554,174.587479 
	C143.315063,173.127640 142.637573,171.667801 141.960083,170.207962 
	C141.353958,170.708130 140.747849,171.208313 140.141724,171.708481 
	C139.349274,173.440002 138.556839,175.171539 137.216766,177.336761 
	C136.832947,178.251282 136.442108,179.162933 136.066299,180.080734 
	C125.960724,204.760895 126.462929,229.057770 138.823624,253.577682 
	C139.478729,254.502823 140.133820,255.427963 140.995087,256.644257 
	C142.456940,254.933212 143.571335,253.628815 145.229248,252.006989 
	C157.806870,239.334549 170.384491,226.662125 182.568054,214.386703 
	C175.442093,206.948639 168.364517,199.561081 161.107788,191.656769 
	C160.050262,190.681412 158.992722,189.706039 157.598938,188.105240 
z"/>
<path fill="#F1F1F1" opacity="1.000000" stroke="none" 
	d="
M44.398422,632.905640 
	C43.920124,631.843140 43.764229,630.686035 43.764210,629.528992 
	C43.760761,436.272369 43.768471,243.015747 43.890953,49.367752 
	C44.656883,49.802589 45.690990,50.552662 45.873547,51.471855 
	C46.192390,53.077274 46.000160,54.786724 46.000175,56.452576 
	C46.002094,246.404251 46.005993,436.355927 45.951904,626.307617 
	C45.951290,628.475525 45.196407,630.643250 44.398422,632.905640 
z"/>
<path fill="#EFEFEF" opacity="1.000000" stroke="none" 
	d="
M728.715454,222.027893 
	C725.327087,226.794235 725.032349,232.408066 725.032654,238.131836 
	C725.038696,342.784027 725.027710,447.436188 724.618530,552.551147 
	C723.484619,553.540161 722.752441,554.066528 722.020264,554.592896 
	C711.656494,554.664795 701.292786,554.736755 690.546448,554.702942 
	C691.412598,553.735046 692.637512,552.170471 693.914001,552.127197 
	C701.067627,551.885071 708.233826,552.012024 715.395691,552.009155 
	C722.005432,552.006531 722.005066,552.004456 722.004883,545.648315 
	C722.003113,495.348511 722.000244,445.048706 722.000366,394.748901 
	C722.000427,342.283875 721.968018,289.818787 722.071533,237.353973 
	C722.079895,233.110855 722.710510,228.789612 723.741394,224.677490 
	C724.041138,223.481720 726.735779,222.886337 728.715454,222.027893 
z"/>
<path fill="#E8E9E9" opacity="1.000000" stroke="none" 
	d="
M317.875122,289.833191 
	C319.037018,287.258423 320.617371,284.753021 322.489929,282.094299 
	C323.289032,282.658661 324.353760,283.866302 324.218719,284.020050 
	C322.383026,286.109863 323.114349,290.881439 317.875122,289.833191 
z"/>
<path fill="#EFEFEF" opacity="1.000000" stroke="none" 
	d="
M723.452942,221.532959 
	C723.422180,221.480164 723.483704,221.585739 723.452942,221.532959 
z"/>
<path fill="#060D0B" opacity="1.000000" stroke="none" 
	d="
M1041.102295,422.760162 
	C1031.625366,407.591125 1025.304199,391.355255 1023.735901,373.362122 
	C1021.067688,342.748413 1029.553833,315.632629 1049.785645,292.635559 
	C1071.324341,268.152985 1098.937378,256.200592 1131.480957,256.294586 
	C1185.848511,256.451569 1232.334717,300.897583 1236.280640,354.746216 
	C1240.058594,406.304169 1206.293945,453.739960 1156.892456,466.308716 
	C1127.210449,473.860443 1099.161499,469.428040 1072.437012,453.111359 
	C1059.637085,444.805206 1049.692017,434.478455 1041.102295,422.760162 
M1192.078735,349.641998 
	C1184.077637,316.834290 1155.409790,296.323517 1122.562500,299.905701 
	C1088.649170,303.604156 1062.777344,335.316193 1066.427856,368.711731 
	C1070.389648,404.954773 1101.766479,430.469482 1137.265625,426.314880 
	C1174.106567,422.003265 1200.395264,385.697479 1192.078735,349.641998 
z"/>
<path fill="#EFEFEF" opacity="1.000000" stroke="none" 
	d="
M1041.064941,423.208862 
	C1049.692017,434.478455 1059.637085,444.805206 1072.086060,453.004211 
	C1070.595337,453.513458 1067.614014,454.350128 1067.435181,453.946198 
	C1065.404175,449.357880 1061.119263,450.095093 1056.865479,449.580017 
	C1058.883057,445.853027 1058.237671,444.562134 1054.112549,443.467621 
	C1051.291138,442.719055 1049.304077,438.645721 1047.076294,435.949524 
	C1046.407715,435.140350 1046.293335,433.154175 1045.739380,433.079193 
	C1039.399414,432.221405 1041.223755,427.458710 1041.064941,423.208862 
z"/>
<path fill="#F1F1F1" opacity="1.000000" stroke="none" 
	d="
M1263.379883,258.329773 
	C1263.151489,258.239014 1262.913330,258.095825 1262.675293,257.952637 
	C1262.858398,257.940674 1263.041382,257.928711 1263.350830,258.095825 
	C1263.477051,258.274933 1263.370361,258.277283 1263.379883,258.329773 
z"/>
<path fill="#FCFDFD" opacity="1.000000" stroke="none" 
	d="
M1250.002075,509.002655 
	C1250.275269,508.896088 1250.545532,508.785736 1250.905029,508.841492 
	C1250.994385,509.007568 1251.001343,508.998657 1250.750610,508.994019 
	C1250.330078,508.990814 1250.160156,508.992249 1249.990234,508.993713 
	C1249.990234,508.993713 1249.999146,508.998901 1250.002075,509.002655 
z"/>
<path fill="#E8E9E9" opacity="1.000000" stroke="none" 
	d="
M1250.080322,509.164856 
	C1250.160156,508.992249 1250.330078,508.990814 1250.754883,508.990784 
	C1250.730103,509.106781 1250.450317,509.221375 1250.080322,509.164856 
z"/>
<path fill="#FCFCFC" opacity="1.000000" stroke="none" 
	d="
M810.067078,531.000000 
	C810.067078,539.114380 810.067078,546.728760 810.067078,554.567871 
	C796.007874,554.567871 782.415588,554.567871 768.471436,554.567871 
	C768.471436,455.427246 768.471436,356.415619 768.471436,257.088806 
	C782.197021,257.088806 795.908386,257.088806 810.067078,257.088806 
	C810.067078,348.331818 810.067078,439.415894 810.067078,531.000000 
z"/>
<path fill="#FDFDFD" opacity="1.000000" stroke="none" 
	d="
M631.907959,363.286652 
	C634.700500,363.285889 637.007446,363.285889 639.647522,363.285889 
	C639.647522,427.135620 639.647522,490.676514 639.647522,554.512451 
	C625.837708,554.512451 612.092468,554.512451 598.006348,554.512451 
	C598.006348,490.907166 598.006348,427.355042 598.006348,363.287415 
	C609.177063,363.287415 620.299683,363.287415 631.907959,363.286652 
z"/>
<path fill="#FDFDFD" opacity="1.000000" stroke="none" 
	d="
M469.167938,406.984467 
	C469.236572,407.157898 469.305237,407.331299 468.860809,407.836884 
	C467.899841,409.299042 467.061798,410.428497 467.060181,411.559143 
	C466.994446,457.462280 466.987183,503.365540 467.095062,549.268494 
	C467.097992,550.505127 468.450226,551.738525 469.173218,552.973450 
	C468.462402,553.578979 467.755798,554.706909 467.040131,554.712646 
	C453.927521,554.818604 440.813751,554.790100 427.397156,554.790100 
	C427.397156,505.091705 427.397156,455.764099 427.397156,405.828247 
	C440.603302,405.828247 453.840729,405.828247 467.671661,406.149536 
	C468.566071,406.642029 468.867004,406.813263 469.167938,406.984467 
z"/>
<path fill="#FBFBFB" opacity="1.000000" stroke="none" 
	d="
M256.980743,500.000000 
	C256.980743,482.677002 256.980743,465.854034 256.980743,448.729858 
	C270.977112,448.729858 284.714386,448.729858 298.696045,448.729858 
	C298.696045,484.018402 298.696045,519.107300 298.696045,554.504395 
	C284.895721,554.504395 271.170837,554.504395 256.980743,554.504395 
	C256.980743,536.406799 256.980743,518.453369 256.980743,500.000000 
z"/>
<path fill="#E8E9E9" opacity="1.000000" stroke="none" 
	d="
M469.297241,552.520630 
	C468.450226,551.738525 467.097992,550.505127 467.095062,549.268494 
	C466.987183,503.365540 466.994446,457.462280 467.060181,411.559143 
	C467.061798,410.428497 467.899841,409.299042 468.757904,408.097046 
	C469.251160,408.180634 469.334290,408.336212 469.107483,408.829376 
	C468.920319,409.457947 469.043060,409.748962 469.165771,410.039948 
	C469.269653,410.856567 469.464417,411.673187 469.464325,412.489807 
	C469.460266,459.015778 469.439941,505.541779 469.297241,552.520630 
z"/>
<path fill="#FEFEFE" opacity="1.000000" stroke="none" 
	d="
M722.360596,554.678162 
	C722.752441,554.066528 723.484619,553.540161 724.528076,553.012817 
	C724.126587,553.595642 723.413818,554.179504 722.360596,554.678162 
z"/>
<path fill="#FDFDFD" opacity="1.000000" stroke="none" 
	d="
M469.259949,409.768066 
	C469.043060,409.748962 468.920319,409.457947 468.978912,409.060608 
	C469.224884,409.134918 469.289520,409.315521 469.259949,409.768066 
z"/>
<path fill="#E8E9E9" opacity="1.000000" stroke="none" 
	d="
M469.194489,406.641510 
	C468.867004,406.813263 468.566071,406.642029 468.132507,406.241333 
	C468.406952,406.107422 468.813995,406.203003 469.194489,406.641510 
z"/>
<path fill="#FDFDFD" opacity="1.000000" stroke="none" 
	d="
M210.359406,248.175735 
	C210.359406,248.175735 210.496719,248.012405 210.983582,248.026016 
	C212.874710,248.395462 214.278946,248.751297 215.166901,248.976303 
	C216.345383,247.405243 217.014053,245.535507 218.201385,245.108765 
	C222.249344,243.653870 222.477829,241.580185 219.968216,238.561050 
	C219.968216,238.561050 220.154327,238.182663 220.715912,238.366180 
	C223.256577,239.045242 225.235657,239.540771 227.588699,240.129944 
	C227.878677,237.496826 228.090210,235.575958 228.150787,235.025879 
	C230.579376,233.480316 233.025955,232.784134 233.426895,231.465820 
	C234.024216,229.501740 233.177750,227.098541 232.945633,224.882202 
	C236.296799,216.641586 236.683441,208.608154 231.524673,200.474243 
	C232.063965,198.628815 232.353745,197.288879 232.643509,195.948944 
	C228.728271,195.258789 227.659164,191.731827 225.418823,189.198807 
	C221.055603,184.265579 215.417969,180.436447 211.213409,175.395035 
	C208.882996,172.600800 203.617905,172.112579 204.055405,166.936432 
	C204.074966,166.704910 202.334259,166.354630 201.433289,166.008102 
	C200.122818,165.504074 198.830368,164.953110 197.407745,164.372131 
	C198.226318,163.090958 198.746338,162.277054 199.266357,161.463165 
	C198.867264,161.221725 198.468155,160.980286 198.069061,160.738846 
	C197.299118,162.081406 196.529190,163.423965 195.759247,164.766525 
	C194.051361,163.131073 192.343475,161.495605 190.856430,159.479828 
	C191.453522,158.022461 191.829773,156.945435 192.206009,155.868393 
	C190.824142,156.236832 189.442261,156.605255 188.060394,156.973694 
	C182.776337,151.475937 177.492294,145.978180 172.254730,140.528763 
	C195.569443,124.853035 236.189163,122.981079 266.150543,147.019684 
	C298.616638,173.067871 308.012054,215.243637 290.051453,251.703140 
	C272.547974,287.234711 232.354889,305.868866 193.331696,295.833557 
	C193.264832,293.941376 193.522690,292.609100 193.623993,292.085724 
	C191.837433,291.816742 190.066772,291.336487 188.295746,291.335144 
	C185.833481,291.333252 183.370926,291.690369 180.908493,291.893799 
	C180.440262,291.776978 179.972015,291.660187 179.252853,290.896973 
	C178.578735,288.640198 178.155563,287.029785 177.731522,285.416107 
	C179.565018,285.045135 181.126175,284.729248 182.687332,284.413361 
	C182.414047,284.109497 182.140778,283.805634 181.867493,283.501801 
	C183.309189,281.590790 185.121368,279.846619 186.079865,277.718048 
	C186.903732,275.888458 186.752823,273.619934 187.032928,271.545502 
	C187.032944,271.545502 187.204163,271.189606 187.700806,271.370056 
	C189.636368,271.601532 191.448120,272.226288 192.436493,271.583984 
	C194.487457,270.251160 196.101379,268.245789 197.894974,266.516907 
	C198.329453,266.689087 198.763947,266.861298 199.198441,267.033478 
	C198.811295,264.868164 198.424149,262.702850 198.037018,260.537537 
	C198.037018,260.537537 198.185501,260.151672 198.707001,260.344299 
	C200.842834,261.061188 202.457169,261.585419 204.511566,262.252594 
	C204.927444,258.520782 205.129776,255.076111 209.543030,256.454590 
	C209.843033,253.412384 210.101227,250.794067 210.359406,248.175735 
z"/>
<path fill="#FBFBFB" opacity="1.000000" stroke="none" 
	d="
M161.286957,192.173523 
	C168.364517,199.561081 175.442093,206.948639 182.568054,214.386703 
	C170.384491,226.662125 157.806870,239.334549 144.544922,252.080276 
	C142.316910,253.580811 139.837051,248.785995 138.702103,252.929718 
	C126.462929,229.057770 125.960724,204.760895 136.066299,180.080734 
	C136.442108,179.162933 136.832947,178.251282 137.954407,177.145966 
	C140.555817,176.358521 142.419571,175.761871 144.283340,175.165222 
	C145.366638,176.132614 146.449936,177.100006 147.344223,178.497375 
	C146.223267,179.720856 145.291321,180.514313 144.359375,181.307785 
	C144.456543,181.859894 144.553711,182.412003 144.650879,182.964111 
	C147.130249,182.964111 149.609604,182.964111 152.088974,182.964111 
	C153.925629,184.677826 155.762283,186.391525 157.404938,188.473709 
	C157.173386,190.208481 157.135834,191.574768 157.098282,192.941071 
	C158.494507,192.685211 159.890732,192.429352 161.286957,192.173523 
z"/>
<path fill="#E8E9E9" opacity="1.000000" stroke="none" 
	d="
M195.904419,165.038391 
	C196.529190,163.423965 197.299118,162.081406 198.069061,160.738846 
	C198.468155,160.980286 198.867264,161.221725 199.266357,161.463165 
	C198.746338,162.277054 198.226318,163.090958 197.407745,164.372131 
	C198.830368,164.953110 200.122818,165.504074 201.433289,166.008102 
	C202.334259,166.354630 204.074966,166.704910 204.055405,166.936432 
	C203.617905,172.112579 208.882996,172.600800 211.213409,175.395035 
	C215.417969,180.436447 221.055603,184.265579 225.418823,189.198807 
	C227.659164,191.731827 228.728271,195.258789 232.643509,195.948944 
	C232.353745,197.288879 232.063965,198.628815 231.364029,200.120407 
	C219.319107,188.618134 207.684341,176.964188 195.904419,165.038391 
z"/>
<path fill="#F1F1F1" opacity="1.000000" stroke="none" 
	d="
M186.761932,271.688965 
	C186.752823,273.619934 186.903732,275.888458 186.079865,277.718048 
	C185.121368,279.846619 183.309189,281.590790 181.867493,283.501801 
	C182.140778,283.805634 182.414047,284.109497 182.687332,284.413361 
	C181.126175,284.729248 179.565018,285.045135 177.731522,285.416107 
	C178.155563,287.029785 178.578735,288.640198 179.000610,290.629761 
	C176.575989,289.998230 174.152664,288.987518 170.763092,287.573822 
	C176.340973,281.991150 181.415970,276.911774 186.761932,271.688965 
z"/>
<path fill="#F1F1F1" opacity="1.000000" stroke="none" 
	d="
M232.651947,225.049744 
	C233.177750,227.098541 234.024216,229.501740 233.426895,231.465820 
	C233.025955,232.784134 230.579376,233.480316 228.150787,235.025879 
	C228.090210,235.575958 227.878677,237.496826 227.588699,240.129944 
	C225.235657,239.540771 223.256577,239.045242 220.911392,238.287155 
	C224.482941,233.755493 228.420593,229.486389 232.651947,225.049744 
z"/>
<path fill="#F1F1F1" opacity="1.000000" stroke="none" 
	d="
M210.081177,248.365616 
	C210.101227,250.794067 209.843033,253.412384 209.543030,256.454590 
	C205.129776,255.076111 204.927444,258.520782 204.511566,262.252594 
	C202.457169,261.585419 200.842834,261.061188 198.889404,260.247009 
	C202.301178,256.156555 206.052063,252.356018 210.081177,248.365616 
z"/>
<path fill="#F1F1F1" opacity="1.000000" stroke="none" 
	d="
M197.769348,260.685242 
	C198.424149,262.702850 198.811295,264.868164 199.198441,267.033478 
	C198.763947,266.861298 198.329453,266.689087 197.894974,266.516907 
	C196.101379,268.245789 194.487457,270.251160 192.436493,271.583984 
	C191.448120,272.226288 189.636368,271.601532 187.880920,271.289124 
	C190.876831,267.629517 194.189255,264.231232 197.769348,260.685242 
z"/>
<path fill="#F1F1F1" opacity="1.000000" stroke="none" 
	d="
M219.695648,238.690811 
	C222.477829,241.580185 222.249344,243.653870 218.201385,245.108765 
	C217.014053,245.535507 216.345383,247.405243 215.166901,248.976303 
	C214.278946,248.751297 212.874710,248.395462 211.086182,247.996765 
	C213.608963,244.909454 216.516006,241.865005 219.695648,238.690811 
z"/>
<path fill="#F1F1F1" opacity="1.000000" stroke="none" 
	d="
M181.141327,292.113953 
	C183.370926,291.690369 185.833481,291.333252 188.295746,291.335144 
	C190.066772,291.336487 191.837433,291.816742 193.623993,292.085724 
	C193.522690,292.609100 193.264832,293.941376 193.004272,295.625580 
	C189.125778,294.763031 185.249985,293.548553 181.141327,292.113953 
z"/>
<path fill="#EFEFEF" opacity="1.000000" stroke="none" 
	d="
M151.987106,182.666733 
	C149.609604,182.964111 147.130249,182.964111 144.650879,182.964111 
	C144.553711,182.412003 144.456543,181.859894 144.359375,181.307785 
	C145.291321,180.514313 146.223267,179.720856 147.516693,178.819550 
	C149.213882,179.930923 150.549561,181.150131 151.987106,182.666733 
z"/>
<path fill="#EFEFEF" opacity="1.000000" stroke="none" 
	d="
M144.137939,174.876343 
	C142.419571,175.761871 140.555817,176.358521 138.228210,176.929108 
	C138.556839,175.171539 139.349274,173.440002 140.141724,171.708481 
	C140.747849,171.208313 141.353958,170.708130 141.960083,170.207962 
	C142.637573,171.667801 143.315063,173.127640 144.137939,174.876343 
z"/>
<path fill="#EFEFEF" opacity="1.000000" stroke="none" 
	d="
M161.197372,191.915131 
	C159.890732,192.429352 158.494507,192.685211 157.098282,192.941071 
	C157.135834,191.574768 157.173386,190.208481 157.573074,188.786438 
	C158.992722,189.706039 160.050262,190.681412 161.197372,191.915131 
z"/>
<path fill="#E8E9E9" opacity="1.000000" stroke="none" 
	d="
M138.762863,253.253693 
	C139.837051,248.785995 142.316910,253.580811 144.273163,252.238983 
	C143.571335,253.628815 142.456940,254.933212 140.995087,256.644257 
	C140.133820,255.427963 139.478729,254.502823 138.762863,253.253693 
z"/>
<path fill="#E8E9E9" opacity="1.000000" stroke="none" 
	d="
M188.128540,157.242401 
	C189.442261,156.605255 190.824142,156.236832 192.206009,155.868393 
	C191.829773,156.945435 191.453522,158.022461 190.696259,159.162720 
	C189.609055,158.654327 188.902878,158.082733 188.128540,157.242401 
z"/>
<path fill="#FDFDFD" opacity="1.000000" stroke="none" 
	d="
M1192.120117,350.071808 
	C1200.395264,385.697479 1174.106567,422.003265 1137.265625,426.314880 
	C1101.766479,430.469482 1070.389648,404.954773 1066.427856,368.711731 
	C1062.777344,335.316193 1088.649170,303.604156 1122.562500,299.905701 
	C1155.409790,296.323517 1184.077637,316.834290 1192.120117,350.071808 
z"/>
</svg>