<svg xmlns="http://www.w3.org/2000/svg" viewBox="0 0 896.67 883.57"><defs><style>.cls-1{fill:none;}</style></defs><title>icone_moedas</title><g id="Camada_2" data-name="Camada 2"><g id="Camada_1-2" data-name="Camada 1"><path class="cls-1" d="M47.59,111.06l.55.15-.31-.16C47.54,110.91,47.49,110.93,47.59,111.06Z"/><path class="cls-1" d="M42.24,105.61a1,1,0,0,1,.1.15,27.29,27.29,0,0,1,1.9,2.25c.28.37.36.53.31.55.26.24.31.28-.27-.14l.27.25,1.19.94.17.21.63.49-.6-.45h0l.78.63c.37.17.74.35,1.1.55l.31.16c1.67,1.49,2.16,2,1.49,1.53.74.56,1.53,1.15,2.15,1.58l-.14-.11c-2-1.66-.35-.41,1,.6-.15-.15-.44-.4-.94-.8-2.7-2.2-.2-.2.5.3s1.4,1,2.2,1.5c3.2,2.1,6.5,4.1,9.9,5.9,3.8,2,7.6,3.9,11.5,5.6a15.31,15.31,0,0,1,1.44.71c.47.17.94.32,1.36.49,2,.8,4,1.6,6,2.3,21,7.7,42.9,12.9,64.8,17.2q14.7,2.85,29.4,5.1l8.4,1.2c.46.08,1.81.28,3,.44l1,.14.12,0c1.4.1,2.88.3,4.27.5,2.3.3,4.7.5,7,.8q32.4,3.75,64.9,5.1a1016.51,1016.51,0,0,0,124.15-2q8.09-.65,16.15-1.4c5.7-.5,11.3-1.1,17-1.8.93-.08,1.87-.19,2.81-.29,1.4-.17,2.8-.33,4.19-.51,1.11-.2,2.24-.35,3.37-.48a14.78,14.78,0,0,1,1.63-.22c2.5-.4,5.1-.7,7.6-1.1,4.7-.7,9.3-1.4,14-2.2,15-2.55,30-5.55,44.78-9.29l1.47-.38c1.9-.49,3.8-1,5.69-1.49q2.37-.65,4.72-1.32l2.7-.75c2.42-.71,4.84-1.43,7.24-2.17l2.11-.66c.9-.28,1.81-.56,2.71-.86l1-.32q2.75-.9,5.46-1.86c.64-.23,1.29-.45,1.93-.69,1.56-.56,3.12-1.12,4.67-1.7.44-.18.88-.34,1.32-.51s2-.82,3.27-1.3c-1.29.46,1.61-.64,2.13-.9,1-.5,2-.9,3-1.4,1.6-.7,3.2-1.5,4.8-2.3,3.8-1.9,7.4-3.9,11-6.1,2.3-1.5,4.6-3,6.8-4.6l.08,0c.61-.58,1.84-1.61,2.77-2.38.78-.74,1.54-1.5,2.28-2.26.37-.43.74-.85,1.12-1.26a38.36,38.36,0,0,1,2.54-3.85c0-.25.07-.51.1-.77a2.09,2.09,0,0,1,.31-1.4v-.18c-.06-.26-.13-.51-.2-.76a.29.29,0,0,0,0-.09,23.36,23.36,0,0,0-1.18-2.11,4.76,4.76,0,0,0-.31-.47c-1.62-1.76-3.12-3.63-4.89-5.23-1.06-1-2.28-1.81-3.31-2.76l-.79-.54c-3-2-6-3.9-9.2-5.7-3.5-2-7.1-3.8-10.7-5.5l-3.3-1.5c-.15-.08-.41-.21-.7-.34-.53-.22-1.12-.46-1.4-.56-1.2-.5-2.4-.9-3.6-1.4a290.29,290.29,0,0,0-28.6-9.5c-23.2-6.7-47.1-11.3-71-14.9-1.9-.3-3.7-.5-5.6-.8-.8-.1-5.5-.7-3-.4s-2.2-.3-3-.4l-4.9-.6c-7-.9-14.1-1.6-21.1-2.3-14.8-1.4-29.6-2.5-44.4-3.2-31.7-1.6-63.4-1.6-95.1-.3-15.1.6-30,1.6-45,2.9-7.1.7-14.3,1.4-21.4,2.2-3.6.4-7.2.8-10.8,1.3L188,48l-.3,0c-1.24.15-.68.07.3,0,1.75-.29-2.53.35-3.3.45a574.63,574.63,0,0,0-72.3,14.5c-9.9,2.8-19.7,5.8-29.3,9.4-2.3.8-4.6,1.7-6.8,2.6l-.27.11c-.6.27-1.2.53-1.83.79-3.7,1.7-7.5,3.5-11.1,5.4-3.3,1.8-6.6,3.7-9.7,5.7-1.21.83-2.38,1.67-3.58,2.51-.38.32-.79.63-1.22,1a70.81,70.81,0,0,0-6.18,6.08c-.57.83-1.07,1.67-1.57,2.56-.1.39-.22.78-.34,1.17,0,0,0,.07,0,.09,0,.7.06,1.47,0,2.2C41.22,103.48,41.67,104.7,42.24,105.61Z"/><path class="cls-1" d="M47.56,111.16l.17.09.09,0a2.43,2.43,0,0,1-.23-.23l-.23-.06Z"/><path class="cls-1" d="M582.41,259.37l0-.06-.18.12-.06.09Z"/><path class="cls-1" d="M40.09,100.73l0,0a1.33,1.33,0,0,1,0,.19A1.64,1.64,0,0,0,40.09,100.73Z"/><path class="cls-1" d="M47.79,111.34l.12,0-.09-.08-.09,0-.14-.07Z"/><path class="cls-1" d="M40,100.2c0-.27-.06-.43-.1-.39s0,.28,0,.57A1.34,1.34,0,0,0,40,100.2Z"/><path class="cls-1" d="M301.44,664c-50.7-.7-101.4-4.6-151.4-13.4-36.87-6.55-76.78-14.9-109.6-34.38V714c0,.49,0,1,.06,1.53a8.11,8.11,0,0,1,.08,2.76c0,.05,0,.1.05.16.29.64.63,1.36,1,2a8.69,8.69,0,0,1,1.86,2.06l.57.59a12.89,12.89,0,0,1,2.19,1.93c.25.21.49.42.72.64.67.56,1.08.87,1.28,1h0a12.68,12.68,0,0,0-1.38-.83,21.39,21.39,0,0,1,4.48,3.61l.12.09c1.7,1.2,3.4,2.3,5.2,3.4a133.05,133.05,0,0,0,12.3,6.8c2.4,1.2,4.8,2.3,7.2,3.4.64.27,1.2.54,1.82.81l1.68.69c5.6,2.2,11.3,4.2,17.1,6.1,24,7.7,48.8,12.9,73.6,16.8,3.6.6,7.1,1.1,10.6,1.6,1.7.2,3.3.5,5,.7l.66.11,1.54.19c7.4.9,14.9,1.7,22.4,2.5,15.8,1.6,31.6,2.8,47.5,3.6,33.2,1.7,66.6,2,99.8.4q8-.4,16.06-1A288.41,288.41,0,0,1,327.16,664h-1.51Q313.54,664.16,301.44,664Z"/><path class="cls-1" d="M575.64,90l-.95-.67C576,90.32,577.81,91.59,575.64,90Z"/><path class="cls-1" d="M40.54,98.21c.06,0,.08.18.09.38C40.63,98.39,40.61,98.24,40.54,98.21Z"/><path class="cls-1" d="M77,74.57l.14-.06Z"/><path class="cls-1" d="M583.54,98.11l-.24-.27Z"/><path class="cls-1" d="M42.24,259.61c.49.83,1,1.18,1.1,1.12-.38-.48-.87-1.05-1.31-1.5C42.1,259.35,42.18,259.48,42.24,259.61Z"/><path class="cls-1" d="M49,112.29c.26.2.46.35.61.45l-.75-.57Z"/><path class="cls-1" d="M584.37,100.78v-.06l0,0v.06Z"/><path class="cls-1" d="M584.07,102.6c.1-.3.2-.6.27-.89v-.9a4.49,4.49,0,0,0-.31,1.34C584,102.31,584.05,102.46,584.07,102.6Z"/><path class="cls-1" d="M42.24,721.21c-.3-.31-.49-.5-.59-.62a10.08,10.08,0,0,0,1,1.57l.77.53a.1.1,0,0,0,.08-.14l-.52-.54C42.74,721.81,42.44,721.41,42.24,721.21Z"/><path class="cls-1" d="M40.44,719.41c.05-.29.08-.56.11-.82l0-.06A8.19,8.19,0,0,1,40.44,719.41Z"/><path class="cls-1" d="M533.44,329.31c-33.6,10.2-68.5,16-103.3,20.3a985.13,985.13,0,0,1-221.8,1.9q-27.15-2.85-54-7.3c-2.1-.4-4.3-.7-6.4-1.1-.8-.1-1.6-.3-2.4-.4s-1.6-.3-2.4-.4c.7.1,1.3.1,1.9.2l1.5.21-.33-.06c-.44-.06-1.09-.15-2-.25a25.12,25.12,0,0,0-2.7-.4c-1.3-.2-2.5-.5-3.8-.8-2.2-.5-4.3-.9-6.5-1.4-8.6-1.8-17.1-3.9-25.5-6.1-22-5.78-45.22-12.67-65.5-24v97.76c0,.66,0,1.36,0,2.08.12.34.25.71.38,1.06s.45.92.58,1.16c.47.77,1,1.49,1.53,2.24.52.55,1,1.12,1.53,1.69.46.37.91.75,1.34,1.15-1-1.54-.46-.86.43.43a18.09,18.09,0,0,1,2.1,2.48l.06,0h0l0,0,.07.09A26.75,26.75,0,0,1,50.62,422c2.09,1.36,4.15,2.84,6.32,4.16a123.38,123.38,0,0,0,13.9,7.4c1.33.66,2.67,1.25,4,1.84l.4.16c2.8,1.2,5.7,2.3,8.6,3.4,6.3,2.3,12.7,4.4,19.1,6.3a555.37,555.37,0,0,0,76.6,16.4c2.3.4,4.7.7,7,1-5-.7.8.1,1.5.2,2.9.4,5.8.8,8.7,1.1,6.6.7,13.1,1.4,19.7,2q21.6,1.95,43.2,3c33,1.6,66.19,1.72,99.25.19C404.2,388,487.28,330.86,584.34,321.55V309C568.3,318.09,550,324.25,533.44,329.31Z"/><path class="cls-1" d="M40.14,255.08c-.1-.41-.24-.88-.4-1.38.17.61.28,1.28.4,1.93Z"/><path class="cls-1" d="M51.65,729.83l.49.38s-.22-.18-.5-.38Z"/><path class="cls-1" d="M41.65,720.59a.47.47,0,0,0,0-.1C41.55,720.45,41.55,720.48,41.65,720.59Z"/><path class="cls-1" d="M261.24,509.11c-44.3-2.1-88.7-6.7-132.1-15.9-19.8-4.2-39.4-9.3-58.3-16.4a215.76,215.76,0,0,1-30.6-13.65v97.75c0,.53,0,1.09,0,1.66a28.54,28.54,0,0,1,.93,2.91c.51.93,1.2,1.81,1.75,2.73l.08.1c.18.2.34.42.52.63s.31.37.38.47l.18.23,1.43,1.84c-.28-.45-.26-.53.45.36.81.56,1.72,1.21,2,1.47L47,573c.9.51,1.78,1.08,2.68,1.7-.66-.51-1-.77.51.36.63.45,1.27.92,1.92,1.42l-.79-.61-.41-.29c-1-.75-3.2-2.47.41.29,1.46,1.08,2.94,2.1,4.49,3.11a119.29,119.29,0,0,0,12.35,6.92c2.31,1.15,4.53,2.12,6.83,3.18.6.24,1.19.49,1.82.7.9.3,1.7.7,2.6,1,5.6,2.2,11.2,4.1,16.9,5.9,23.1,7.3,46.9,12.3,70.8,16.3,5.2.9,10.5,1.7,15.8,2.5,1.2.2,2.4.3,3.6.5l1.42.21c3.47.4,7,.89,10.48,1.29,11.8,1.3,23.7,2.5,35.5,3.4,29.5,2.28,59,3.1,88.58,2.76-.2-4.4-.32-8.82-.32-13.27a289.61,289.61,0,0,1,17.89-100.5C313.79,510.62,287.45,510.35,261.24,509.11Z"/><path class="cls-1" d="M46.14,417.61c.14.14.28.28.41.43l-.48-.72-.43-.43Z"/><path class="cls-1" d="M41.34,258.61a4.94,4.94,0,0,1,.69.62l-.09-.16C41.76,258.92,41.56,258.77,41.34,258.61Z"/><path class="cls-1" d="M40.5,715.54c-.26-.88-.7-.18-.16,1.87.06.25.15.53.22.8C40.59,717.33,40.54,716.43,40.5,715.54Z"/><path class="cls-1" d="M580.7,261.1s.16,0,.3-.1l1-1.2c.05-.1.11-.18.16-.28A16.41,16.41,0,0,0,580.7,261.1Z"/><path class="cls-1" d="M40.14,256l.15.25-.15-.65Z"/><path class="cls-1" d="M41.56,260h0c.31.2.6.4.88.6-.06-.07-.14-.13-.21-.2Z"/><path class="cls-1" d="M40.34,256.51c0,.14.08.26.11.38,0-.13,0-.27,0-.42l-.12-.19C40.31,256.35,40.32,256.43,40.34,256.51Z"/><path class="cls-1" d="M41.94,259.07c1.23,1,1.54,1.59,1.4,1.66a7.39,7.39,0,0,1,.5.68l.06.07c1.58,1.12.75.92,0,0-.37-.27-.88-.6-1.55-1l.14.16a19.68,19.68,0,0,1,2.8,2.44A21.52,21.52,0,0,1,47,264.61a22.61,22.61,0,0,1,3,3.7h0c-1.28-1.88-.37-.8.58.35,2.54,1.55,5,3.24,7.52,4.64,2.7,1.5,5.3,2.8,8,4.1,1.1.5,2.3,1.1,3.4,1.6.6.3,5.2,2.6,2.4,1.1-2.6-1.4,2.4.9,3.3,1.3,1.5.6,3.1,1.2,4.6,1.8,3.3,1.3,6.5,2.4,9.8,3.5a481,481,0,0,0,47.4,13c2.4.5,4.8,1.1,7.3,1.6,1,.3,4.9.4,5.6,1.2-1.4-.17-2.37-.28-2.92-.33l.31.08,1.81.25a25.12,25.12,0,0,0,2.7.4c.7.1,1.5.3,2.3.4,1.8.3,3.7.7,5.5,1,7.9,1.4,15.8,2.7,23.8,3.8l4.3.6c-.2,0-3.4-.4-1-.1,2.1.3,4.1.6,6.1.8,4.2.5,8.3,1,12.4,1.4,8.6.9,17.1,1.7,25.6,2.4a1040.73,1040.73,0,0,0,110.3,2.4c18.5-.5,37-1.5,55.4-3,8.8-.7,17.6-1.6,26.3-2.6l12.3-1.5c3.9-.5.6-.1-.2,0a23.36,23.36,0,0,1,2.6-.4c2-.2,3.9-.5,5.9-.8,32-4.7,64.1-11.1,94.6-22.1,3.32-1.17,6.63-2.44,9.85-3.7L549,281c1.4-.6,2.8-1.3,4.2-1.9a148.43,148.43,0,0,0,18.7-10.4l2.25-1.59a27.62,27.62,0,0,1,2.29-1.79,2.46,2.46,0,0,1,.36-.32c.95-.79,1.83-1.64,2.7-2.51l1.16-1.4c-.15-.08.21-.7,1.57-1.67.32-.54.65-1.05,1-1.62.16-.25.3-.44.41-.59s.06-.26.09-.41c.21-.84.42-1.66.62-2.48.67-25.58,0-51.15,0-76.72V154.28c-15.91,9.17-33.73,15.53-51.1,20.83-42.2,12.9-86.4,19.2-130.2,23.2a1012.47,1012.47,0,0,1-141.5,2.9c-44.8-2.3-89.8-7.5-133.8-16.9-29.88-6.34-61-14.66-87.6-30.51V255.08a13.3,13.3,0,0,1,.27,1.39C40.94,257.33,41.45,258.2,41.94,259.07Z"/><path class="cls-1" d="M40.55,718.29l0,.06v-.05s0-.06,0-.09S40.55,718.27,40.55,718.29Z"/><path d="M187.74,48l.3,0C187.06,48.08,186.5,48.16,187.74,48Z"/><path d="M584.34,100.81v-.06a2.09,2.09,0,0,0-.31,1.4A4.49,4.49,0,0,1,584.34,100.81Z"/><path d="M40.29,256.28l.12.19a13.3,13.3,0,0,0-.27-1.39v.55Z"/><path d="M41.94,259.07l.09.16c.44.45.93,1,1.31,1.5C43.48,260.66,43.17,260.07,41.94,259.07Z"/><path d="M39.74,253.7a4.53,4.53,0,0,0-.2-.59C39.62,253.32,39.68,253.5,39.74,253.7Z"/><path d="M357.84,776.71c-33.2,1.6-66.6,1.3-99.8-.4-15.9-.8-31.7-2-47.5-3.6-7.5-.8-15-1.6-22.4-2.5L186.6,770l-.66-.11c-1.7-.2-3.3-.5-5-.7-3.5-.5-7-1-10.6-1.6-24.8-3.9-49.6-9.1-73.6-16.8-5.8-1.9-11.5-3.9-17.1-6.1L78,744c-.62-.27-1.18-.54-1.82-.81-2.4-1.1-4.8-2.2-7.2-3.4a133.05,133.05,0,0,1-12.3-6.8c-1.8-1.1-3.5-2.2-5.2-3.4l-.12-.09a21.39,21.39,0,0,0-4.48-3.61,12.68,12.68,0,0,1,1.38.83c-.2-.16-.61-.47-1.28-1-.23-.22-.47-.43-.72-.64A12.89,12.89,0,0,0,44,723.14l-.57-.59a.1.1,0,0,1-.08.14l-.77-.53a10.08,10.08,0,0,1-1-1.57c-.1-.11-.1-.14,0-.1-.34-.67-.68-1.39-1-2,0-.06,0-.11-.05-.16v.05l0-.06s0,0,0-.08c-.07-.27-.16-.55-.22-.8-.54-2-.1-2.75.16-1.87,0-.52-.06-1-.06-1.53V616.23c32.82,19.48,72.73,27.83,109.6,34.38,50,8.8,100.7,12.7,151.4,13.4q12.1.15,24.21,0h1.51a289.81,289.81,0,0,1-4.64-40.28c-29.55.34-59.08-.48-88.58-2.76-11.8-.9-23.7-2.1-35.5-3.4-3.46-.4-7-.89-10.48-1.29l-1.42-.21c-1.2-.2-2.4-.3-3.6-.5-5.3-.8-10.6-1.6-15.8-2.5-23.9-4-47.7-9-70.8-16.3-5.7-1.8-11.3-3.7-16.9-5.9-.9-.3-1.7-.7-2.6-1-.63-.21-1.22-.46-1.82-.7-2.3-1.06-4.52-2-6.83-3.18A119.29,119.29,0,0,1,55.84,579c-1.55-1-3-2-4.49-3.11l.79.61c-.65-.5-1.29-1-1.92-1.42-1.49-1.13-1.17-.87-.51-.36-.9-.62-1.78-1.19-2.68-1.7l1,.28c-.32-.26-1.23-.91-2-1.47-.71-.89-.73-.81-.45-.36l-1.43-1.84-.18-.23c-.07-.1-.21-.27-.38-.47s-.34-.43-.52-.63l-.08-.1c-.55-.92-1.24-1.8-1.75-2.73a28.54,28.54,0,0,0-.93-2.91c0-.57,0-1.13,0-1.66V463.16a215.76,215.76,0,0,0,30.6,13.65c18.9,7.1,38.5,12.2,58.3,16.4,43.4,9.2,87.8,13.8,132.1,15.9,26.21,1.24,52.55,1.51,78.85.79a288,288,0,0,1,18.8-40.8c-33.06,1.53-66.22,1.41-99.25-.19q-21.6-1.05-43.2-3c-6.6-.6-13.1-1.3-19.7-2-2.9-.3-5.8-.7-8.7-1.1-.7-.1-6.5-.9-1.5-.2-2.3-.3-4.7-.6-7-1a555.37,555.37,0,0,1-76.6-16.4c-6.4-1.9-12.8-4-19.1-6.3-2.9-1.1-5.8-2.2-8.6-3.4l-.4-.16c-1.33-.59-2.67-1.18-4-1.84a123.38,123.38,0,0,1-13.9-7.4c-2.17-1.32-4.23-2.8-6.32-4.16a26.75,26.75,0,0,0-2.37-2.05l-.07-.09,0,0-.06,0a18.09,18.09,0,0,0-2.1-2.48l.48.72c-.13-.15-.27-.29-.41-.43l-.5-.72c-.43-.4-.88-.78-1.34-1.15-.5-.57-1-1.14-1.53-1.69-.48-.75-1.06-1.47-1.53-2.24-.13-.24-.35-.69-.58-1.16s-.26-.72-.38-1.06c0-.72,0-1.42,0-2.08V309.75c20.28,11.29,43.54,18.18,65.5,24,8.4,2.2,16.9,4.3,25.5,6.1,2.2.5,4.3.9,6.5,1.4,1.3.3,2.5.6,3.8.8a25.12,25.12,0,0,1,2.7.4c.88.1,1.53.19,2,.25l.33.06-1.5-.21c-.6-.1-1.2-.1-1.9-.2.8.1,1.6.3,2.4.4s1.6.3,2.4.4c2.1.4,4.3.7,6.4,1.1q26.85,4.5,54,7.3a985.13,985.13,0,0,0,221.8-1.9c34.8-4.3,69.7-10.1,103.3-20.3,16.57-5.06,34.86-11.22,50.9-20.34v12.58c9.24-.89,18.6-1.36,28.07-1.36,3.94,0,7.84.1,11.73.26V259.11a46.54,46.54,0,0,0,.3-4.9v-59.5c0-30.5.4-61,0-91.5v-1.7a17,17,0,0,0-.13-2.14c0-.68,0-1.37,0-2.06a19.25,19.25,0,0,0-1.16-6.51c-3.4-15-15.51-26.54-27.44-35.19-15-11-33.1-18.2-50.6-24.2-51.2-18.1-106.5-25-160.4-28.8-64-4.5-128.7-3.3-192.3,4.6-49.2,6.1-100.3,14.9-145.3,37.1-15,7.4-29.2,17.2-38.8,31.1A45,45,0,0,0,.48,104c0,.22,0,.44,0,.67v147.8c0,.7,0,1.36,0,2a19.85,19.85,0,0,0-.42,4v147.4c0,2.1-.1,4.3,0,6.4,0,.38.07.76.1,1.14v148a65.67,65.67,0,0,0,.4,7.94V714.81a51.29,51.29,0,0,0,1.2,12.9c2,8,6.5,14.9,11.7,21.2.9,1.1,1.9,2.3,2.9,3.3.59.53,1.3,1.07,2,1.6l.21.21a3.54,3.54,0,0,0-.42-.31c.35.34.72.65,1.09,1s.74.71,1.11,1c.61.55,2.5,2.11,3.81,3.17-.86-.57-.3-.15,1.69,1.33a10.61,10.61,0,0,0,2.8,2c35,25.07,80,35.27,121.6,42.44,63.9,11.1,129.2,14.5,194,12.6,20.24-.56,40.41-2.07,60.56-4.07a290.19,290.19,0,0,1-30.9-37.41Q365.88,776.3,357.84,776.71ZM41.57,260h0l.68.41c.07.07.15.13.21.2C42.17,260.39,41.88,260.19,41.57,260Zm542-161.88-.24-.27Zm-7.9-8.1c2.17,1.58.31.31-.95-.67ZM77.14,74.51l-.14.06ZM40.63,98.59c0-.2,0-.36-.09-.38S40.63,98.39,40.63,98.59Zm-.08,1.63c.12-.39.24-.78.34-1.17.5-.89,1-1.73,1.57-2.56a70.81,70.81,0,0,1,6.18-6.08c.43-.36.84-.67,1.22-1,1.2-.84,2.37-1.68,3.58-2.51,3.1-2,6.4-3.9,9.7-5.7,3.6-1.9,7.4-3.7,11.1-5.4.63-.26,1.23-.52,1.83-.79l.27-.11c2.2-.9,4.5-1.8,6.8-2.6,9.6-3.6,19.4-6.6,29.3-9.4a574.63,574.63,0,0,1,72.3-14.5c.77-.1,5-.74,3.3-.45l2.8-.35c3.6-.5,7.2-.9,10.8-1.3,7.1-.8,14.3-1.5,21.4-2.2,15-1.3,29.9-2.3,45-2.9,31.7-1.3,63.4-1.3,95.1.3,14.8.7,29.6,1.8,44.4,3.2,7,.7,14.1,1.4,21.1,2.3l4.9.6c.8.1,5.6.7,3,.4s2.2.3,3,.4c1.9.3,3.7.5,5.6.8,23.9,3.6,47.8,8.2,71,14.9a290.29,290.29,0,0,1,28.6,9.5c1.2.5,2.4.9,3.6,1.4.28.1.87.34,1.4.56.29.13.55.26.7.34l3.3,1.5c3.6,1.7,7.2,3.5,10.7,5.5,3.2,1.8,6.2,3.7,9.2,5.7l.79.54c1,.95,2.25,1.78,3.31,2.76,1.77,1.6,3.27,3.47,4.89,5.23a4.76,4.76,0,0,1,.31.47,23.36,23.36,0,0,1,1.18,2.11.29.29,0,0,1,0,.09c.07.25.14.5.2.76v.18l0,0v.06l0,0v.9c-.07.29-.17.59-.27.89,0-.14,0-.29,0-.45,0,.26-.06.52-.1.77a38.36,38.36,0,0,0-2.54,3.85c-.38.41-.75.83-1.12,1.26-.74.76-1.5,1.52-2.28,2.26-.93.77-2.16,1.8-2.77,2.38l-.08,0c-2.2,1.6-4.5,3.1-6.8,4.6-3.6,2.2-7.2,4.2-11,6.1-1.6.8-3.2,1.6-4.8,2.3-1,.5-2,.9-3,1.4-.52.26-3.42,1.36-2.13.9-1.24.48-2.83,1.1-3.27,1.3s-.88.33-1.32.51c-1.55.58-3.11,1.14-4.67,1.7-.64.24-1.29.46-1.93.69q-2.72,1-5.46,1.86l-1,.32c-.9.3-1.81.58-2.71.86l-2.11.66c-2.4.74-4.82,1.46-7.24,2.17l-2.7.75q-2.36.67-4.72,1.32c-1.89.51-3.79,1-5.69,1.49l-1.47.38c-14.81,3.74-29.79,6.74-44.78,9.29-4.7.8-9.3,1.5-14,2.2-2.5.4-5.1.7-7.6,1.1a14.78,14.78,0,0,0-1.63.22c-1.13.13-2.26.28-3.37.48-1.39.18-2.79.34-4.19.51-.94.1-1.88.21-2.81.29-5.7.7-11.3,1.3-17,1.8q-8.06.76-16.15,1.4a1016.51,1016.51,0,0,1-124.15,2q-32.55-1.35-64.9-5.1c-2.3-.3-4.7-.5-7-.8-1.39-.2-2.87-.4-4.27-.5l-.12,0-1-.14c-1.15-.16-2.5-.36-3-.44l-8.4-1.2q-14.7-2.25-29.4-5.1c-21.9-4.3-43.8-9.5-64.8-17.2-2-.7-4-1.5-6-2.3-.42-.17-.89-.32-1.36-.49a15.31,15.31,0,0,0-1.44-.71c-3.9-1.7-7.7-3.6-11.5-5.6-3.4-1.8-6.7-3.8-9.9-5.9-.8-.5-1.5-1-2.2-1.5s-3.2-2.5-.5-.3c.5.4.79.65.94.8-1.39-1-3-2.26-1-.6l.14.11c-.62-.43-1.41-1-2.15-1.58-.15-.1-.35-.25-.61-.45l-.14-.12.75.57c.67.47.18,0-1.49-1.53l-.55-.15a2.43,2.43,0,0,0,.23.23l-.09,0,.09,0,.09.08-.12,0-.2-.16.14.07-.17-.09-.2-.16.23.06c-.1-.13-.05-.15.24,0-.36-.2-.73-.38-1.1-.55l-.78-.63h0l.6.45-.63-.49-.17-.21-1.19-.94-.27-.25c.58.42.53.38.27.14.05,0,0-.18-.31-.55a27.29,27.29,0,0,0-1.9-2.25,1,1,0,0,0-.1-.15c-.57-.91-1-2.13-1.66-3.1,0-.73,0-1.5,0-2.2C40.54,100.29,40.55,100.25,40.55,100.22Zm35.74,27.43-.49-.25Zm-36.2-26.92a1.64,1.64,0,0,1,0,.23,1.33,1.33,0,0,0,0-.19Zm-.15-.92s.07.12.1.39a1.34,1.34,0,0,1-.07.18C39.91,100.09,39.89,99.86,39.94,99.81Zm.2,155.27V153.8c26.55,15.85,57.72,24.17,87.6,30.51,44,9.4,89,14.6,133.8,16.9a1012.47,1012.47,0,0,0,141.5-2.9c43.8-4,88-10.3,130.2-23.2,17.37-5.3,35.19-11.66,51.1-20.83v23.33c0,25.57.69,51.14,0,76.72-.2.82-.41,1.64-.62,2.48,0,.15-.07.28-.09.41s-.25.34-.41.59c-.32.57-.65,1.08-1,1.62l.18-.12,0,.06-.2.15c-.05.1-.11.18-.16.28l-1,1.2c-.14.1-.25.13-.3.1l-1.16,1.4c-.87.87-1.75,1.72-2.7,2.51a2.46,2.46,0,0,0-.36.32,27.62,27.62,0,0,0-2.29,1.79l-2.25,1.59a148.43,148.43,0,0,1-18.7,10.4c-1.4.6-2.8,1.3-4.2,1.9l-1.15.5c-3.22,1.26-6.53,2.53-9.85,3.7-30.5,11-62.6,17.4-94.6,22.1-2,.3-3.9.6-5.9.8a23.36,23.36,0,0,0-2.6.4c.8-.1,4.1-.5.2,0l-12.3,1.5c-8.7,1-17.5,1.9-26.3,2.6-18.4,1.5-36.9,2.5-55.4,3a1040.73,1040.73,0,0,1-110.3-2.4c-8.5-.7-17-1.5-25.6-2.4-4.1-.4-8.2-.9-12.4-1.4-2-.2-4-.5-6.1-.8-2.4-.3.8.1,1,.1l-4.3-.6c-8-1.1-15.9-2.4-23.8-3.8-1.8-.3-3.7-.7-5.5-1-.8-.1-1.6-.3-2.3-.4a25.12,25.12,0,0,1-2.7-.4l-1.81-.25-.31-.08c.55.05,1.52.16,2.92.33-.7-.8-4.6-.9-5.6-1.2-2.5-.5-4.9-1.1-7.3-1.6a481,481,0,0,1-47.4-13c-3.3-1.1-6.5-2.2-9.8-3.5-1.5-.6-3.1-1.2-4.6-1.8-.9-.4-5.9-2.7-3.3-1.3,2.8,1.5-1.8-.8-2.4-1.1-1.1-.5-2.3-1.1-3.4-1.6-2.7-1.3-5.3-2.6-8-4.1-2.51-1.4-5-3.09-7.52-4.64-.95-1.15-1.86-2.23-.58-.35h0a22.61,22.61,0,0,0-3-3.7,21.52,21.52,0,0,0-1.75-1.55,19.68,19.68,0,0,0-2.8-2.44l-.14-.16c.67.42,1.18.75,1.55,1l-.06-.07a7.39,7.39,0,0,0-.5-.68c-.13.06-.61-.29-1.1-1.12-.06-.13-.14-.26-.21-.38a4.94,4.94,0,0,0-.69-.62c.22.16.42.31.6.46-.49-.87-1-1.74-1.53-2.6,0,.15,0,.29,0,.42,0-.12-.07-.24-.11-.38s0-.16-.05-.23l-.15-.25v-.4c-.12-.65-.23-1.32-.4-1.93-.06-.2-.12-.38-.2-.59a4.53,4.53,0,0,1,.2.59C39.9,254.2,40,254.67,40.14,255.08Zm.3,464.33a8.19,8.19,0,0,0,.09-.88l0,.06C40.52,718.85,40.49,719.12,40.44,719.41Zm11.21,10.42h0c.28.2.48.36.5.38Z"/><path d="M43.9,261.48c.75.92,1.58,1.12,0,0Z"/><path d="M48.23,419.84Z"/><path d="M45.64,416.89l.43.43C45.18,416,44.59,415.35,45.64,416.89Z"/><path d="M580.7,261.1a16.41,16.41,0,0,1,1.51-1.58l.06-.09C580.91,260.4,580.55,261,580.7,261.1Z"/><path d="M50.94,575.61l.41.29C47.74,573.14,49.91,574.86,50.94,575.61Z"/><path d="M48.22,726.74Z"/><path d="M40.5,715.54c0,.89.09,1.79.06,2.67,0,0,0,.06,0,.09A8.11,8.11,0,0,0,40.5,715.54Z"/><path d="M41.6,720.49a.47.47,0,0,1,0,.1c.1.12.29.31.59.62s.5.6.7.8l.52.54A8.69,8.69,0,0,0,41.6,720.49Z"/><path d="M579.75,551.81q0,12.3,8.5,18.63t25.88,11.4V523.22Q579.75,525.4,579.75,551.81Z"/><path d="M657.55,650.24q-10.12-6.87-28.22-12.67v58.26q38.34-1.08,38.35-26.41A21.91,21.91,0,0,0,657.55,650.24Z"/><path d="M624.62,339.47c-150.25,0-272,121.8-272,272s121.8,272.05,272.05,272.05,272-121.8,272-272.05S774.87,339.47,624.62,339.47Zm89.2,358.9a64.3,64.3,0,0,1-19.18,23.16,85.32,85.32,0,0,1-28.22,13.57,147.11,147.11,0,0,1-33.84,5.24v39.81H610.87V740a187.77,187.77,0,0,1-49.39-10.31,178.75,178.75,0,0,1-43.61-22.26l22.07-43.06a69.37,69.37,0,0,0,10,7.6,121.23,121.23,0,0,0,17,9.23,215.25,215.25,0,0,0,22.08,8.5,123.58,123.58,0,0,0,25.15,5.43V632.87c-2.17-.48-4.34-1-6.52-1.63s-4.34-1.27-6.51-2a234,234,0,0,1-32-11,84.08,84.08,0,0,1-22.62-14.11,52.71,52.71,0,0,1-13.57-18.82q-4.53-10.66-4.53-25.51,0-18.09,6.34-32.39A72.56,72.56,0,0,1,552.07,503,80.75,80.75,0,0,1,578.3,487a118.88,118.88,0,0,1,32.57-7.23V442.88h21.71v36.55a149.59,149.59,0,0,1,44,9.77,176.45,176.45,0,0,1,35.28,18.46l-22.07,40.53q-2.18-2.54-8.14-6.15a150.15,150.15,0,0,0-32-14.3,103.6,103.6,0,0,0-20.26-4.16v62.61l9,2.17q18.81,5.07,34.2,10.85a92.83,92.83,0,0,1,26,14.48,59.77,59.77,0,0,1,16.47,20.81q5.79,12.12,5.79,29.85Q720.88,684.26,713.82,698.37Z"/></g></g></svg>