<svg width="328" height="234" viewBox="0 0 328 234" fill="none" xmlns="http://www.w3.org/2000/svg">
<path d="M0.536935 202.626L19.7283 170.338C20.8489 168.449 23.3463 167.907 25.16 169.161C46.2221 183.705 63.5143 189.544 83.8642 189.601C106.503 189.658 120.291 180.828 120.329 165.838C120.367 150.847 110.595 143.489 77.5874 134.224C27.1447 120.334 7.91532 101.631 8.01028 66.7702C8.11474 26.7064 41.2273 -0.122995 89.2485 0.000424024C116.094 0.0763743 138.466 5.97201 160.62 19.3013C162.415 20.3836 163.004 22.7001 161.94 24.5039L142.996 56.5549C141.951 58.3302 139.672 58.9378 137.868 57.9315C120.395 48.2004 105.885 44.0801 89.7423 44.0421C68.9365 43.9851 56.3734 51.5991 56.3449 64.4442C56.3164 76.9855 65.1761 83.128 99.0958 93.6091C147.089 108.41 168.749 130.179 168.663 163.825C168.559 205.721 134.525 233.775 83.7408 233.642C53.7714 233.566 24.6852 224.177 1.60049 207.667C-0.0138321 206.519 -0.479136 204.326 0.536935 202.626Z" fill="#4D1AA4"/>
<path d="M324.184 51.0102H230.297V101.963H306.588C308.686 101.963 310.386 103.663 310.386 105.761V143.052C310.386 145.151 308.686 146.85 306.588 146.85H230.297V227.67C230.297 229.769 228.597 231.468 226.499 231.468H187.375C185.276 231.468 183.577 229.769 183.577 227.67V9.61733C183.577 7.51921 185.276 5.81982 187.375 5.81982H324.174C326.273 5.81982 327.973 7.51921 327.973 9.61733V47.2127C327.973 49.3108 326.273 51.0102 324.174 51.0102H324.184Z" fill="#4D1AA4"/>
</svg>
