<svg xmlns="http://www.w3.org/2000/svg" viewBox="0 0 8.28 18.001">
  <path d="M6.329 0c1.206 0 1.808.823 1.808 1.763 0 1.174-1.047 2.26-2.41 2.26-1.142 0-1.808-.676-1.777-1.791C3.95 1.292 4.743 0 6.329 0zM2.618 18.001c-.952 0-1.65-.587-.984-3.17l1.093-4.583c.19-.734.222-1.027 0-1.027-.286 0-1.521.507-2.252 1.006L0 9.434c2.315-1.967 4.979-3.12 6.121-3.12.951 0 1.11 1.145.634 2.907l-1.25 4.817c-.223.851-.127 1.144.094 1.144.286 0 1.222-.353 2.142-1.087l.539.734c-2.252 2.29-4.711 3.172-5.662 3.172z"/>
</svg>
