<svg xmlns="http://www.w3.org/2000/svg" viewBox="0 0 20 20">
  <path fill="#010101" d="M9.415 16.04c-.17 0-.339-.058-.477-.168-.22-.177-.324-.462-.269-.739l1.07-5.432-.589.332c-.367.206-.83.076-1.036-.289-.206-.366-.076-.829.29-1.036l2.027-1.141c.258-.146.578-.128.818.046.241.174.358.471.301.762l-1.109 5.628.909-.396c.385-.167.833.009 1.001.394.167.384-.009.832-.394 1l-2.239.975c-.097.043-.2.064-.303.064zm2.157-10.373c.202-.202.317-.482.317-.766 0-.287-.115-.567-.317-.769-.202-.202-.482-.317-.769-.317-.284 0-.564.115-.766.317-.204.202-.319.482-.319.769 0 .284.115.564.319.766.202.202.48.319.766.319.287 0 .567-.117.769-.319zM19.99 10c0-5.509-4.482-9.99-9.99-9.99C4.491.01.01 4.491.01 10s4.481 9.99 9.99 9.99c5.508 0 9.99-4.481 9.99-9.99zm-1.737 0c0 4.55-3.702 8.253-8.253 8.253S1.747 14.55 1.747 10c0-4.551 3.702-8.253 8.253-8.253S18.253 5.449 18.253 10z"/>
</svg>
