<svg width="961" height="370" viewBox="0 0 961 370" fill="none" xmlns="http://www.w3.org/2000/svg">
<g clip-path="url(#clip0_4353_2414)">
<path d="M334.74 275.3H311.55L306.29 289.61H301.77L321.1 238.54H325.21L344.54 289.61H340.05L334.75 275.3H334.74ZM312.89 271.62H333.38L323.14 243.8L312.9 271.62H312.89Z" fill="#4D1AA4"/>
<path d="M399.04 271.02C399.04 273.87 398.72 276.48 398.07 278.84C397.42 281.2 396.49 283.23 395.25 284.93C394.01 286.63 392.5 287.95 390.71 288.89C388.92 289.84 386.88 290.31 384.59 290.31C381.88 290.31 379.53 289.82 377.56 288.85C375.59 287.88 373.95 286.54 372.67 284.83V304.19H368.5V251.64H372.39L372.6 257.01C373.89 255.12 375.51 253.63 377.48 252.56C379.45 251.49 381.78 250.95 384.5 250.95C386.82 250.95 388.88 251.41 390.69 252.32C392.5 253.23 394.03 254.53 395.27 256.21C396.51 257.89 397.45 259.92 398.09 262.3C398.73 264.68 399.06 267.33 399.06 270.28V271.02H399.04ZM394.83 270.29C394.83 268.09 394.6 266.04 394.15 264.12C393.69 262.2 393 260.54 392.08 259.14C391.16 257.74 389.98 256.63 388.55 255.83C387.12 255.02 385.45 254.62 383.53 254.62C382.01 254.62 380.66 254.82 379.5 255.22C378.33 255.62 377.31 256.15 376.43 256.82C375.55 257.49 374.8 258.26 374.19 259.13C373.58 260 373.06 260.93 372.66 261.88V280.08C373.1 281.04 373.66 281.93 374.33 282.75C375 283.57 375.78 284.28 376.68 284.87C377.58 285.46 378.6 285.93 379.75 286.27C380.9 286.61 382.18 286.78 383.61 286.78C385.53 286.78 387.19 286.38 388.59 285.57C389.99 284.76 391.16 283.65 392.08 282.24C393 280.83 393.69 279.16 394.15 277.24C394.61 275.32 394.83 273.25 394.83 271.03V270.29Z" fill="#4D1AA4"/>
<path d="M432.29 289.62C432.06 288.97 431.87 288.16 431.75 287.22C431.62 286.27 431.53 285.31 431.49 284.33C430.86 285.15 430.11 285.92 429.25 286.64C428.38 287.37 427.41 288 426.34 288.53C425.26 289.07 424.08 289.5 422.8 289.83C421.51 290.16 420.12 290.32 418.63 290.32C416.78 290.32 415.1 290.05 413.6 289.51C412.09 288.97 410.81 288.22 409.74 287.25C408.68 286.28 407.85 285.14 407.27 283.83C406.69 282.52 406.39 281.09 406.39 279.55C406.39 277.7 406.79 276.04 407.58 274.55C408.37 273.07 409.52 271.8 411.02 270.76C412.52 269.72 414.33 268.92 416.47 268.37C418.61 267.82 421.01 267.55 423.68 267.55H431.47V263.24C431.47 260.53 430.63 258.39 428.96 256.84C427.29 255.28 424.85 254.51 421.65 254.51C420.18 254.51 418.82 254.71 417.58 255.11C416.34 255.51 415.27 256.06 414.37 256.76C413.47 257.46 412.77 258.27 412.27 259.2C411.77 260.12 411.51 261.11 411.51 262.16L407.3 262.13C407.3 260.7 407.65 259.32 408.35 257.99C409.05 256.66 410.04 255.47 411.31 254.43C412.58 253.39 414.12 252.55 415.9 251.92C417.69 251.29 419.67 250.97 421.85 250.97C423.86 250.97 425.71 251.23 427.41 251.74C429.1 252.25 430.56 253.03 431.78 254.05C432.99 255.08 433.94 256.37 434.62 257.91C435.3 259.45 435.64 261.25 435.64 263.31V281.69C435.64 282.35 435.66 283.02 435.71 283.73C435.76 284.44 435.83 285.11 435.94 285.77C436.04 286.42 436.17 287.05 436.31 287.65C436.45 288.25 436.61 288.77 436.8 289.21V289.63H432.31L432.29 289.62ZM419.11 286.6C420.63 286.6 422.04 286.41 423.34 286.02C424.64 285.63 425.81 285.1 426.86 284.42C427.91 283.74 428.83 282.95 429.6 282.05C430.37 281.15 430.99 280.17 431.46 279.12V270.77H424.27C422.12 270.77 420.19 270.96 418.5 271.35C416.8 271.74 415.37 272.29 414.2 273.02C413.03 273.75 412.14 274.63 411.52 275.67C410.9 276.71 410.59 277.89 410.59 279.2C410.59 280.23 410.79 281.19 411.19 282.09C411.59 282.99 412.15 283.77 412.89 284.44C413.63 285.11 414.52 285.63 415.57 286.02C416.62 286.41 417.8 286.6 419.11 286.6Z" fill="#4D1AA4"/>
<path d="M464.36 255.24C463.47 255.08 462.52 254.99 461.52 254.99C460.09 254.99 458.81 255.2 457.66 255.62C456.51 256.04 455.5 256.63 454.63 257.39C453.75 258.15 453.02 259.05 452.42 260.09C451.82 261.13 451.35 262.28 451 263.54V289.6H446.83V251.65H450.93L451 257.68C452.03 255.6 453.43 253.96 455.19 252.75C456.96 251.55 459.12 250.94 461.7 250.94C462.21 250.94 462.74 250.99 463.28 251.08C463.82 251.17 464.21 251.28 464.47 251.4L464.37 255.22L464.36 255.24Z" fill="#4D1AA4"/>
<path d="M479.27 241.94V251.66H487.13V255.1H479.27V280.39C479.27 281.72 479.4 282.79 479.67 283.6C479.94 284.41 480.3 285.04 480.76 285.49C481.22 285.95 481.74 286.25 482.34 286.4C482.94 286.55 483.56 286.63 484.22 286.63C484.88 286.63 485.46 286.59 486.04 286.51C486.62 286.43 487.15 286.35 487.62 286.28L487.8 289.72C487.29 289.91 486.61 290.05 485.78 290.16C484.95 290.27 484.13 290.32 483.31 290.32C482.12 290.32 481.01 290.16 480 289.85C478.98 289.53 478.11 288.99 477.39 288.22C476.67 287.45 476.1 286.43 475.69 285.15C475.28 283.88 475.08 282.29 475.08 280.4V255.11H468.1V251.67H475.08V241.95H479.29L479.27 241.94Z" fill="#4D1AA4"/>
<path d="M510.98 270.08C510.98 267.32 511.38 264.77 512.19 262.43C513 260.09 514.14 258.08 515.61 256.38C517.08 254.68 518.86 253.36 520.94 252.4C523.02 251.44 525.34 250.96 527.89 250.96C530.44 250.96 532.83 251.44 534.92 252.4C537.01 253.36 538.8 254.69 540.27 256.38C541.74 258.07 542.88 260.09 543.67 262.43C544.46 264.77 544.86 267.32 544.86 270.08V271.24C544.86 274 544.46 276.55 543.67 278.89C542.88 281.23 541.74 283.24 540.27 284.94C538.8 286.64 537.02 287.96 534.94 288.9C532.86 289.85 530.53 290.32 527.96 290.32C525.39 290.32 523.06 289.85 520.98 288.9C518.9 287.95 517.11 286.63 515.63 284.94C514.15 283.24 513 281.23 512.19 278.89C511.38 276.55 510.98 274 510.98 271.24V270.08ZM515.18 271.23C515.18 273.31 515.46 275.29 516.02 277.18C516.58 279.06 517.4 280.71 518.48 282.13C519.55 283.54 520.89 284.67 522.48 285.51C524.07 286.35 525.89 286.77 527.95 286.77C530.01 286.77 531.83 286.35 533.4 285.51C534.98 284.67 536.31 283.54 537.38 282.13C538.46 280.72 539.28 279.07 539.84 277.18C540.4 275.3 540.68 273.32 540.68 271.23V270.07C540.68 268.03 540.4 266.08 539.84 264.19C539.28 262.31 538.46 260.65 537.38 259.23C536.31 257.8 534.97 256.66 533.36 255.81C531.76 254.96 529.93 254.53 527.87 254.53C525.81 254.53 524.03 254.96 522.45 255.81C520.87 256.66 519.54 257.8 518.47 259.23C517.39 260.66 516.58 262.31 516.01 264.19C515.45 266.07 515.17 268.03 515.17 270.07V271.23H515.18Z" fill="#4D1AA4"/>
<path d="M556.54 289.62V255.1H550.26V251.66H556.54V246.96C556.54 245.04 556.8 243.34 557.31 241.84C557.82 240.34 558.57 239.09 559.54 238.09C560.51 237.08 561.68 236.32 563.07 235.79C564.45 235.26 566.02 235 567.77 235C568.49 235 569.24 235.05 570 235.14C570.76 235.23 571.5 235.39 572.23 235.6L571.91 239.11C571.32 238.97 570.74 238.86 570.14 238.79C569.54 238.72 568.86 238.69 568.09 238.69C565.78 238.69 563.97 239.41 562.69 240.85C561.4 242.29 560.76 244.33 560.76 246.97V251.67H569.81V255.11H560.76V289.63H556.55L556.54 289.62Z" fill="#4D1AA4"/>
<path d="M660.91 239.97H648.43C644.71 239.97 641.71 236.96 641.71 233.25V220.77C641.71 217.06 644.71 214.05 648.43 214.05H660.91C664.62 214.05 667.63 217.06 667.63 220.77V233.25C667.63 236.96 664.62 239.97 660.91 239.97Z" fill="#4D1AA4"/>
<path d="M628.61 267.95H614.57C610.4 267.95 607.01 264.57 607.01 260.4V246.35C607.01 242.18 610.39 238.79 614.57 238.79H628.61C632.78 238.79 636.17 242.18 636.17 246.35V260.4C636.17 264.58 632.79 267.95 628.61 267.95Z" fill="#4D1AA4"/>
<path d="M627.27 297.1H618.69C616.14 297.1 614.07 295.04 614.07 292.48V283.91C614.07 281.35 616.14 279.28 618.69 279.28H627.27C629.82 279.28 631.89 281.35 631.89 283.91V292.48C631.89 295.03 629.82 297.1 627.27 297.1Z" fill="#4D1AA4"/>
<path d="M650.3 324.2H640.16C637.15 324.2 634.7 321.76 634.7 318.74V308.6C634.7 305.58 637.14 303.14 640.16 303.14H650.3C653.31 303.14 655.76 305.58 655.76 308.6V318.74C655.76 321.76 653.32 324.2 650.3 324.2Z" fill="#4D1AA4"/>
<path d="M687.47 245.07H680.44C678.35 245.07 676.66 243.37 676.66 241.29V234.27C676.66 232.18 678.35 230.49 680.44 230.49H687.47C689.56 230.49 691.24 232.19 691.24 234.27V241.29C691.24 243.37 689.55 245.07 687.47 245.07Z" fill="#4D1AA4"/>
<path d="M870.4 309.22C872.63 309.22 874.44 307.41 874.44 305.17C874.44 302.93 872.63 301.12 870.4 301.12C868.17 301.12 866.34 302.94 866.34 305.17C866.34 307.4 868.16 309.22 870.4 309.22Z" fill="#4D1AA4"/>
<path d="M722.59 352.41C721.96 353.35 720.95 353.82 719.85 353.82C719.23 353.82 718.52 353.66 717.97 353.35C717.11 352.8 716.48 351.63 716.48 350.45C716.48 349.9 716.64 349.35 716.95 348.88L726.34 334.09L716.95 319.3C716.64 318.83 716.48 318.2 716.48 317.65C716.48 316.56 717.03 315.38 718.05 314.83C718.6 314.52 719.15 314.36 719.77 314.36C720.87 314.36 721.96 314.83 722.59 315.77L730.26 327.9L738.01 315.77C738.64 314.83 739.73 314.36 740.83 314.36C741.46 314.36 742 314.52 742.55 314.83C743.57 315.38 744.11 316.55 744.11 317.65C744.11 318.2 743.95 318.83 743.64 319.3L734.25 334.09L743.64 348.88C743.95 349.35 744.11 349.9 744.11 350.45C744.11 351.62 743.48 352.8 742.62 353.35C742.07 353.66 741.37 353.82 740.74 353.82C739.65 353.82 738.63 353.35 738 352.41L730.25 340.36L722.58 352.41H722.59Z" fill="#4D1AA4"/>
<path d="M756.08 318.99C759.6 315.78 764.38 313.82 769.54 313.82C780.81 313.82 789.81 322.82 789.81 334.09C789.81 345.36 780.81 354.21 769.54 354.21C764.37 354.21 759.6 352.25 756.08 349.04V366.34C756.08 368.06 754.52 369.55 752.72 369.55C751.07 369.55 749.43 368.06 749.43 366.34V317.34C749.43 315.62 751.07 314.13 752.72 314.13C754.52 314.13 756.08 315.62 756.08 317.34V318.98V318.99ZM769.54 320.56C762.02 320.56 756.08 326.51 756.08 334.1C756.08 341.69 762.03 347.56 769.54 347.56C777.05 347.56 783.08 341.61 783.08 334.1C783.08 326.59 777.13 320.56 769.54 320.56Z" fill="#4D1AA4"/>
<path d="M847.12 330.42V350.69C847.12 352.41 845.47 353.9 843.83 353.9C842.03 353.9 840.46 352.41 840.46 350.69V317.34C840.46 315.62 842.02 314.13 843.83 314.13C845.4 314.13 847.04 315.54 847.12 317.18C849.86 315.07 853.38 313.89 857.22 313.81C859.33 313.81 860.9 315.45 860.9 317.1C860.9 318.9 859.26 320.54 857.22 320.54C851.98 320.7 847.12 322.58 847.12 330.4V330.42Z" fill="#4D1AA4"/>
<path d="M870.45 314.14C868.65 314.14 867.09 315.63 867.09 317.35V350.7C867.09 352.42 868.65 353.91 870.45 353.91C872.1 353.91 873.74 352.42 873.74 350.7V317.35C873.74 315.63 872.1 314.14 870.45 314.14Z" fill="#4D1AA4"/>
<path d="M912.95 317.35C912.95 315.63 914.51 314.14 916.31 314.14C917.96 314.14 919.6 315.63 919.6 317.35V350.7C919.6 352.42 917.96 353.91 916.31 353.91C914.51 353.91 912.95 352.42 912.95 350.7V349.06C909.35 352.27 904.65 354.23 899.48 354.23C888.21 354.23 879.21 345.23 879.21 333.96C879.21 322.69 888.21 313.84 899.48 313.84C904.65 313.84 909.35 315.8 912.95 319.01V317.36V317.35ZM899.49 347.48C907.01 347.48 912.96 341.53 912.96 333.94C912.96 326.35 907.01 320.48 899.49 320.48C891.97 320.48 885.95 326.43 885.95 333.94C885.95 341.45 891.9 347.48 899.49 347.48Z" fill="#4D1AA4"/>
<path d="M953.5 330.81C953.5 325.25 948.65 320.4 943.09 320.4C937.53 320.4 932.68 322.59 932.68 330.42V350.69C932.68 352.41 931.04 353.9 929.39 353.9C927.59 353.9 926.03 352.41 926.03 350.69V317.34C926.03 315.62 927.59 314.13 929.39 314.13C930.96 314.13 932.6 315.54 932.68 317.18C935.5 314.99 939.1 313.81 943.01 313.81C952.09 313.81 960.15 320.93 960.15 329.86V350.68C960.15 352.4 958.51 353.89 956.86 353.89C955.06 353.89 953.49 352.4 953.49 350.68V330.8L953.5 330.81Z" fill="#4D1AA4"/>
<path d="M714.63 332.85C714.47 322.59 705.32 313.83 694.51 313.83C683.7 313.83 674.24 322.83 674.24 333.95C674.24 345.07 683.24 354.22 694.51 354.22C699.91 354.22 704.92 352.11 708.52 348.51C709.22 347.88 709.69 346.94 709.69 346C709.69 344.2 708.12 342.63 706.32 342.63C705.3 342.63 704.36 343.26 703.66 343.96C701.39 346.39 698.02 347.48 694.5 347.48C687.77 347.48 682.29 342.87 681.12 336.45H711.33C711.33 336.45 711.37 336.45 711.39 336.45H711.48C711.54 336.45 711.59 336.43 711.65 336.42C711.77 336.4 711.88 336.39 711.99 336.35C713.42 335.97 714.61 334.6 714.61 332.85H714.63ZM694.52 320.48C700.59 320.48 705.63 324.38 707.35 329.8H681.6C683.32 324.37 688.37 320.48 694.51 320.48H694.52Z" fill="#4D1AA4"/>
<path d="M834.84 332.85C834.68 322.59 825.52 313.83 814.72 313.83C803.92 313.83 794.44 322.83 794.44 333.95C794.44 345.07 803.45 354.22 814.72 354.22C820.12 354.22 825.13 352.11 828.73 348.51C829.44 347.88 829.9 346.94 829.9 346C829.9 344.2 828.34 342.63 826.54 342.63C825.52 342.63 824.58 343.26 823.88 343.96C821.61 346.39 818.24 347.48 814.72 347.48C807.99 347.48 802.51 342.87 801.33 336.45H831.49C831.49 336.45 831.53 336.45 831.55 336.45H831.7C831.79 336.45 831.88 336.41 831.97 336.4C832.01 336.39 832.06 336.39 832.11 336.37C833.58 336.03 834.84 334.64 834.84 332.85ZM814.72 320.48C820.79 320.48 825.83 324.38 827.56 329.8H801.81C803.53 324.37 808.58 320.48 814.73 320.48H814.72Z" fill="#4D1AA4"/>
<path d="M694.52 254.37C683.25 254.37 674.24 263.37 674.24 274.49C674.24 285.61 683.25 294.76 694.52 294.76C699.92 294.76 704.93 292.65 708.53 289.05C709.24 288.42 709.7 287.49 709.7 286.55C709.7 284.75 708.14 283.18 706.34 283.18C705.32 283.18 704.38 283.81 703.68 284.51C701.41 286.93 698.04 288.03 694.52 288.03C687.79 288.03 682.31 283.42 681.13 277H711.29C711.29 277 711.33 277 711.35 277H711.49C711.58 277 711.67 276.96 711.76 276.95C711.81 276.94 711.85 276.94 711.9 276.92C713.37 276.58 714.63 275.19 714.63 273.4C714.47 263.14 705.31 254.38 694.51 254.38L694.52 254.37ZM681.6 270.34C683.32 264.91 688.37 261.02 694.52 261.02C700.67 261.02 705.63 264.92 707.36 270.34H681.61H681.6Z" fill="#4D1AA4"/>
<path d="M776.02 254.68C774.22 254.68 772.66 256.17 772.66 257.89V259.54C769.06 256.33 764.36 254.37 759.19 254.37C747.92 254.37 738.92 263.37 738.92 274.49C738.92 285.61 747.92 294.76 759.19 294.76C764.36 294.76 769.06 292.8 772.66 289.59V291.24C772.66 292.96 774.22 294.45 776.02 294.45C777.67 294.45 779.31 292.96 779.31 291.24V257.89C779.31 256.17 777.67 254.68 776.02 254.68ZM759.19 288.03C751.6 288.03 745.65 282.08 745.65 274.49C745.65 266.9 751.6 261.03 759.19 261.03C766.78 261.03 772.66 266.98 772.66 274.49C772.66 282 766.71 288.03 759.19 288.03Z" fill="#4D1AA4"/>
<path d="M849.99 254.68C848.19 254.68 846.63 256.17 846.63 257.89V259.54C843.03 256.33 838.33 254.37 833.16 254.37C821.89 254.37 812.89 263.37 812.89 274.49C812.89 285.61 821.89 294.76 833.16 294.76C838.33 294.76 843.03 292.8 846.63 289.59V291.24C846.63 292.96 848.19 294.45 849.99 294.45C851.64 294.45 853.28 292.96 853.28 291.24V257.89C853.28 256.17 851.64 254.68 849.99 254.68ZM833.16 288.03C825.57 288.03 819.62 282.08 819.62 274.49C819.62 266.9 825.57 261.03 833.16 261.03C840.75 261.03 846.63 266.98 846.63 274.49C846.63 282 840.68 288.03 833.16 288.03Z" fill="#4D1AA4"/>
<path d="M736.7 254.37C732.86 254.45 729.34 255.62 726.6 257.74C726.52 256.1 724.88 254.69 723.31 254.69C721.51 254.69 719.94 256.18 719.94 257.9V291.25C719.94 292.97 721.5 294.46 723.31 294.46C724.95 294.46 726.6 292.97 726.6 291.25V270.97C726.6 263.14 731.45 261.26 736.7 261.11C738.74 261.11 740.38 259.46 740.38 257.67C740.38 256.03 738.82 254.38 736.7 254.38V254.37Z" fill="#4D1AA4"/>
<path fill-rule="evenodd" clip-rule="evenodd" d="M664.01 273.67C661.53 272.31 658.99 271.06 656.52 269.68C655.52 269.12 654.55 268.44 653.75 267.62C651.86 265.7 652.17 262.88 654.38 261.64C655.05 261.26 655.86 261.04 656.63 260.94C658.92 260.63 661.01 261.24 663.02 262.38C664.02 262.95 665.15 263.38 666.28 263.61C667.46 263.86 668.49 263.31 669.22 262.33C669.93 261.36 669.93 260.27 669.34 259.3C668.86 258.52 668.23 257.78 667.5 257.23C664.7 255.13 661.48 254.25 658.01 254.15C655.47 254.19 653.05 254.72 650.81 255.96C645.98 258.65 644.1 263.87 646.17 268.95C647.18 271.42 649.03 273.18 651.31 274.46C653.32 275.59 655.41 276.57 657.47 277.61C659.19 278.48 660.87 279.42 662.22 280.84C663.89 282.58 664.24 284.58 663.14 286.21C662.32 287.43 661.07 287.96 659.67 288.19C656.91 288.64 654.4 287.94 652.04 286.49C651.23 285.99 650.39 285.47 649.5 285.13C646.95 284.16 644.59 286.03 645.07 288.58C645.29 289.71 646 290.55 646.85 291.28C651.27 295.1 659.29 296.06 664.6 293.4C670.31 290.54 672.31 284.43 669.36 278.75C668.17 276.44 666.21 274.88 663.99 273.66L664.01 273.67Z" fill="#4D1AA4"/>
<path fill-rule="evenodd" clip-rule="evenodd" d="M803.16 273.67C800.68 272.31 798.14 271.06 795.67 269.68C794.67 269.12 793.7 268.44 792.9 267.62C791.01 265.7 791.32 262.88 793.53 261.64C794.2 261.26 795.01 261.04 795.78 260.94C798.07 260.63 800.16 261.24 802.17 262.38C803.17 262.95 804.3 263.38 805.43 263.61C806.61 263.86 807.64 263.31 808.37 262.33C809.08 261.36 809.08 260.27 808.49 259.3C808.01 258.52 807.38 257.78 806.65 257.23C803.85 255.13 800.63 254.25 797.16 254.15C794.62 254.19 792.2 254.72 789.96 255.96C785.13 258.65 783.25 263.87 785.32 268.95C786.33 271.42 788.18 273.18 790.46 274.46C792.47 275.59 794.56 276.57 796.62 277.61C798.34 278.48 800.02 279.42 801.37 280.84C803.04 282.58 803.39 284.58 802.29 286.21C801.47 287.43 800.22 287.96 798.82 288.19C796.06 288.64 793.55 287.94 791.19 286.49C790.38 285.99 789.54 285.47 788.65 285.13C786.1 284.16 783.74 286.03 784.22 288.58C784.44 289.71 785.15 290.55 786 291.28C790.42 295.1 798.44 296.06 803.75 293.4C809.46 290.54 811.46 284.43 808.51 278.75C807.32 276.44 805.36 274.88 803.14 273.66L803.16 273.67Z" fill="#4D1AA4"/>
<path d="M0.350006 146L12.71 125.21C13.43 123.99 15.04 123.65 16.21 124.45C29.77 133.81 40.9 137.57 54.01 137.61C68.59 137.65 77.46 131.96 77.49 122.31C77.51 112.66 71.22 107.92 49.97 101.96C17.48 93.0101 5.10001 80.9701 5.16001 58.5201C5.23001 32.7201 26.55 15.4501 57.47 15.5301C74.75 15.5801 89.16 19.3701 103.42 27.9601C104.58 28.6601 104.95 30.1501 104.27 31.3101L92.07 51.9501C91.4 53.0901 89.93 53.4801 88.77 52.8401C77.52 46.5701 68.18 43.9201 57.78 43.9001C44.38 43.8601 36.3 48.7701 36.28 57.0401C36.26 65.1101 41.97 69.0701 63.81 75.8201C94.71 85.3501 108.66 99.3701 108.6 121.03C108.53 148 86.62 166.07 53.92 165.98C34.62 165.93 15.9 159.89 1.03001 149.26C-0.00999439 148.52 -0.309994 147.11 0.350006 146.01V146Z" fill="#4D1AA4"/>
<path d="M210.82 49.41L233.11 49.47C234.46 49.47 235.56 50.57 235.55 51.92L235.26 162.03C235.26 163.38 234.16 164.48 232.81 164.47L210.52 164.42C209.17 164.42 208.08 163.32 208.08 161.97L208.11 150.83C199.42 159.86 187 166.33 172.22 166.29C140.9 166.21 115.36 140.15 115.45 106.67C115.54 73 141.21 47.27 172.52 47.35C187.29 47.39 199.68 53.91 208.33 63L208.36 51.86C208.36 50.51 209.46 49.41 210.81 49.42L210.82 49.41ZM206.25 106.9C206.29 89.17 193.13 76.15 175.8 76.1C158.47 76.06 145.24 89.02 145.19 106.74C145.15 124.46 158.31 137.49 175.64 137.54C192.97 137.58 206.2 124.42 206.25 106.9Z" fill="#4D1AA4"/>
<path d="M391.31 49.51L413.6 49.57C414.95 49.57 416.05 50.67 416.04 52.02L415.75 162.13C415.75 163.48 414.65 164.58 413.3 164.57L391.01 164.52C389.66 164.52 388.56 163.42 388.57 162.07L388.6 150.93C379.91 159.96 367.49 166.43 352.71 166.39C321.39 166.31 295.86 140.25 295.94 106.77C296.03 73.1 321.7 47.37 353.02 47.45C367.79 47.49 380.18 54.01 388.82 63.1L388.85 51.96C388.85 50.61 389.95 49.51 391.3 49.52L391.31 49.51ZM386.74 107.35C386.79 89.63 373.62 76.6 356.29 76.55C338.96 76.51 325.73 89.47 325.68 107.19C325.64 124.91 338.8 137.94 356.13 137.99C373.46 138.03 386.69 124.88 386.74 107.35Z" fill="#4D1AA4"/>
<path d="M498.4 51.4L498.34 76.19C498.34 77.66 497.04 78.8 495.58 78.6C492.77 78.23 490.03 77.99 487.5 77.99C468.79 77.94 459.3 89.14 459.26 106.27L459.11 162.11C459.11 163.46 458.01 164.55 456.66 164.55L432.2 164.49C430.85 164.49 429.76 163.39 429.76 162.04L430.05 51.93C430.05 50.58 431.15 49.48 432.5 49.49L452.59 49.54C453.79 49.54 454.82 50.42 455 51.61L457 64.32C465.69 54.69 477.33 48.62 491.31 48.65C492.96 48.65 494.59 48.75 496.24 48.95C497.47 49.1 498.4 50.15 498.4 51.39V51.4Z" fill="#4D1AA4"/>
<path d="M538.69 161L551.25 134.36L511.85 52.93C511.06 51.3 512.25 49.42 514.06 49.42L541.84 49.49C542.81 49.49 543.69 50.07 544.08 50.96L566.51 102.69L588.42 51.1C588.8 50.2 589.69 49.61 590.68 49.61L617.4 49.68C619.17 49.68 620.35 51.51 619.63 53.12L570.42 163.1C570.02 163.98 569.15 164.55 568.18 164.55L540.92 164.48C539.13 164.48 537.95 162.61 538.71 160.99L538.69 161Z" fill="#4D1AA4"/>
<path d="M276.46 4.28009L251.98 4.22009C250.63 4.22009 249.53 5.31009 249.53 6.66009L249.12 161.97C249.12 163.32 250.21 164.42 251.56 164.42L276.04 164.48C277.39 164.48 278.49 163.39 278.49 162.04L278.9 6.73009C278.9 5.38009 277.81 4.28009 276.46 4.28009Z" fill="#4D1AA4"/>
<path d="M723.38 48.37H662.93V81.18H712.05C713.4 81.18 714.5 82.27 714.5 83.63V107.64C714.5 108.99 713.4 110.08 712.05 110.08H662.93V162.12C662.93 163.47 661.84 164.56 660.49 164.56H635.3C633.95 164.56 632.85 163.47 632.85 162.12V21.72C632.85 20.37 633.95 19.27 635.3 19.27H723.38C724.73 19.27 725.83 20.36 725.83 21.72V45.93C725.83 47.28 724.74 48.38 723.38 48.38V48.37Z" fill="#4D1AA4"/>
<path d="M734.86 17.91C734.86 8.53004 742.48 0.920044 751.86 0.920044C761.24 0.920044 769.05 8.54004 769.05 17.91C769.05 27.28 761.43 34.7 751.86 34.7C742.29 34.7 734.86 27.08 734.86 17.91ZM737.4 162.12V52.96C737.4 51.61 738.5 50.51 739.85 50.51H764.06C765.41 50.51 766.51 51.6 766.51 52.96V162.11C766.51 163.46 765.42 164.56 764.06 164.56H739.85C738.5 164.56 737.4 163.47 737.4 162.11V162.12Z" fill="#4D1AA4"/>
<path d="M867.49 150.23L877.71 131.56C878.35 130.39 879.82 129.95 881.01 130.58C890.47 135.58 902.27 138.78 911.71 138.78C924.4 138.78 931.05 135.46 931.05 128.82C931.05 122.96 925.58 119.44 911.33 116.91C883.01 111.63 870.7 100.7 870.7 80.98C870.7 61.26 888.67 46.61 915.82 46.61C930.94 46.61 942.23 49.05 954.79 55.4C956.02 56.02 956.5 57.55 955.83 58.76L945.28 77.93C944.65 79.08 943.22 79.52 942.05 78.94C932.25 74.09 925.32 72.4 915.83 72.58C905.67 72.78 899.82 75.7 899.82 80.98C899.82 86.84 904.7 89.77 919.94 92.89C947.67 98.75 960.18 109.88 960.18 128.82C960.18 150.89 941.43 164.55 911.74 164.55C895.86 164.55 880.15 160.53 868.42 153.49C867.29 152.82 866.91 151.37 867.54 150.22H867.52L867.49 150.23Z" fill="#4D1AA4"/>
<path d="M849.22 137.79H844.04C836.53 137.79 828.85 134.73 828.85 122.53V75.32H856.88C858.23 75.32 859.33 74.23 859.33 72.87V51.01C859.33 49.66 858.24 48.56 856.88 48.56H829.05V27.66C829.05 26.14 827.67 24.98 826.17 25.25L801.76 29.64C800.59 29.85 799.75 30.86 799.75 32.05V48.56H785.79C784.44 48.56 783.34 49.65 783.34 51.01V72.87C783.34 74.22 784.43 75.32 785.79 75.32H799.75L799.55 126.48C799.55 150.11 807.65 164.56 831.67 164.56C836.58 164.56 841.9 164.54 846.43 164.54C847.77 164.54 848.85 163.46 848.87 162.13L849.21 137.79H849.22Z" fill="#4D1AA4"/>
</g>
<defs>
<clipPath id="clip0_4353_2414">
<rect width="960.15" height="368.64" fill="white" transform="translate(0 0.920044)"/>
</clipPath>
</defs>
</svg>
