<svg width="961" height="369" viewBox="0 0 961 369" fill="none" xmlns="http://www.w3.org/2000/svg">
<g clip-path="url(#clip0_4353_2234)">
<path d="M334.74 274.375H311.55L306.29 288.685H301.77L321.1 237.615H325.21L344.54 288.685H340.05L334.75 274.375H334.74ZM312.89 270.695H333.38L323.14 242.875L312.9 270.695H312.89Z" fill="#65666A"/>
<path d="M399.04 270.095C399.04 272.945 398.72 275.555 398.07 277.915C397.42 280.275 396.49 282.305 395.25 284.005C394.01 285.705 392.5 287.025 390.71 287.965C388.92 288.915 386.88 289.385 384.59 289.385C381.88 289.385 379.53 288.895 377.56 287.925C375.59 286.955 373.95 285.615 372.67 283.905V303.265H368.5V250.715H372.39L372.6 256.085C373.89 254.195 375.51 252.705 377.48 251.635C379.45 250.565 381.78 250.025 384.5 250.025C386.82 250.025 388.88 250.485 390.69 251.395C392.5 252.305 394.03 253.605 395.27 255.285C396.51 256.965 397.45 258.995 398.09 261.375C398.73 263.755 399.06 266.405 399.06 269.355V270.095H399.04ZM394.83 269.365C394.83 267.165 394.6 265.115 394.15 263.195C393.69 261.275 393 259.615 392.08 258.215C391.16 256.815 389.98 255.705 388.55 254.905C387.12 254.095 385.45 253.695 383.53 253.695C382.01 253.695 380.66 253.895 379.5 254.295C378.33 254.695 377.31 255.225 376.43 255.895C375.55 256.565 374.8 257.335 374.19 258.205C373.58 259.075 373.06 260.005 372.66 260.955V279.155C373.1 280.115 373.66 281.005 374.33 281.825C375 282.645 375.78 283.355 376.68 283.945C377.58 284.535 378.6 285.005 379.75 285.345C380.9 285.685 382.18 285.855 383.61 285.855C385.53 285.855 387.19 285.455 388.59 284.645C389.99 283.835 391.16 282.725 392.08 281.315C393 279.905 393.69 278.235 394.15 276.315C394.61 274.395 394.83 272.325 394.83 270.105V269.365Z" fill="#65666A"/>
<path d="M432.29 288.695C432.06 288.045 431.87 287.235 431.75 286.295C431.62 285.345 431.53 284.385 431.49 283.405C430.86 284.225 430.11 284.995 429.25 285.715C428.38 286.445 427.41 287.075 426.34 287.605C425.26 288.145 424.08 288.575 422.8 288.905C421.51 289.235 420.12 289.395 418.63 289.395C416.78 289.395 415.1 289.125 413.6 288.585C412.09 288.045 410.81 287.295 409.74 286.325C408.68 285.355 407.85 284.215 407.27 282.905C406.69 281.595 406.39 280.165 406.39 278.625C406.39 276.775 406.79 275.115 407.58 273.625C408.37 272.145 409.52 270.875 411.02 269.835C412.52 268.795 414.33 267.995 416.47 267.445C418.61 266.895 421.01 266.625 423.68 266.625H431.47V262.315C431.47 259.605 430.63 257.465 428.96 255.915C427.29 254.355 424.85 253.585 421.65 253.585C420.18 253.585 418.82 253.785 417.58 254.185C416.34 254.585 415.27 255.135 414.37 255.835C413.47 256.535 412.77 257.345 412.27 258.275C411.77 259.195 411.51 260.185 411.51 261.235L407.3 261.205C407.3 259.775 407.65 258.395 408.35 257.065C409.05 255.735 410.04 254.545 411.31 253.505C412.58 252.465 414.12 251.625 415.9 250.995C417.69 250.365 419.67 250.045 421.85 250.045C423.86 250.045 425.71 250.305 427.41 250.815C429.1 251.325 430.56 252.105 431.78 253.125C432.99 254.155 433.94 255.445 434.62 256.985C435.3 258.525 435.64 260.325 435.64 262.385V280.765C435.64 281.425 435.66 282.095 435.71 282.805C435.76 283.515 435.83 284.185 435.94 284.845C436.04 285.495 436.17 286.125 436.31 286.725C436.45 287.325 436.61 287.845 436.8 288.285V288.705H432.31L432.29 288.695ZM419.11 285.675C420.63 285.675 422.04 285.485 423.34 285.095C424.64 284.705 425.81 284.175 426.86 283.495C427.91 282.815 428.83 282.025 429.6 281.125C430.37 280.225 430.99 279.245 431.46 278.195V269.845H424.27C422.12 269.845 420.19 270.035 418.5 270.425C416.8 270.815 415.37 271.365 414.2 272.095C413.03 272.825 412.14 273.705 411.52 274.745C410.9 275.785 410.59 276.965 410.59 278.275C410.59 279.305 410.79 280.265 411.19 281.165C411.59 282.065 412.15 282.845 412.89 283.515C413.63 284.185 414.52 284.705 415.57 285.095C416.62 285.485 417.8 285.675 419.11 285.675Z" fill="#65666A"/>
<path d="M464.36 254.315C463.47 254.155 462.52 254.065 461.52 254.065C460.09 254.065 458.81 254.275 457.66 254.695C456.51 255.115 455.5 255.705 454.63 256.465C453.75 257.225 453.02 258.125 452.42 259.165C451.82 260.205 451.35 261.355 451 262.615V288.675H446.83V250.725H450.93L451 256.755C452.03 254.675 453.43 253.035 455.19 251.825C456.96 250.625 459.12 250.015 461.7 250.015C462.21 250.015 462.74 250.065 463.28 250.155C463.82 250.245 464.21 250.355 464.47 250.475L464.37 254.295L464.36 254.315Z" fill="#65666A"/>
<path d="M479.27 241.015V250.735H487.13V254.175H479.27V279.465C479.27 280.795 479.4 281.865 479.67 282.675C479.94 283.485 480.3 284.115 480.76 284.565C481.22 285.025 481.74 285.325 482.34 285.475C482.94 285.625 483.56 285.705 484.22 285.705C484.88 285.705 485.46 285.665 486.04 285.585C486.62 285.505 487.15 285.425 487.62 285.355L487.8 288.795C487.29 288.985 486.61 289.125 485.78 289.235C484.95 289.345 484.13 289.395 483.31 289.395C482.12 289.395 481.01 289.235 480 288.925C478.98 288.605 478.11 288.065 477.39 287.295C476.67 286.525 476.1 285.505 475.69 284.225C475.28 282.955 475.08 281.365 475.08 279.475V254.185H468.1V250.745H475.08V241.025H479.29L479.27 241.015Z" fill="#65666A"/>
<path d="M510.98 269.155C510.98 266.395 511.38 263.845 512.19 261.505C513 259.165 514.14 257.155 515.61 255.455C517.08 253.755 518.86 252.435 520.94 251.475C523.02 250.515 525.34 250.035 527.89 250.035C530.44 250.035 532.83 250.515 534.92 251.475C537.01 252.435 538.8 253.765 540.27 255.455C541.74 257.145 542.88 259.165 543.67 261.505C544.46 263.845 544.86 266.395 544.86 269.155V270.315C544.86 273.075 544.46 275.625 543.67 277.965C542.88 280.305 541.74 282.315 540.27 284.015C538.8 285.715 537.02 287.035 534.94 287.975C532.86 288.925 530.53 289.395 527.96 289.395C525.39 289.395 523.06 288.925 520.98 287.975C518.9 287.025 517.11 285.705 515.63 284.015C514.15 282.315 513 280.305 512.19 277.965C511.38 275.625 510.98 273.075 510.98 270.315V269.155ZM515.18 270.305C515.18 272.385 515.46 274.365 516.02 276.255C516.58 278.135 517.4 279.785 518.48 281.205C519.55 282.615 520.89 283.745 522.48 284.585C524.07 285.425 525.89 285.845 527.95 285.845C530.01 285.845 531.83 285.425 533.4 284.585C534.98 283.745 536.31 282.615 537.38 281.205C538.46 279.795 539.28 278.145 539.84 276.255C540.4 274.375 540.68 272.395 540.68 270.305V269.145C540.68 267.105 540.4 265.155 539.84 263.265C539.28 261.385 538.46 259.725 537.38 258.305C536.31 256.875 534.97 255.735 533.36 254.885C531.76 254.035 529.93 253.605 527.87 253.605C525.81 253.605 524.03 254.035 522.45 254.885C520.87 255.735 519.54 256.875 518.47 258.305C517.39 259.735 516.58 261.385 516.01 263.265C515.45 265.145 515.17 267.105 515.17 269.145V270.305H515.18Z" fill="#65666A"/>
<path d="M556.54 288.695V254.175H550.26V250.735H556.54V246.035C556.54 244.115 556.8 242.415 557.31 240.915C557.82 239.415 558.57 238.165 559.54 237.165C560.51 236.155 561.68 235.395 563.07 234.865C564.45 234.335 566.02 234.075 567.77 234.075C568.49 234.075 569.24 234.125 570 234.215C570.76 234.305 571.5 234.465 572.23 234.675L571.91 238.185C571.32 238.045 570.74 237.935 570.14 237.865C569.54 237.795 568.86 237.765 568.09 237.765C565.78 237.765 563.97 238.485 562.69 239.925C561.4 241.365 560.76 243.405 560.76 246.045V250.745H569.81V254.185H560.76V288.705H556.55L556.54 288.695Z" fill="#65666A"/>
<path d="M660.91 239.045H648.43C644.71 239.045 641.71 236.035 641.71 232.325V219.845C641.71 216.135 644.71 213.125 648.43 213.125H660.91C664.62 213.125 667.63 216.135 667.63 219.845V232.325C667.63 236.035 664.62 239.045 660.91 239.045Z" fill="#65666A"/>
<path d="M628.61 267.025H614.57C610.4 267.025 607.01 263.645 607.01 259.475V245.425C607.01 241.255 610.39 237.865 614.57 237.865H628.61C632.78 237.865 636.17 241.255 636.17 245.425V259.475C636.17 263.655 632.79 267.025 628.61 267.025Z" fill="#65666A"/>
<path d="M627.27 296.175H618.69C616.14 296.175 614.07 294.115 614.07 291.555V282.985C614.07 280.425 616.14 278.355 618.69 278.355H627.27C629.82 278.355 631.89 280.425 631.89 282.985V291.555C631.89 294.105 629.82 296.175 627.27 296.175Z" fill="#65666A"/>
<path d="M650.3 323.275H640.16C637.15 323.275 634.7 320.835 634.7 317.815V307.675C634.7 304.655 637.14 302.215 640.16 302.215H650.3C653.31 302.215 655.76 304.655 655.76 307.675V317.815C655.76 320.835 653.32 323.275 650.3 323.275Z" fill="#65666A"/>
<path d="M687.47 244.145H680.44C678.35 244.145 676.66 242.445 676.66 240.365V233.345C676.66 231.255 678.35 229.565 680.44 229.565H687.47C689.56 229.565 691.24 231.265 691.24 233.345V240.365C691.24 242.445 689.55 244.145 687.47 244.145Z" fill="#65666A"/>
<path d="M870.4 308.295C872.63 308.295 874.44 306.485 874.44 304.245C874.44 302.005 872.63 300.195 870.4 300.195C868.17 300.195 866.34 302.015 866.34 304.245C866.34 306.475 868.16 308.295 870.4 308.295Z" fill="#65666A"/>
<path d="M722.59 351.485C721.96 352.425 720.95 352.895 719.85 352.895C719.23 352.895 718.52 352.735 717.97 352.425C717.11 351.875 716.48 350.705 716.48 349.525C716.48 348.975 716.64 348.425 716.95 347.955L726.34 333.165L716.95 318.375C716.64 317.905 716.48 317.275 716.48 316.725C716.48 315.635 717.03 314.455 718.05 313.905C718.6 313.595 719.15 313.435 719.77 313.435C720.87 313.435 721.96 313.905 722.59 314.845L730.26 326.975L738.01 314.845C738.64 313.905 739.73 313.435 740.83 313.435C741.46 313.435 742 313.595 742.55 313.905C743.57 314.455 744.11 315.625 744.11 316.725C744.11 317.275 743.95 317.905 743.64 318.375L734.25 333.165L743.64 347.955C743.95 348.425 744.11 348.975 744.11 349.525C744.11 350.695 743.48 351.875 742.62 352.425C742.07 352.735 741.37 352.895 740.74 352.895C739.65 352.895 738.63 352.425 738 351.485L730.25 339.435L722.58 351.485H722.59Z" fill="#65666A"/>
<path d="M756.08 318.065C759.6 314.855 764.38 312.895 769.54 312.895C780.81 312.895 789.81 321.895 789.81 333.165C789.81 344.435 780.81 353.285 769.54 353.285C764.37 353.285 759.6 351.325 756.08 348.115V365.415C756.08 367.135 754.52 368.625 752.72 368.625C751.07 368.625 749.43 367.135 749.43 365.415V316.415C749.43 314.695 751.07 313.205 752.72 313.205C754.52 313.205 756.08 314.695 756.08 316.415V318.055V318.065ZM769.54 319.635C762.02 319.635 756.08 325.585 756.08 333.175C756.08 340.765 762.03 346.635 769.54 346.635C777.05 346.635 783.08 340.685 783.08 333.175C783.08 325.665 777.13 319.635 769.54 319.635Z" fill="#65666A"/>
<path d="M847.12 329.495V349.765C847.12 351.485 845.47 352.975 843.83 352.975C842.03 352.975 840.46 351.485 840.46 349.765V316.415C840.46 314.695 842.02 313.205 843.83 313.205C845.4 313.205 847.04 314.615 847.12 316.255C849.86 314.145 853.38 312.965 857.22 312.885C859.33 312.885 860.9 314.525 860.9 316.175C860.9 317.975 859.26 319.615 857.22 319.615C851.98 319.775 847.12 321.655 847.12 329.475V329.495Z" fill="#65666A"/>
<path d="M870.45 313.215C868.65 313.215 867.09 314.705 867.09 316.425V349.775C867.09 351.495 868.65 352.985 870.45 352.985C872.1 352.985 873.74 351.495 873.74 349.775V316.425C873.74 314.705 872.1 313.215 870.45 313.215Z" fill="#65666A"/>
<path d="M912.95 316.425C912.95 314.705 914.51 313.215 916.31 313.215C917.96 313.215 919.6 314.705 919.6 316.425V349.775C919.6 351.495 917.96 352.985 916.31 352.985C914.51 352.985 912.95 351.495 912.95 349.775V348.135C909.35 351.345 904.65 353.305 899.48 353.305C888.21 353.305 879.21 344.305 879.21 333.035C879.21 321.765 888.21 312.915 899.48 312.915C904.65 312.915 909.35 314.875 912.95 318.085V316.435V316.425ZM899.49 346.555C907.01 346.555 912.96 340.605 912.96 333.015C912.96 325.425 907.01 319.555 899.49 319.555C891.97 319.555 885.95 325.505 885.95 333.015C885.95 340.525 891.9 346.555 899.49 346.555Z" fill="#65666A"/>
<path d="M953.5 329.885C953.5 324.325 948.65 319.475 943.09 319.475C937.53 319.475 932.68 321.665 932.68 329.495V349.765C932.68 351.485 931.04 352.975 929.39 352.975C927.59 352.975 926.03 351.485 926.03 349.765V316.415C926.03 314.695 927.59 313.205 929.39 313.205C930.96 313.205 932.6 314.615 932.68 316.255C935.5 314.065 939.1 312.885 943.01 312.885C952.09 312.885 960.15 320.005 960.15 328.935V349.755C960.15 351.475 958.51 352.965 956.86 352.965C955.06 352.965 953.49 351.475 953.49 349.755V329.875L953.5 329.885Z" fill="#65666A"/>
<path d="M714.63 331.925C714.47 321.665 705.32 312.905 694.51 312.905C683.7 312.905 674.24 321.905 674.24 333.025C674.24 344.145 683.24 353.295 694.51 353.295C699.91 353.295 704.92 351.185 708.52 347.585C709.22 346.955 709.69 346.015 709.69 345.075C709.69 343.275 708.12 341.705 706.32 341.705C705.3 341.705 704.36 342.335 703.66 343.035C701.39 345.465 698.02 346.555 694.5 346.555C687.77 346.555 682.29 341.945 681.12 335.525H711.33C711.33 335.525 711.37 335.525 711.39 335.525H711.48C711.54 335.525 711.59 335.505 711.65 335.495C711.77 335.475 711.88 335.465 711.99 335.425C713.42 335.045 714.61 333.675 714.61 331.925H714.63ZM694.52 319.555C700.59 319.555 705.63 323.455 707.35 328.875H681.6C683.32 323.445 688.37 319.555 694.51 319.555H694.52Z" fill="#65666A"/>
<path d="M834.84 331.925C834.68 321.665 825.52 312.905 814.72 312.905C803.92 312.905 794.44 321.905 794.44 333.025C794.44 344.145 803.45 353.295 814.72 353.295C820.12 353.295 825.13 351.185 828.73 347.585C829.44 346.955 829.9 346.015 829.9 345.075C829.9 343.275 828.34 341.705 826.54 341.705C825.52 341.705 824.58 342.335 823.88 343.035C821.61 345.465 818.24 346.555 814.72 346.555C807.99 346.555 802.51 341.945 801.33 335.525H831.49C831.49 335.525 831.53 335.525 831.55 335.525H831.7C831.79 335.525 831.88 335.485 831.97 335.475C832.01 335.465 832.06 335.465 832.11 335.445C833.58 335.105 834.84 333.715 834.84 331.925ZM814.72 319.555C820.79 319.555 825.83 323.455 827.56 328.875H801.81C803.53 323.445 808.58 319.555 814.73 319.555H814.72Z" fill="#65666A"/>
<path d="M694.52 253.445C683.25 253.445 674.24 262.445 674.24 273.565C674.24 284.685 683.25 293.835 694.52 293.835C699.92 293.835 704.93 291.725 708.53 288.125C709.24 287.495 709.7 286.565 709.7 285.625C709.7 283.825 708.14 282.255 706.34 282.255C705.32 282.255 704.38 282.885 703.68 283.585C701.41 286.005 698.04 287.105 694.52 287.105C687.79 287.105 682.31 282.495 681.13 276.075H711.29C711.29 276.075 711.33 276.075 711.35 276.075H711.49C711.58 276.075 711.67 276.035 711.76 276.025C711.81 276.015 711.85 276.015 711.9 275.995C713.37 275.655 714.63 274.265 714.63 272.475C714.47 262.215 705.31 253.455 694.51 253.455L694.52 253.445ZM681.6 269.415C683.32 263.985 688.37 260.095 694.52 260.095C700.67 260.095 705.63 263.995 707.36 269.415H681.61H681.6Z" fill="#65666A"/>
<path d="M776.02 253.755C774.22 253.755 772.66 255.245 772.66 256.965V258.615C769.06 255.405 764.36 253.445 759.19 253.445C747.92 253.445 738.92 262.445 738.92 273.565C738.92 284.685 747.92 293.835 759.19 293.835C764.36 293.835 769.06 291.875 772.66 288.665V290.315C772.66 292.035 774.22 293.525 776.02 293.525C777.67 293.525 779.31 292.035 779.31 290.315V256.965C779.31 255.245 777.67 253.755 776.02 253.755ZM759.19 287.105C751.6 287.105 745.65 281.155 745.65 273.565C745.65 265.975 751.6 260.105 759.19 260.105C766.78 260.105 772.66 266.055 772.66 273.565C772.66 281.075 766.71 287.105 759.19 287.105Z" fill="#65666A"/>
<path d="M849.99 253.755C848.19 253.755 846.63 255.245 846.63 256.965V258.615C843.03 255.405 838.33 253.445 833.16 253.445C821.89 253.445 812.89 262.445 812.89 273.565C812.89 284.685 821.89 293.835 833.16 293.835C838.33 293.835 843.03 291.875 846.63 288.665V290.315C846.63 292.035 848.19 293.525 849.99 293.525C851.64 293.525 853.28 292.035 853.28 290.315V256.965C853.28 255.245 851.64 253.755 849.99 253.755ZM833.16 287.105C825.57 287.105 819.62 281.155 819.62 273.565C819.62 265.975 825.57 260.105 833.16 260.105C840.75 260.105 846.63 266.055 846.63 273.565C846.63 281.075 840.68 287.105 833.16 287.105Z" fill="#65666A"/>
<path d="M736.7 253.445C732.86 253.525 729.34 254.695 726.6 256.815C726.52 255.175 724.88 253.765 723.31 253.765C721.51 253.765 719.94 255.255 719.94 256.975V290.325C719.94 292.045 721.5 293.535 723.31 293.535C724.95 293.535 726.6 292.045 726.6 290.325V270.045C726.6 262.215 731.45 260.335 736.7 260.185C738.74 260.185 740.38 258.535 740.38 256.745C740.38 255.105 738.82 253.455 736.7 253.455V253.445Z" fill="#65666A"/>
<path fill-rule="evenodd" clip-rule="evenodd" d="M664.01 272.745C661.53 271.385 658.99 270.135 656.52 268.755C655.52 268.195 654.55 267.515 653.75 266.695C651.86 264.775 652.17 261.955 654.38 260.715C655.05 260.335 655.86 260.115 656.63 260.015C658.92 259.705 661.01 260.315 663.02 261.455C664.02 262.025 665.15 262.455 666.28 262.685C667.46 262.935 668.49 262.385 669.22 261.405C669.93 260.435 669.93 259.345 669.34 258.375C668.86 257.595 668.23 256.855 667.5 256.305C664.7 254.205 661.48 253.325 658.01 253.225C655.47 253.265 653.05 253.795 650.81 255.035C645.98 257.725 644.1 262.945 646.17 268.025C647.18 270.495 649.03 272.255 651.31 273.535C653.32 274.665 655.41 275.645 657.47 276.685C659.19 277.555 660.87 278.495 662.22 279.915C663.89 281.655 664.24 283.655 663.14 285.285C662.32 286.505 661.07 287.035 659.67 287.265C656.91 287.715 654.4 287.015 652.04 285.565C651.23 285.065 650.39 284.545 649.5 284.205C646.95 283.235 644.59 285.105 645.07 287.655C645.29 288.785 646 289.625 646.85 290.355C651.27 294.175 659.29 295.135 664.6 292.475C670.31 289.615 672.31 283.505 669.36 277.825C668.17 275.515 666.21 273.955 663.99 272.735L664.01 272.745Z" fill="#65666A"/>
<path fill-rule="evenodd" clip-rule="evenodd" d="M803.16 272.745C800.68 271.385 798.14 270.135 795.67 268.755C794.67 268.195 793.7 267.515 792.9 266.695C791.01 264.775 791.32 261.955 793.53 260.715C794.2 260.335 795.01 260.115 795.78 260.015C798.07 259.705 800.16 260.315 802.17 261.455C803.17 262.025 804.3 262.455 805.43 262.685C806.61 262.935 807.64 262.385 808.37 261.405C809.08 260.435 809.08 259.345 808.49 258.375C808.01 257.595 807.38 256.855 806.65 256.305C803.85 254.205 800.63 253.325 797.16 253.225C794.62 253.265 792.2 253.795 789.96 255.035C785.13 257.725 783.25 262.945 785.32 268.025C786.33 270.495 788.18 272.255 790.46 273.535C792.47 274.665 794.56 275.645 796.62 276.685C798.34 277.555 800.02 278.495 801.37 279.915C803.04 281.655 803.39 283.655 802.29 285.285C801.47 286.505 800.22 287.035 798.82 287.265C796.06 287.715 793.55 287.015 791.19 285.565C790.38 285.065 789.54 284.545 788.65 284.205C786.1 283.235 783.74 285.105 784.22 287.655C784.44 288.785 785.15 289.625 786 290.355C790.42 294.175 798.44 295.135 803.75 292.475C809.46 289.615 811.46 283.505 808.51 277.825C807.32 275.515 805.36 273.955 803.14 272.735L803.16 272.745Z" fill="#65666A"/>
<path d="M0.350006 145.075L12.71 124.285C13.43 123.065 15.04 122.725 16.21 123.525C29.77 132.885 40.9 136.645 54.01 136.685C68.59 136.725 77.46 131.035 77.49 121.385C77.51 111.735 71.22 106.995 49.97 101.035C17.48 92.0847 5.10001 80.0447 5.16001 57.5947C5.23001 31.7947 26.55 14.5247 57.47 14.6047C74.75 14.6547 89.16 18.4447 103.42 27.0347C104.58 27.7347 104.95 29.2247 104.27 30.3847L92.07 51.0247C91.4 52.1647 89.93 52.5547 88.77 51.9147C77.52 45.6447 68.18 42.9947 57.78 42.9747C44.38 42.9347 36.3 47.8447 36.28 56.1147C36.26 64.1847 41.97 68.1447 63.81 74.8947C94.71 84.4247 108.66 98.4447 108.6 120.105C108.53 147.075 86.62 165.145 53.92 165.055C34.62 165.005 15.9 158.965 1.03001 148.335C-0.00999439 147.595 -0.309994 146.185 0.350006 145.085V145.075Z" fill="#4D1AA4"/>
<path d="M210.82 48.4847L233.11 48.5447C234.46 48.5447 235.56 49.6447 235.55 50.9947L235.26 161.105C235.26 162.455 234.16 163.555 232.81 163.545L210.52 163.495C209.17 163.495 208.08 162.395 208.08 161.045L208.11 149.905C199.42 158.935 187 165.405 172.22 165.365C140.9 165.285 115.36 139.225 115.45 105.745C115.54 72.0747 141.21 46.3447 172.52 46.4247C187.29 46.4647 199.68 52.9847 208.33 62.0747L208.36 50.9347C208.36 49.5847 209.46 48.4847 210.81 48.4947L210.82 48.4847ZM206.25 105.975C206.29 88.2448 193.13 75.2247 175.8 75.1747C158.47 75.1347 145.24 88.0947 145.19 105.815C145.15 123.535 158.31 136.565 175.64 136.615C192.97 136.655 206.2 123.495 206.25 105.975Z" fill="#4D1AA4"/>
<path d="M391.31 48.5848L413.6 48.6448C414.95 48.6448 416.05 49.7448 416.04 51.0948L415.75 161.205C415.75 162.555 414.65 163.655 413.3 163.645L391.01 163.595C389.66 163.595 388.56 162.495 388.57 161.145L388.6 150.005C379.91 159.035 367.49 165.505 352.71 165.465C321.39 165.385 295.86 139.325 295.94 105.845C296.03 72.1748 321.7 46.4448 353.02 46.5248C367.79 46.5648 380.18 53.0848 388.82 62.1748L388.85 51.0348C388.85 49.6848 389.95 48.5848 391.3 48.5948L391.31 48.5848ZM386.74 106.425C386.79 88.7048 373.62 75.6748 356.29 75.6248C338.96 75.5848 325.73 88.5448 325.68 106.265C325.64 123.985 338.8 137.015 356.13 137.065C373.46 137.105 386.69 123.955 386.74 106.425Z" fill="#4D1AA4"/>
<path d="M498.4 50.4748L498.34 75.2647C498.34 76.7347 497.04 77.8748 495.58 77.6748C492.77 77.3048 490.03 77.0648 487.5 77.0648C468.79 77.0148 459.3 88.2148 459.26 105.345L459.11 161.185C459.11 162.535 458.01 163.625 456.66 163.625L432.2 163.565C430.85 163.565 429.76 162.465 429.76 161.115L430.05 51.0047C430.05 49.6547 431.15 48.5548 432.5 48.5648L452.59 48.6147C453.79 48.6147 454.82 49.4947 455 50.6847L457 63.3948C465.69 53.7648 477.33 47.6948 491.31 47.7248C492.96 47.7248 494.59 47.8247 496.24 48.0247C497.47 48.1747 498.4 49.2248 498.4 50.4648V50.4748Z" fill="#4D1AA4"/>
<path d="M538.69 160.075L551.25 133.435L511.85 52.0047C511.06 50.3747 512.25 48.4948 514.06 48.4948L541.84 48.5648C542.81 48.5648 543.69 49.1448 544.08 50.0348L566.51 101.765L588.42 50.1748C588.8 49.2748 589.69 48.6847 590.68 48.6847L617.4 48.7547C619.17 48.7547 620.35 50.5848 619.63 52.1948L570.42 162.175C570.02 163.055 569.15 163.625 568.18 163.625L540.92 163.555C539.13 163.555 537.95 161.685 538.71 160.065L538.69 160.075Z" fill="#4D1AA4"/>
<path d="M276.46 3.35474L251.98 3.29474C250.63 3.29474 249.53 4.38474 249.53 5.73474L249.12 161.045C249.12 162.395 250.21 163.495 251.56 163.495L276.04 163.555C277.39 163.555 278.49 162.465 278.49 161.115L278.9 5.80474C278.9 4.45474 277.81 3.35474 276.46 3.35474Z" fill="#4D1AA4"/>
<path d="M723.38 47.4448H662.93V80.2548H712.05C713.4 80.2548 714.5 81.3448 714.5 82.7048V106.715C714.5 108.065 713.4 109.155 712.05 109.155H662.93V161.195C662.93 162.545 661.84 163.635 660.49 163.635H635.3C633.95 163.635 632.85 162.545 632.85 161.195V20.7948C632.85 19.4448 633.95 18.3448 635.3 18.3448H723.38C724.73 18.3448 725.83 19.4348 725.83 20.7948V45.0048C725.83 46.3548 724.74 47.4548 723.38 47.4548V47.4448Z" fill="#FFC70E"/>
<path d="M734.86 16.9848C734.86 7.60475 742.48 -0.00524902 751.86 -0.00524902C761.24 -0.00524902 769.05 7.61475 769.05 16.9848C769.05 26.3548 761.43 33.7747 751.86 33.7747C742.29 33.7747 734.86 26.1548 734.86 16.9848ZM737.4 161.195V52.0348C737.4 50.6848 738.5 49.5848 739.85 49.5848H764.06C765.41 49.5848 766.51 50.6748 766.51 52.0348V161.185C766.51 162.535 765.42 163.635 764.06 163.635H739.85C738.5 163.635 737.4 162.545 737.4 161.185V161.195Z" fill="#FFC70E"/>
<path d="M867.49 149.305L877.71 130.635C878.35 129.465 879.82 129.025 881.01 129.655C890.47 134.655 902.27 137.855 911.71 137.855C924.4 137.855 931.05 134.535 931.05 127.895C931.05 122.035 925.58 118.515 911.33 115.985C883.01 110.705 870.7 99.7747 870.7 80.0548C870.7 60.3348 888.67 45.6848 915.82 45.6848C930.94 45.6848 942.23 48.1248 954.79 54.4748C956.02 55.0948 956.5 56.6248 955.83 57.8348L945.28 77.0048C944.65 78.1548 943.22 78.5948 942.05 78.0148C932.25 73.1648 925.32 71.4748 915.83 71.6548C905.67 71.8548 899.82 74.7748 899.82 80.0548C899.82 85.9148 904.7 88.8448 919.94 91.9648C947.67 97.8248 960.18 108.955 960.18 127.895C960.18 149.965 941.43 163.625 911.74 163.625C895.86 163.625 880.15 159.605 868.42 152.565C867.29 151.895 866.91 150.445 867.54 149.295H867.52L867.49 149.305Z" fill="#FFC70E"/>
<path d="M849.22 136.865H844.04C836.53 136.865 828.85 133.805 828.85 121.605V74.3947H856.88C858.23 74.3947 859.33 73.3047 859.33 71.9447V50.0847C859.33 48.7347 858.24 47.6347 856.88 47.6347H829.05V26.7347C829.05 25.2147 827.67 24.0547 826.17 24.3247L801.76 28.7147C800.59 28.9247 799.75 29.9347 799.75 31.1247V47.6347H785.79C784.44 47.6347 783.34 48.7247 783.34 50.0847V71.9447C783.34 73.2947 784.43 74.3947 785.79 74.3947H799.75L799.55 125.555C799.55 149.185 807.65 163.635 831.67 163.635C836.58 163.635 841.9 163.615 846.43 163.615C847.77 163.615 848.85 162.535 848.87 161.205L849.21 136.865H849.22Z" fill="#FFC70E"/>
</g>
<defs>
<clipPath id="clip0_4353_2234">
<rect width="960.15" height="368.64" fill="white" transform="translate(0 -0.00524902)"/>
</clipPath>
</defs>
</svg>
