<svg xmlns="http://www.w3.org/2000/svg" viewBox="0 0 20 22">
  <path d="M17.729 20.481c-.859.43-4.176 1.197-7.729 1.197-3.913 0-6.765-.715-7.728-1.197-1.911-.955-1.188-2.586-.95-3.122.042-.097.085-.183.106-.259.02-.14.065-.957.107-1.747.151-2.745.306-5.298.559-6.372.362-1.535 3.135-3.339 4.728-4.264l-2.077-2.35c-.23-.257-.284-.626-.144-.939.142-.314.454-.516.798-.516.086 0 .086 0 .233-.113.231-.178.619-.477 1.299-.477.683 0 1.069.299 1.301.477.148.113.148.113.231.113.086 0 .086 0 .233-.113.231-.178.619-.477 1.301-.477.68 0 1.067.298 1.299.477.147.113.147.113.233.113.087 0 .087 0 .234-.113.233-.179.621-.477 1.301-.477.683 0 1.071.298 1.301.477.149.113.149.113.235.113.345 0 .656.202.798.517.142.313.086.681-.142.939l-2.08 2.348c1.594.925 4.372 2.73 4.732 4.266.25 1.068.405 3.608.556 6.339.042.803.089 1.634.113 1.792.017.065.061.151.104.249.236.535.956 2.164-.952 3.119zM13.064 2.072c-.085 0-.085 0-.234.114-.231.179-.619.477-1.301.477s-1.07-.299-1.303-.478c-.145-.113-.145-.113-.229-.113-.085 0-.085 0-.233.114-.232.179-.62.477-1.301.477-.68 0-1.068-.299-1.299-.478-.147-.113-.147-.113-.233-.113-.044 0-.065 0-.097.016l1.694 1.916h2.939l1.696-1.915c-.032-.017-.053-.017-.099-.017zm4.015 15.997c-.094-.213-.19-.433-.229-.669-.038-.217-.069-.765-.135-1.983-.103-1.881-.276-5.028-.512-6.035-.162-.693-2.429-2.345-4.442-3.457h-3.52C6.191 7.058 3.963 8.68 3.799 9.383c-.239 1.012-.412 4.176-.515 6.066-.066 1.196-.095 1.734-.133 1.953-.039.236-.135.455-.229.666-.284.639-.275.643.133.847.428.214 2.861 1.012 6.945 1.012 3.441 0 6.458-.768 6.946-1.012.408-.204.415-.208.133-.846zm-5.398-2.016c-.371.225-.814.36-1.323.401v1.335c0 .21-.019.364-.062.46-.041.095-.131.145-.268.145-.128 0-.221-.04-.272-.118-.051-.078-.077-.201-.077-.364v-1.447c-.417-.046-.783-.144-1.096-.295-.313-.149-.571-.335-.781-.557-.209-.224-.363-.456-.464-.697-.101-.241-.15-.479-.15-.709 0-.173.067-.328.202-.464.133-.138.299-.208.499-.208.161 0 .297.039.409.113.109.076.186.18.229.317.097.293.181.516.251.672.072.156.179.297.325.426.143.128.337.227.576.294v-2.49c-.479-.132-.879-.28-1.2-.443-.322-.162-.582-.392-.782-.691-.2-.301-.299-.686-.299-1.158 0-.614.195-1.117.585-1.511.391-.392.956-.62 1.696-.683v-.568c0-.3.111-.451.337-.451.229 0 .342.146.342.439v.58c.383.038.709.116.983.235.273.118.513.296.714.534.161.182.286.371.373.564.087.192.132.368.132.529 0 .177-.065.333-.195.464-.132.13-.291.194-.475.194-.351 0-.576-.188-.681-.567-.116-.446-.402-.742-.851-.888v2.227c.444.121.795.231 1.058.331.262.101.498.246.704.434.221.196.392.432.512.705.119.273.179.572.179.896 0 .409-.096.789-.287 1.144-.191.356-.472.646-.843.87zm-2.002-6.63c-.299.089-.535.207-.701.354-.169.147-.253.367-.253.665 0 .281.079.495.236.64.156.144.395.274.718.394V9.423zm1.523 4.073c-.191-.17-.473-.314-.844-.432v2.345c.361-.069.641-.213.836-.432.196-.216.296-.471.296-.761 0-.31-.098-.551-.288-.72z"/>
</svg>
