<svg xmlns="http://www.w3.org/2000/svg" viewBox="0 0 26 25">
  <path d="M25.349 4.773l-1.668 1.669c-.459.458-1.067.709-1.715.709-.295 0-.581-.058-.85-.159l-4.472 4.469 6.351 6.351c.727.726 1.129 1.693 1.129 2.721 0 1.029-.4 1.996-1.129 2.723-.726.727-1.693 1.127-2.722 1.127-1.028 0-1.995-.399-2.723-1.126l-4.835-4.835-4.241 4.24c-.824.826-1.891 1.3-2.924 1.3-.787 0-1.504-.284-2.02-.8-1.246-1.245-1.027-3.418.499-4.945l4.241-4.24-.288-.289c-2.081.337-4.213-.349-5.702-1.838C.464 10.033-.128 7.3.775 4.888c.119-.319.39-.555.724-.627.334-.074.678.03.918.27l2.694 2.694 1.462-.391.391-1.462-2.693-2.694c-.241-.241-.342-.587-.27-.919.072-.333.309-.605.627-.725C5.37.757 6.148.616 6.942.616c1.756 0 3.407.684 4.647 1.925 1.492 1.49 2.17 3.631 1.838 5.703l1.803 1.803 4.472-4.47c-.323-.864-.142-1.874.551-2.566l1.666-1.668c.375-.375 1.039-.376 1.414 0l2.016 2.016c.187.187.293.441.293.707 0 .265-.106.519-.293.707zM5.442 19.631c-.769.771-.88 1.735-.498 2.118.178.176.428.213.606.213.5 0 1.064-.266 1.51-.713l4.207-4.207-1.617-1.616-4.208 4.205zm6.19-10.353c-.248-.249-.348-.612-.262-.954.403-1.586-.045-3.219-1.195-4.368-.84-.842-1.951-1.314-3.137-1.339l1.748 1.749c.254.253.352.621.26.966l-.691 2.577c-.092.345-.362.615-.707.707l-2.577.69c-.345.094-.714-.006-.966-.259L2.359 7.3c.027 1.159.49 2.29 1.335 3.136 1.131 1.132 2.811 1.59 4.37 1.195.082-.021.164-.03.246-.03.261 0 .517.103.707.293l9.947 9.948c.699.697 1.918.699 2.617-.001.35-.35.543-.813.543-1.307s-.193-.959-.543-1.308l-9.949-9.948zm10.994-5.814l-.961.962c-.165.165-.163.433.001.6.001 0 .001 0 .001.001.001 0 .001.001.002.002.216.214.381.214.598-.001l.961-.962-.602-.602zm-2.5 17.685c-.461 0-.834-.373-.834-.833 0-.461.373-.834.834-.834.461 0 .834.373.834.834 0 .46-.373.833-.834.833z"/>
</svg>
