<svg xmlns="http://www.w3.org/2000/svg" viewBox="0 0 42 50">
  <path d="M38.475 46.441c-1.941.971-9.442 2.707-17.476 2.707-8.851 0-15.3-1.618-17.477-2.707C-.8 44.28.835 40.593 1.373 39.381c.096-.22.193-.415.239-.588.047-.315.147-2.163.244-3.949.34-6.208.692-11.981 1.264-14.41.818-3.471 7.089-7.55 10.692-9.642L9.113 5.478c-.518-.582-.642-1.415-.325-2.125.321-.709 1.028-1.165 1.806-1.165.194 0 .194 0 .526-.256.522-.404 1.4-1.08 2.939-1.08 1.542 0 2.416.676 2.942 1.08.332.256.332.256.522.256.193 0 .193 0 .526-.256.522-.404 1.399-1.08 2.942-1.08 1.539 0 2.413.674 2.938 1.078.333.258.333.258.527.258.197 0 .197 0 .529-.258.526-.404 1.404-1.078 2.943-1.078 1.542 0 2.42.674 2.942 1.078.336.258.336.258.53.258.781 0 1.484.456 1.805 1.167.321.71.194 1.541-.321 2.125l-4.703 5.31c3.604 2.091 9.886 6.173 10.7 9.646.565 2.416.917 8.16 1.257 14.336.097 1.816.201 3.695.255 4.052.039.147.139.343.236.563.533 1.21 2.161 4.895-2.154 7.054zM27.928 4.811c-.194 0-.194 0-.53.257-.522.404-1.4 1.079-2.942 1.079-1.543 0-2.421-.677-2.947-1.081-.328-.255-.328-.255-.518-.255-.193 0-.193 0-.526.257-.526.404-1.403 1.079-2.942 1.079s-2.417-.677-2.939-1.081c-.332-.255-.332-.255-.525-.255-.101 0-.147 0-.221.037L17.67 9.18h6.646l3.836-4.33c-.074-.039-.12-.039-.224-.039zm9.078 36.175c-.213-.482-.429-.978-.518-1.514-.085-.489-.155-1.728-.305-4.483-.233-4.253-.623-11.371-1.157-13.649-.367-1.566-5.494-5.301-10.045-7.816H17.02c-4.636 2.562-9.674 6.229-10.045 7.818-.541 2.289-.932 9.444-1.164 13.718-.151 2.707-.216 3.923-.301 4.418-.089.533-.306 1.028-.518 1.506-.642 1.444-.623 1.454.301 1.916.967.483 6.469 2.289 15.706 2.289 7.779 0 14.603-1.738 15.706-2.289.924-.462.939-.47.301-1.914zM24.8 36.427c-.839.509-1.841.814-2.993.907v3.02c0 .473-.043.821-.139 1.04-.093.214-.298.326-.607.326-.29 0-.499-.089-.615-.266-.116-.176-.174-.455-.174-.824v-3.271c-.943-.104-1.771-.325-2.478-.667-.708-.336-1.292-.758-1.767-1.261-.472-.506-.82-1.03-1.048-1.575-.228-.545-.341-1.083-.341-1.605 0-.39.151-.74.457-1.047.301-.314.676-.47 1.129-.47.363 0 .673.087.924.255.247.172.421.406.518.717.22.661.41 1.166.568 1.518.163.354.406.673.735.965.325.289.762.512 1.303.665v-5.632c-1.083-.298-1.987-.634-2.714-1.001-.727-.368-1.315-.888-1.767-1.564-.453-.681-.677-1.551-.677-2.618 0-1.388.441-2.527 1.322-3.416.886-.887 2.162-1.404 3.836-1.547v-1.283c0-.679.251-1.019.762-1.019.518 0 .773.329.773.992v1.31c.866.087 1.605.263 2.223.532.619.267 1.16.671 1.616 1.208.364.412.646.839.843 1.276.197.433.298.832.298 1.197 0 .4-.147.752-.441 1.048-.297.294-.657.44-1.075.44-.792 0-1.303-.427-1.539-1.283-.263-1.009-.908-1.678-1.925-2.009v5.036c1.005.275 1.798.524 2.393.75.592.229 1.125.555 1.593.981.499.444.886.978 1.156 1.594.271.617.406 1.294.406 2.026 0 .925-.217 1.785-.649 2.587-.433.804-1.067 1.462-1.906 1.968zm-4.528-14.992c-.677.201-1.21.468-1.585.798-.383.333-.573.832-.573 1.504 0 .636.178 1.12.534 1.449.352.326.893.62 1.624.891v-4.642zm3.445 9.21c-.433-.385-1.071-.71-1.91-.976v5.302c.816-.156 1.45-.483 1.891-.978.444-.489.668-1.065.668-1.72 0-.7-.22-1.245-.649-1.628z"/>
</svg>
