<svg xmlns="http://www.w3.org/2000/svg" viewBox="0 0 23 21.046">
  <path d="M22 21.046H1c-.553 0-1-.447-1-1v-7.079c0-.552.447-1 1-1h.037V4.969c0-.552.447-1 1-1h18.938c.552 0 .999.448.999 1v6.998H22c.553 0 1 .448 1 1v7.079c0 .553-.447 1-1 1zM19.974 5.969H3.037v5.998H7c.553 0 1 .448 1 1v2.039h7v-2.039c0-.552.447-1 1-1h3.974V5.969zM21 13.967h-.018c-.003 0-.005.002-.007.002-.003 0-.005-.002-.008-.002H17v1.039c0 1.103-.898 2-2 2H8c-1.103 0-2-.897-2-2v-1.039H2.044c-.002 0-.004.002-.007.002s-.005-.002-.008-.002H2v5.079h19v-5.079zM19.715 3H3.547c-.277 0-.5-.224-.5-.5s.223-.5.5-.5h16.168c.276 0 .5.224.5.5s-.224.5-.5.5zm-.959-2H4.506c-.277 0-.5-.224-.5-.5s.223-.5.5-.5h14.25c.276 0 .5.224.5.5s-.224.5-.5.5z"/>
</svg>