<svg xmlns="http://www.w3.org/2000/svg" viewBox="0 0 25 23">
  <path d="M22.381 22.49H2.62c-1.162 0-2.106-.945-2.106-2.106V6.586c0-1.161.944-2.106 2.106-2.106h4.886V2.616C7.506 1.455 8.419.51 9.58.51h5.807c1.162 0 2.107.945 2.107 2.106V4.48h4.887c1.161 0 2.106.945 2.106 2.106v13.798c0 1.161-.945 2.106-2.106 2.106zM15.494 2.616c0-.059-.047-.106-.107-.106H9.611c-.059 0-.105.046-.105.106V4.48h5.988V2.616zm6.993 3.97c0-.059-.047-.106-.106-.106H2.62c-.06 0-.106.046-.106.106v4.936h7.994v-.539c0-.276.224-.5.5-.5h2.985c.276 0 .5.224.5.5v.539h7.994V6.586zm-10.979 4.897v3.024h1.985v-3.024h-1.985zm10.979 1.039h-7.994v2.485c0 .276-.224.5-.5.5h-2.985c-.276 0-.5-.224-.5-.5v-2.485H2.514v7.862c0 .059.047.106.106.106h19.761c.058 0 .106-.048.106-.106v-7.862z"/>
</svg>
