<svg xmlns="http://www.w3.org/2000/svg" viewBox="0 0 51 51">
  <path d="M25.543 50.5C11.733 50.5.499 39.267.499 25.459c0-13.13 10.267-24.09 23.374-24.954.573-.038 1.161.168 1.587.568.428.4.671.96.671 1.547v22.251h22.251c.586 0 1.147.244 1.546.671.402.428.607 1.003.569 1.588-.863 13.105-11.825 23.37-24.954 23.37zm-1.532-21.39c-1.171 0-2.119-.949-2.119-2.119V5.008C12.109 6.74 4.738 15.322 4.738 25.459c0 11.471 9.333 20.803 20.805 20.803 10.139 0 18.719-7.37 20.451-17.152H24.011zm23.268-6.813H30.15c-.586 0-1.06-.474-1.06-1.06V4.108c0-.586.474-1.06 1.06-1.06 10.028 0 18.189 8.159 18.189 18.189 0 .586-.474 1.06-1.06 1.06zM31.209 5.202v14.976h14.975c-.523-8.02-6.955-14.452-14.975-14.976z"/>
</svg>
