<svg xmlns="http://www.w3.org/2000/svg" viewBox="0 0 23.548 23.552">
  <path d="M20.106 20.102c-2.227 2.225-5.184 3.45-8.331 3.45-3.146 0-6.103-1.224-8.326-3.448C1.225 17.88 0 14.923 0 11.776 0 8.63 1.227 5.672 3.451 3.448 5.674 1.224 8.631 0 11.777 0c3.145 0 6.104 1.224 8.327 3.448 4.591 4.592 4.591 12.063.002 16.654zm-1.417-15.24C16.844 3.016 14.389 2 11.777 2 9.166 2 6.711 3.016 4.865 4.862 3.018 6.709 2 9.164 2 11.776s1.018 5.068 2.863 6.914c1.846 1.846 4.301 2.862 6.912 2.862 2.612 0 5.069-1.017 6.916-2.864 3.811-3.811 3.811-10.014-.002-13.826zm-4.101 6.228c-.236.231-.66.619-1.27 1.164-.168.154-.304.289-.406.406-.101.117-.177.223-.226.32-.049.096-.088.194-.116.29-.027.097-.068.267-.123.51-.093.516-.388.774-.884.774-.258 0-.477-.084-.653-.253-.175-.169-.263-.419-.263-.752 0-.416.064-.777.193-1.082.129-.306.301-.574.514-.804.213-.231.502-.505.863-.822.318-.278.547-.488.687-.629.143-.142.262-.299.358-.473.098-.173.146-.362.146-.565 0-.397-.148-.732-.443-1.005s-.676-.409-1.143-.409c-.545 0-.947.137-1.205.413-.257.275-.476.68-.654 1.216-.17.561-.49.841-.961.841-.277 0-.512-.098-.703-.294-.192-.195-.287-.408-.287-.636 0-.471.152-.949.455-1.433.303-.483.744-.884 1.324-1.201.58-.318 1.258-.477 2.031-.477.719 0 1.356.133 1.905.399.55.265.976.626 1.277 1.082.301.457.449.953.449 1.488 0 .422-.084.792-.256 1.109-.172.318-.375.592-.609.823zm-2.943 4.141c.312 0 .574.107.789.32.213.213.318.476.318.789 0 .347-.111.62-.334.818-.223.199-.482.298-.773.298-.303 0-.569-.098-.793-.294-.227-.196-.34-.47-.34-.822 0-.313.109-.576.328-.789.219-.213.486-.32.805-.32z"/>
</svg>
