<svg xmlns="http://www.w3.org/2000/svg" viewBox="0 0 22 26">
  <path d="M21.217 19.205l-6 6c-.188.187-.442.293-.707.293H4.49c-.553 0-1-.447-1-1V4.469c0-.552.447-.999 1-.999h16.02c.552 0 1 .447 1 .999v14.029c0 .265-.106.519-.293.707zm-6.707 3.879l4.585-4.586H14.51v4.586zm5-17.615H5.49v18.029h8.02v-5.5c0-.277.223-.5.5-.5h5.5V5.469zM7.489 13.003c0-.277.224-.5.5-.5h9.75c.276 0 .5.223.5.5 0 .276-.224.5-.5.5h-9.75c-.276 0-.5-.224-.5-.5zm10.25-1.511h-9.75c-.276 0-.5-.224-.5-.5s.224-.5.5-.5h9.75c.276 0 .5.224.5.5s-.224.5-.5.5zm-3.875-3.011H7.989c-.276 0-.5-.223-.5-.5 0-.276.224-.5.5-.5h5.875c.276 0 .5.224.5.5 0 .277-.224.5-.5.5zm-5.875 6.001h4.083c.276 0 .5.224.5.5 0 .277-.224.5-.5.5H7.989c-.276 0-.5-.223-.5-.5 0-.276.224-.5.5-.5zm9.833-11.979H2.49v19.032c0 .553-.447 1-1 1s-1-.447-1-1V2.503c0-1.103.897-2 2-2h15.332c.553 0 1 .447 1 1 0 .552-.447 1-1 1z"/>
</svg>
