<svg xmlns="http://www.w3.org/2000/svg" viewBox="0 0 22 20">
  <path d="M20.725 9.491l-2.498 2.241c-.157.141-.353.211-.55.211s-.393-.07-.549-.211l-2.499-2.241c-.338-.303-.366-.823-.062-1.162.304-.337.824-.366 1.161-.062l1.094.981c-.381-3.571-3.378-6.372-7.05-6.372-3.929 0-7.125 3.195-7.125 7.123 0 3.929 3.196 7.125 7.125 7.125 1.83 0 3.57-.692 4.897-1.95.284-.268.545-.558.779-.865.274-.362.79-.433 1.153-.157.361.275.431.79.156 1.153-.288.379-.61.737-.958 1.065-1.632 1.546-3.773 2.399-6.027 2.399-4.836 0-8.77-3.934-8.77-8.77 0-4.835 3.934-8.768 8.77-8.768 4.591 0 8.362 3.545 8.734 8.04l1.12-1.004c.337-.305.858-.276 1.162.062.303.339.275.859-.063 1.162z"/>
</svg>
