<svg xmlns="http://www.w3.org/2000/svg" viewBox="0 0 22 22">
  <path fill="#A0A8B6" d="M11 1.01c-5.509 0-9.99 4.481-9.99 9.99s4.481 9.99 9.99 9.99 9.99-4.481 9.99-9.99S16.509 1.01 11 1.01zm0 18.243c-4.551 0-8.253-3.702-8.253-8.253S6.449 2.747 11 2.747c4.55 0 8.253 3.702 8.253 8.253S15.55 19.253 11 19.253zm3.316-6.166c.339.339.339.89 0 1.229-.17.169-.392.254-.614.254-.223 0-.445-.085-.614-.254l-2.702-2.702c-.163-.163-.255-.384-.255-.614V5.823c0-.48.389-.869.869-.869.479 0 .868.389.868.869v4.817l2.448 2.447z"/>
</svg>
