<?xml version="1.0" encoding="utf-8"?>
<!-- Generator: Adobe Illustrator 23.0.4, SVG Export Plug-In . SVG Version: 6.00 Build 0)  -->
<svg version="1.1" id="i-home" xmlns="http://www.w3.org/2000/svg" xmlns:xlink="http://www.w3.org/1999/xlink" x="0px" y="0px"
	 viewBox="0 0 27 21" style="enable-background:new 0 0 27 21;" xml:space="preserve">
<style type="text/css">
	.st0{fill:#ED4545;}
</style>
<g>
	<g>
		<g>
			<path class="st0" d="M-32.5,21.3c-0.2,0-0.3-0.1-0.5-0.2l-5.1-5.1c-0.1-0.1-0.2-0.3-0.2-0.5s0.1-0.3,0.2-0.5L-33,10
				c0.2-0.2,0.5-0.2,0.7-0.1c0.2,0.1,0.4,0.3,0.4,0.6v2.5h11.3c0.4,0,0.7,0.3,0.7,0.7v4c0,0.4-0.3,0.7-0.7,0.7h-11.3v2.5
				c0,0.3-0.2,0.5-0.4,0.6C-32.3,21.3-32.4,21.3-32.5,21.3z M-36.7,15.6l3.5,3.5v-1.6c0-0.4,0.3-0.7,0.7-0.7h11.3v-2.6h-11.3
				c-0.4,0-0.7-0.3-0.7-0.7V12L-36.7,15.6z"/>
		</g>
		<g>
			<path class="st0" d="M-25.6,11.8c-0.1,0-0.2,0-0.3-0.1c-0.2-0.1-0.4-0.3-0.4-0.6V8.7h-11.3c-0.4,0-0.7-0.3-0.7-0.7v-4
				c0-0.4,0.3-0.7,0.7-0.7h11.3V0.9c0-0.3,0.2-0.5,0.4-0.6c0.2-0.1,0.5,0,0.7,0.1l5.1,5.1c0.1,0.1,0.2,0.3,0.2,0.5
				c0,0.2-0.1,0.3-0.2,0.5l-5.1,5.1C-25.3,11.8-25.5,11.8-25.6,11.8z M-37,7.4h11.3c0.4,0,0.7,0.3,0.7,0.7v1.6l3.5-3.5L-25,2.5v1.6
				c0,0.4-0.3,0.7-0.7,0.7H-37V7.4z"/>
		</g>
	</g>
</g>
<g>
	<path d="M13.5,20.7c-5.6,0-10.2-4.5-10.3-10.2c0-5.6,4.5-10.2,10.2-10.3c5.6,0,10.2,4.5,10.3,10.2S19.2,20.7,13.5,20.7z M13.5,1.7
		c-4.8,0-8.7,4-8.7,8.8c0,4.8,4,8.7,8.8,8.7c4.8,0,8.7-4,8.7-8.8C22.2,5.6,18.3,1.7,13.5,1.7z M13.5,17.4c-1.2,0-2.4-0.3-3.5-0.9
		c-0.1-0.1-0.2-0.2-0.2-0.3c0-0.1,0-0.3,0.1-0.4l8.8-8.9c0.1-0.1,0.2-0.1,0.4-0.1c0.1,0,0.2,0.1,0.3,0.2c0.6,1.1,1,2.3,1,3.5
		C20.4,14.3,17.3,17.4,13.5,17.4z M12.1,15.3c0.6,0.3,1.3,0.4,2,0.4c2.6,0,4.7-2.1,4.7-4.7c0-0.7-0.2-1.4-0.5-2L12.1,15.3z"/>
	<g>
		<path d="M13.5,3.6c1.2,0,2.4,0.3,3.5,0.9c0.1,0.1,0.2,0.2,0.2,0.3c0,0.1,0,0.3-0.1,0.4l-8.8,8.9c-0.1,0.1-0.2,0.1-0.4,0.1
			c-0.1,0-0.2-0.1-0.3-0.2c-0.6-1.1-1-2.3-1-3.5C6.6,6.7,9.7,3.6,13.5,3.6z M14.9,5.7c-0.6-0.3-1.3-0.4-2-0.4
			c-2.6,0-4.7,2.1-4.7,4.7c0,0.7,0.2,1.4,0.5,2L14.9,5.7z"/>
	</g>
</g>
<path class="st0" d="M-50.7-19.2c0-4.4-3.5-7.9-7.9-7.9s-7.9,3.5-7.9,7.9c0,3,1.6,5.6,4.1,6.9v5.3c0,0.2,0.1,0.4,0.3,0.5
	c0.2,0.1,0.4,0.1,0.6,0l2.9-1.9l2.9,1.9c0.1,0.1,0.2,0.1,0.3,0.1c0.1,0,0.2,0,0.3-0.1c0.2-0.1,0.3-0.3,0.3-0.5v-5.3
	C-52.4-13.6-50.7-16.2-50.7-19.2z M-56.3-8.2l-2.1-1.3c-0.2-0.1-0.4-0.1-0.6,0L-61-8.2v-3.3c0.7,0.3,1.5,0.4,2.4,0.4
	c0.8,0,1.6-0.1,2.4-0.4V-8.2z M-55.8-13.6c-0.1,0-0.1,0-0.2,0.1c-0.8,0.4-1.7,0.6-2.7,0.6c-1,0-1.9-0.2-2.7-0.6
	c-0.1,0-0.1-0.1-0.2-0.1c-2-1-3.4-3.2-3.4-5.6c0-3.5,2.8-6.3,6.3-6.3s6.3,2.8,6.3,6.3C-52.3-16.8-53.7-14.6-55.8-13.6z M-54.7-22
	c0.3,0.3,0.3,0.7,0,1l-4.6,4.6c-0.1,0.1-0.3,0.2-0.5,0.2c-0.2,0-0.4-0.1-0.5-0.2l-2.1-2.1c-0.3-0.3-0.3-0.7,0-1s0.7-0.3,1,0l1.6,1.6
	l4.1-4.1C-55.5-22.3-55-22.3-54.7-22z"/>
<path class="st0" d="M-62,2.4c0-1.6-1.3-2.8-2.9-2.8c-1.2,0-2.3,0.8-2.7,2c0,0,0,0.1,0,0.1l-0.1,0.6c-0.6,0.5-1.1,1.1-1.3,1.8
	l-2.7,7.2c-0.1,0.3-0.2,0.6-0.3,0.9v0c0,0.1,0,0.1,0,0.2c-0.7,2.9,1.1,5.8,3.9,6.5c2.9,0.7,5.8-1.1,6.5-3.9c0.1-0.4,0.2-0.9,0.1-1.3
	c0-0.2,0-0.3,0-0.5c0-0.1,0-0.1,0-0.2v-2.2h3.2v2.2c0,0.1,0,0.1,0,0.2c0,0.1,0,0.3,0,0.5c0,3,2.4,5.4,5.3,5.4c3,0,5.4-2.4,5.4-5.3
	c0-0.4,0-0.9-0.1-1.3c0-0.1,0-0.1,0-0.2v0c-0.1-0.3-0.2-0.6-0.3-0.9l-2.7-7.2c-0.2-0.7-0.7-1.4-1.3-1.8l-0.1-0.6c0,0,0-0.1,0-0.1
	c-0.5-1.5-2.1-2.3-3.6-1.8c-1.2,0.4-2,1.5-2,2.7c0,0,0,0,0,0l0,1c-0.2,0.4-0.4,0.8-0.5,1.2h-3.4c-0.1-0.4-0.2-0.8-0.5-1.2L-62,2.4
	C-62,2.4-62,2.4-62,2.4z M-58.3,7.7h-3.2V6.1h3.3L-58.3,7.7z M-64.9,1.1c0.5,0,1,0.3,1.2,0.7c-0.5-0.3-1.1-0.4-1.7-0.4
	c-0.1,0-0.3,0-0.4,0C-65.6,1.2-65.2,1.1-64.9,1.1z M-67.6,4.6L-67.6,4.6c0.4-1.2,1.7-1.9,2.9-1.5c0.9,0.3,1.6,1.2,1.6,2.2l0,3.1
	c0,0,0,0,0,0.1c0,0,0,0.1,0,0.1v1.3c-1.6-1.6-4-2-6-1.1L-67.6,4.6z M-66.9,17.1c-1.9,0-3.5-1.6-3.5-3.5c0-0.3,0-0.6,0.1-0.9L-70,12
	c0.9-1.7,3-2.4,4.7-1.6c1.7,0.9,2.4,3,1.6,4.7C-64.3,16.3-65.5,17.1-66.9,17.1z M-53,17.1c-1.9,0-3.5-1.6-3.5-3.5
	c0-1.9,1.6-3.5,3.5-3.5c1.3,0,2.5,0.7,3.1,1.9l0.3,0.7c0.5,1.9-0.6,3.8-2.5,4.2C-52.4,17-52.7,17.1-53,17.1z M-50.7,8.7
	c-2-0.9-4.4-0.5-6,1.1l0-4.5c0-1.3,1-2.3,2.3-2.3c1,0,1.9,0.6,2.2,1.6v0L-50.7,8.7z M-54.9,1.1c0.3,0,0.7,0.1,0.9,0.4
	c-0.1,0-0.3,0-0.4,0c-0.6,0-1.1,0.1-1.7,0.4C-55.9,1.4-55.4,1.1-54.9,1.1z"/>
</svg>
