<svg xmlns="http://www.w3.org/2000/svg" viewBox="0 0 50 51">
  <path d="M44.992 50.497c0-5.685-5.051-10.309-11.259-10.309v-4.336c8.6 0 15.595 6.57 15.595 14.645h-4.336zm-7.854-21.16c-.055 0-.115-.01-.165-.027-.277-.092-.494-.419-.634-.937-2.623 5.833-6.607 9.151-11.341 9.154-4.74-.003-8.723-3.32-11.343-9.15-.141.516-.357.841-.632.933-.055.017-.11.027-.169.027-.741 0-1.747-1.469-2.503-4.107-.822-2.852-.699-5.672.381-5.985.076-.03.157-.043.237-.043.034 0 .069.022.104.027-.679-5.105.353-9.743 2.956-13.277.267-.626.76-1.187 1.425-1.682.955-1.217 2.198-2.224 3.745-2.615C21.031.809 23.033.406 25.066.526c.118-.016.368-.023.622-.023 1.913 0 3.784.472 5.496 1.338.823.309 1.553.793 2.187 1.386.746.586 1.44 1.26 2.069 2.015 3.005 3.609 4.207 8.542 3.484 13.986.032-.004.066-.026.098-.026.08 0 .161.013.241.043 1.08.313 1.203 3.133.382 5.985-.76 2.638-1.766 4.107-2.507 4.107zm-12.14 6.021c4.689-.003 8.551-4.235 10.702-11.496-.802.511-1.743.83-2.737.875l-1.732.019h-.013c-1.431-.022-2.79-.608-3.73-1.609-.523-.555-.869-1.212-1.064-1.908h-2.85c-.186.642-.508 1.253-.99 1.781-.936 1.024-2.309 1.649-3.773 1.714l-1.731.022h-.013c-.994-.015-1.945-.318-2.754-.828 2.153 7.219 6.006 11.427 10.685 11.43zm10.734-15.34l-.03-.776c-2.367-.692-4.903-.721-7.262-.084l-.025.771c-.03.654.203 1.255.652 1.734.538.571 1.329.908 2.168.925l1.668-.019c.856-.039 1.681-.407 2.232-1.01.415-.453.627-1.002.597-1.541zm-20.816 1.645c.538.571 1.325.908 2.168.925l1.668-.019c.853-.04 1.681-.409 2.232-1.01.415-.453.626-1.002.601-1.546l-.03-.768c-2.367-.699-4.903-.727-7.262-.087l-.025.794c-.034.633.199 1.232.648 1.711zm21.163-7.5c-.151-1.205-.062-2.613-.175-3.852-.008-.021-.017-.041-.025-.062-1.145-.993-2.984-2.426-5.101-2.426h-.068c-1.165.645-2.202.778-3.189 1.405-.436.277-1.537.417-2.633.417-1.097 0-2.198-.14-2.634-.417-.983-.627-2.024-.76-3.184-1.405h-.072c-1.93 0-3.622 1.19-4.774 2.152-.133.318-.274.631-.385.962-.048 1.074-.013 2.218-.139 3.226-.135 1.073-.406 1.616-.68 1.895-.003.395.028.802.048 1.205 3.17-1.012 6.649-.969 9.83.133l.571.199.131.593c.06.282.109.568.119.845l.001.038h2.556l.005-.125c.017-.298.055-.569.11-.834l.117-.622.607-.199c3.163-1.032 6.63-1.005 9.813.07.021-.376.053-.755.053-1.123-.338-.185-.732-.701-.902-2.075zM16.267 40.188c-6.208 0-11.26 4.624-11.26 10.309H.671c0-8.075 6.996-14.645 15.596-14.645v4.336z"/>
</svg>
