<svg xmlns="http://www.w3.org/2000/svg" width="102" height="26" viewBox="0 0 102 26">
  <path fill="#373A42" d="M94.429 24.716v-.93h6.726v.93h-6.726zm0-6.514h6.726v.926h-6.726v-.926zm0-5.585h6.726v.932h-6.726v-.932zm0-5.588h6.726v.934h-6.726v-.934zm0-5.581h6.726v.928h-6.726v-.928zm-14.912 23.23L84.47 1.385h6.648l-4.954 23.293h-6.647zM71.704 8.225c.154-.711.716-3.228-2.381-3.228-1.871 0-3.291 1.066-3.588 2.452-.364 1.711.967 2.131 1.851 2.388l4.114 1.129c2.923.808 6.399 1.773 5.351 6.711-1.11 5.196-6.049 7.523-11.889 7.523-2.421 0-6.242-.388-7.868-2.782-1.309-1.873-.854-4.162-.676-5.159h6.484c-.166.934-.672 3.611 3.171 3.611.549 0 3.454 0 4.012-2.645.238-1.098-.058-1.839-1.523-2.258l-5.391-1.485c-1.523-.42-5.452-1.516-4.416-6.385C59.756 4.32 63.342.801 70.312.801c9.099 0 8.438 4.939 7.94 7.424h-6.548zM44.167 5.902l-1.023 4.838h10.449l-.945 4.451H42.197l-1.055 4.97h11.354l-.962 4.517H33.791l4.937-23.229h17.484l-.946 4.453H44.167zM25.686 8.225c.15-.711.715-3.228-2.38-3.228-1.872 0-3.293 1.066-3.589 2.452-.365 1.711.969 2.131 1.85 2.388l4.115 1.129c2.926.808 6.397 1.773 5.349 6.711-1.108 5.196-6.049 7.523-11.889 7.523-2.419 0-6.243-.388-7.865-2.782-1.313-1.873-.855-4.162-.679-5.159h6.484c-.166.934-.67 3.611 3.174 3.611.547 0 3.451 0 4.011-2.645.237-1.098-.059-1.839-1.521-2.258l-5.396-1.485c-1.519-.42-5.449-1.516-4.411-6.385C13.738 4.32 17.325.801 24.295.801c9.098 0 8.435 4.939 7.94 7.424h-6.549zM.845 23.786H7.57v.93H.845v-.93zm0-5.584H7.57v.926H.845v-.926zm0-5.585H7.57v.932H.845v-.932zm0-5.588H7.57v.934H.845v-.934zm0-5.581H7.57v.928H.845v-.928z"/>
</svg>
