<svg xmlns="http://www.w3.org/2000/svg" viewBox="0 0 25 24">
  <path d="M24.167 20.542c-.029.533-.471.946-.998.946-.018 0-.037 0-.055-.001l-4.382-.237c-.51-.029-.916-.436-.946-.946l-.236-4.381c-.029-.551.394-1.022.945-1.052.53-.032 1.024.393 1.053.945l.117 2.168c3.134-3.687 2.969-9.238-.51-12.718-2.283-2.282-5.529-3.229-8.693-2.525-.537.117-1.074-.221-1.193-.76s.22-1.073.759-1.193c3.831-.85 7.77.296 10.541 3.064 4.251 4.252 4.421 11.052.53 15.523l2.123.115c.553.029.974.501.945 1.052zm-13.829-8.686c-.456-.231-.827-.558-1.11-.985-.285-.427-.426-.974-.426-1.644 0-.873.277-1.589.832-2.147.557-.557 1.359-.882 2.41-.973v-.806c0-.426.158-.64.479-.64.324 0 .486.207.486.624v.822c.543.056 1.01.166 1.396.334.389.168.729.423 1.016.761.229.259.406.526.531.801.123.272.188.524.188.753 0 .253-.096.473-.28.658-.185.184-.41.277-.673.277-.498 0-.819-.268-.967-.807-.166-.633-.571-1.054-1.211-1.262v3.165c.631.172 1.129.329 1.504.471.373.143.707.348 1.002.618.312.278.554.613.726 1.001.17.387.254.812.254 1.274 0 .578-.136 1.12-.407 1.624-.27.506-.671.918-1.198 1.237-.53.32-1.157.511-1.881.57v1.897c0 .298-.027.517-.088.654-.059.135-.186.206-.383.206-.181 0-.312-.057-.385-.168-.072-.112-.109-.285-.109-.518v-2.056c-.594-.065-1.113-.205-1.559-.418-.443-.212-.81-.477-1.109-.793-.297-.319-.516-.648-.658-.991-.143-.342-.213-.679-.213-1.008 0-.245.094-.463.285-.658.19-.196.426-.295.711-.295.229 0 .421.055.58.16.154.108.264.256.326.451.137.416.256.733.358.955.101.22.254.422.461.605.205.183.478.322.818.418v-3.54c-.68-.186-1.248-.396-1.706-.627zm1.706-4.265c-.426.125-.76.294-.998.501-.238.208-.357.523-.357.945 0 .4.111.705.336.91.222.205.56.391 1.019.56V7.591zm.965 8.507c.514-.1.91-.305 1.189-.615.278-.308.418-.67.418-1.082 0-.439-.138-.781-.408-1.022-.271-.242-.672-.447-1.199-.615v3.334zM6.503 9.203c-.018.001-.035.001-.055.001-.527 0-.968-.413-.998-.946l-.124-2.316C3.838 7.65 3.019 9.806 3.019 12.091c0 2.508.976 4.867 2.752 6.641 2.285 2.285 5.533 3.226 8.687 2.527.541-.12 1.074.218 1.193.757.122.539-.218 1.074-.757 1.195-.834.185-1.672.276-2.504.276-2.985 0-5.865-1.173-8.033-3.341-2.153-2.151-3.338-5.012-3.338-8.055 0-2.745.974-5.338 2.745-7.4l-1.988-.109c-.55-.03-.972-.501-.943-1.053.029-.552.496-1 1.053-.943l4.383.24c.509.027.916.434.943.944l.236 4.38c.03.552-.392 1.023-.945 1.053z"/>
</svg>
