<svg xmlns="http://www.w3.org/2000/svg" viewBox="0 0 25 20">
  <path d="M24 2.921c0 .838-.683 1.517-1.525 1.517H8.552c-.842 0-1.525-.678-1.525-1.517 0-.837.683-1.516 1.525-1.516h13.923c.842 0 1.525.679 1.525 1.516zm-15.448 8.57h7.915c.842 0 1.525-.678 1.525-1.517 0-.837-.683-1.517-1.525-1.517H8.552c-.842 0-1.525.68-1.525 1.517.001.839.683 1.517 1.525 1.517zm11.17 4.071H8.552c-.842 0-1.525.678-1.525 1.516s.683 1.517 1.525 1.517h11.169c.842 0 1.525-.678 1.525-1.517.001-.837-.682-1.516-1.524-1.516zM2.651 1.279c-.434 0-.862.174-1.169.48-.307.305-.482.73-.482 1.162 0 .433.175.857.482 1.163.307.306.735.48 1.169.48.435 0 .862-.174 1.169-.48.308-.305.483-.73.483-1.163 0-.432-.175-.856-.483-1.162-.307-.306-.734-.48-1.169-.48zm0 7.054c-.434 0-.862.174-1.169.479C1.175 9.118 1 9.543 1 9.975c0 .433.175.857.482 1.161.307.308.735.482 1.169.482.435 0 .862-.174 1.169-.482.308-.306.483-.728.483-1.161 0-.432-.175-.856-.483-1.163-.307-.305-.734-.479-1.169-.479zm0 7.103c-.434 0-.862.174-1.169.479-.307.307-.482.731-.482 1.163 0 .433.175.857.482 1.163.307.306.735.48 1.169.48.435 0 .862-.174 1.169-.48.308-.305.483-.73.483-1.163 0-.432-.175-.856-.483-1.163-.307-.305-.734-.479-1.169-.479z"/>
</svg>
