<svg xmlns="http://www.w3.org/2000/svg" viewBox="0 0 24 24">
  <path d="M13.285 23.75h-2.57c-.938 0-1.701-.763-1.701-1.701v-1.662l-.797-.309-1.211 1.141c-.641.64-1.764.64-2.404 0l-1.819-1.82c-.32-.318-.498-.745-.498-1.202 0-.456.178-.884.502-1.205l1.172-1.173-.344-.788-1.664-.045c-.937 0-1.701-.762-1.701-1.7v-2.571c0-.938.764-1.702 1.701-1.702h1.664l.309-.795-1.141-1.212c-.32-.318-.498-.746-.498-1.202 0-.457.178-.885.502-1.205l1.815-1.817c.638-.64 1.765-.642 2.406.001l1.174 1.175.783-.345.049-1.662c0-.938.763-1.701 1.701-1.701h2.57c.94 0 1.703.763 1.703 1.701v1.663l.797.31 1.209-1.142c.322-.321.75-.497 1.203-.497.455 0 .881.176 1.203.496l1.819 1.821c.318.317.496.745.496 1.202 0 .456-.178.884-.5 1.204l-1.174 1.174.346.784 1.664.047c.937 0 1.699.764 1.699 1.702v2.571c0 .938-.762 1.7-1.699 1.7h-1.664l-.311.799 1.141 1.21c.32.318.498.746.498 1.202 0 .457-.178.884-.5 1.205l-1.813 1.816c-.648.644-1.763.641-2.404.003l-1.18-1.178-.783.344-.047 1.662c0 .938-.763 1.701-1.703 1.701zm-2.271-2h1.974v-1.363c0-.809.578-1.614 1.346-1.872l.687-.286c.192-.099.487-.166.791-.166.543 0 1.061.206 1.42.566l.965.964 1.395-1.396-.965-.964c-.572-.574-.731-1.552-.369-2.276l.281-.688c.23-.702 1.035-1.283 1.848-1.283h1.363v-1.972h-1.363c-.813 0-1.618-.581-1.873-1.351l-.286-.683c-.33-.659-.173-1.636.397-2.21l.967-.966-1.395-1.396-.965.964c-.562.562-1.56.727-2.277.37l-.686-.281c-.701-.232-1.281-1.037-1.281-1.847V2.25h-1.974v1.364c0 .811-.58 1.616-1.35 1.872l-.684.285c-.191.099-.488.167-.793.167-.543 0-1.062-.207-1.419-.567l-.963-.963L4.41 5.804l.963.963c.572.577.73 1.554.369 2.277l-.277.684c-.235.706-1.039 1.286-1.85 1.286H2.25v1.972h1.365c.811 0 1.615.579 1.873 1.347l.285.69c.33.658.172 1.636-.398 2.209l-.965.965 1.395 1.396.963-.964c.556-.56 1.562-.729 2.277-.37l.685.279c.717.238 1.284 1.026 1.284 1.849v1.363zM12 16.389c-2.418 0-4.387-1.969-4.387-4.389S9.582 7.611 12 7.611c2.42 0 4.389 1.969 4.389 4.389S14.42 16.389 12 16.389zm0-6.778c-1.316 0-2.387 1.072-2.387 2.389s1.071 2.388 2.387 2.388c1.318 0 2.389-1.071 2.389-2.388S13.318 9.611 12 9.611z"/>
</svg>
