<svg xmlns="http://www.w3.org/2000/svg" viewBox="0 0 25 24">
  <path d="M5.365 23.522c.664 0 1.409-.286 1.854-.713l1.055-1.01c2.689-2.579 5.38-5.158 8.07-7.74 2.119.395 4.344-.242 5.926-1.71 2.023-1.88 2.724-4.772 1.781-7.369-.115-.314-.379-.552-.705-.63-.322-.079-.67.011-.916.239l-3.135 2.915-1.75-1.886 3.137-2.911c.246-.228.361-.564.306-.895-.052-.331-.271-.613-.576-.75-2.469-1.106-5.49-.614-7.482 1.233-1.608 1.495-2.385 3.622-2.141 5.783-2.308 2.073-4.611 4.148-6.914 6.222l-2.486 2.239c-.479.427-.94 1.349-.84 2.208.271 2.306 2.123 4.298 4.402 4.737.129.025.27.038.414.038zm10.676-11.559c-.254 0-.504.098-.691.279-2.821 2.707-5.641 5.41-8.461 8.113l-1.055 1.011c-.062.053-.293.157-.469.157l-.029-.002c-1.43-.275-2.631-1.567-2.801-3.006-.012-.111.1-.397.194-.492l2.484-2.238c2.438-2.194 4.873-4.388 7.314-6.58.262-.236.381-.593.313-.938-.33-1.67.213-3.355 1.451-4.507.998-.927 2.35-1.39 3.699-1.283l-2.023 1.878c-.69.645-.727 1.724-.088 2.409l2.15 2.318c.608.661 1.748.705 2.411.087l2.023-1.88c.01 1.338-.535 2.647-1.555 3.594-1.22 1.134-2.99 1.557-4.601 1.117-.088-.025-.176-.037-.266-.037z"/>
</svg>
