<svg xmlns="http://www.w3.org/2000/svg" viewBox="0 0 51 44">
  <path d="M46.712 30.859c-1.662 1.847-4.22 2.986-6.881 2.986h-4.778c-1.112 0-2.011-.9-2.011-2.011 0-1.112.899-2.012 2.011-2.012h4.778c1.549 0 2.983-.64 4.036-1.803 1.725-1.58 2.599-3.544 2.599-5.666 0-4.113-3.349-7.46-7.464-7.46-.771 0-1.538.122-2.282.361-.579.191-1.209.102-1.72-.23-.509-.334-.839-.88-.9-1.485-.512-5.17-4.82-9.069-10.024-9.069-5.551 0-10.07 4.518-10.07 10.069 0 .648.068 1.312.201 1.972.118.592-.034 1.205-.416 1.672-.381.466-.954.737-1.556.737H9.983c-3.005 0-5.449 2.445-5.449 5.453 0 3.005 2.444 5.449 5.449 5.449h5.961c1.112 0 2.011.9 2.011 2.012 0 1.111-.899 2.011-2.011 2.011H9.983c-5.223 0-9.472-4.249-9.472-9.472 0-5.225 4.249-9.476 9.472-9.476h.004c-.002-.12-.004-.238-.004-.358C9.983 6.768 16.305.447 24.076.447c6.522 0 12.042 4.38 13.635 10.496.428-.048.857-.073 1.291-.073 6.335 0 11.487 5.152 11.487 11.483 0 3.222-1.377 6.322-3.777 8.506zm-31.664-4.993c-.894.652-2.159.456-2.809-.444-.654-.898-.456-2.155.444-2.809l11.636-8.467c.006-.004.014-.006.021-.01.15-.107.317-.19.494-.253.041-.014.081-.026.123-.038.17-.048.346-.081.531-.082h.033c.185.002.362.035.532.084.039.011.077.022.116.036.177.063.344.145.495.252.007.005.016.006.023.011l11.633 8.467c.898.654 1.096 1.911.442 2.811-.393.54-1.008.827-1.629.827-.411 0-.825-.126-1.182-.385l-8.437-6.142v21.818c0 1.111-.9 2.011-2.012 2.011s-2.011-.9-2.011-2.011V19.723l-8.443 6.143z"/>
</svg>
