<svg xmlns="http://www.w3.org/2000/svg" viewBox="0 0 45 51">
  <path d="M22.5 29.665c7.648 0 12.591-5.728 12.591-14.592C35.091 7.09 34.144.482 22.5.482S9.909 7.09 9.909 15.073c0 10.758 6.503 14.592 12.591 14.592zm0-25.256c7.528 0 8.665 2.402 8.665 10.664 0 6.678-3.24 10.665-8.665 10.665-5.506 0-8.665-3.887-8.665-10.665 0-8.392 1.079-10.664 8.665-10.664zM43.874 45.56c-.448-2.803-1.743-5.347-3.745-7.36-2.002-2.012-4.539-3.32-7.265-3.771-.221-.045-5.472-1.108-10.364-1.108s-10.143 1.063-10.292 1.095c-2.798.464-5.335 1.772-7.337 3.784-2.002 2.013-3.297 4.557-3.747 7.361L.43 49.897l3.88.621.691-4.335c.32-1.986 1.237-3.788 2.654-5.213s3.214-2.352 5.269-2.694c.049-.01 5.09-1.029 9.576-1.029s9.527 1.019 9.649 1.043c1.982.328 3.779 1.255 5.196 2.68 1.418 1.425 2.334 3.227 2.652 5.212l.693 4.336 3.879-.621-.695-4.337z"/>
</svg>
