<svg width="58" height="98" viewBox="0 0 58 98" fill="none" xmlns="http://www.w3.org/2000/svg">
<path d="M2.5626 2.59823C0.921271 4.24935 0 6.48289 0 8.81102C0 11.1391 0.921271 13.3727 2.5626 15.0238L36.755 49.2162L2.5626 83.4085C1.11889 85.0944 0.364486 87.2629 0.450153 89.4808C0.53582 91.6987 1.45525 93.8026 3.0247 95.372C4.59415 96.9415 6.69803 97.8609 8.91592 97.9466C11.1338 98.0322 13.3023 97.2778 14.9882 95.8341L55.4374 55.3849C57.0787 53.7338 58 51.5002 58 49.1721C58 46.844 57.0787 44.6105 55.4374 42.9593L14.9706 2.5101C13.3086 0.885797 11.0723 -0.016282 8.74844 0.000222551C6.42459 0.0167271 4.20133 0.95048 2.5626 2.59823V2.59823Z" fill="#B486FD"/>
</svg>
