<svg width="7" height="12" viewBox="0 0 7 12" fill="none" xmlns="http://www.w3.org/2000/svg">
<path d="M0.291814 9.46204L4.17181 5.58204L0.291814 1.70004C0.133001 1.50826 0.0514536 1.26412 0.0631246 1.01539C0.0747955 0.766654 0.178845 0.531224 0.354919 0.35515C0.530993 0.179076 0.766423 0.0750267 1.01516 0.0633557C1.26389 0.0516847 1.50803 0.133232 1.69981 0.292045L6.28981 4.88204C6.47606 5.06941 6.58061 5.32286 6.58061 5.58704C6.58061 5.85123 6.47606 6.10468 6.28981 6.29204L1.69981 10.882C1.51245 11.0683 1.259 11.1728 0.994814 11.1728C0.730628 11.1728 0.477176 11.0683 0.289814 10.882C0.104879 10.6918 0.0015805 10.4369 0.00195414 10.1716C0.00232777 9.90635 0.106344 9.65172 0.291814 9.46204V9.46204Z" fill="white"/>
</svg>
