<svg width="98" height="59" viewBox="0 0 98 59" fill="none" xmlns="http://www.w3.org/2000/svg">
<path d="M95.3783 3.53916C93.7272 1.89783 91.4937 0.976563 89.1655 0.976563C86.8374 0.976563 84.6039 1.89783 82.9528 3.53916L48.7604 37.7315L14.568 3.53916C12.8822 2.09545 10.7136 1.34105 8.49576 1.42672C6.27787 1.51238 4.17399 2.43181 2.60454 4.00126C1.03509 5.57071 0.115657 7.6746 0.02999 9.89248C-0.0556773 12.1104 0.698727 14.2789 2.14244 15.9647L42.5917 56.414C44.2428 58.0553 46.4763 58.9766 48.8044 58.9766C51.1326 58.9766 53.3661 58.0553 55.0172 56.414L95.4665 15.9471C97.0908 14.2851 97.9928 12.0488 97.9763 9.725C97.9598 7.40116 97.0261 5.1779 95.3783 3.53916V3.53916Z" fill="#4D1AA3"/>
</svg>
