<svg xmlns="http://www.w3.org/2000/svg" viewBox="0 0 100 34">
  <path d="M95.18 33.354h-2.16v-1.366c-1.665.87-3.562 1.366-5.57 1.366-6.658 0-12.052-5.395-12.052-12.05 0-6.657 5.394-12.052 12.052-12.052 2.008 0 3.905.494 5.57 1.366V9.252h6.481v24.102H95.18zm-7.73-17.256c-2.876 0-5.206 2.332-5.206 5.206s2.331 5.203 5.206 5.203c2.872 0 5.203-2.329 5.203-5.203s-2.331-5.206-5.203-5.206zm-18.18 8.481h-.008v8.776h-8.625l-.019-8.776c0-8.304 6.644-15.051 14.906-15.222v8.617c-3.447.273-6.17 3.106-6.254 6.605zm-24.86-6.455V.645h8.625v8.627h4.147v8.625H53.09l.008.276c.026 3.581 2.933 6.474 6.52 6.474v8.708c-8.41-.001-15.208-6.819-15.208-15.231zm-4.438 5.243l4.07 6.033c-5.432 5.363-14.918 5.525-20.329-1.076-3.313-4.134-3.13-10.906.269-14.788 6.022-7.006 16.84-4.926 20.294 2.688l-13.403 9.664c3.625 1.816 7.481-.125 9.099-2.521zm-3.326-6.128c-3.89-3.029-9.255 1.268-7.671 5.318l7.671-5.318zM17.311 33.354H.5l7.053-15.386H1.547v-.003l3.951-8.617h15.461l-7.004 15.248h7.372l-4.016 8.758z"/>
</svg>
